<?xml version="1.0" standalone="no"?>
<!DOCTYPE svg PUBLIC "-//W3C//DTD SVG 1.1//EN" "http://www.w3.org/Graphics/SVG/1.1/DTD/svg11.dtd" >
<svg xmlns="http://www.w3.org/2000/svg" xmlns:xlink="http://www.w3.org/1999/xlink" version="1.1">
<metadata>
Created by FontForge 20170731 at Tue Jul 19 11:25:36 2022
 By Aleksey,,,
Copyright 2013 The Exo 2 Project Authors (https://github.com/NDISCOVER/Exo-2.0)
</metadata>
<defs>
<font id="Exo2-ExtraBold" horiz-adv-x="697" >
  <font-face 
    font-family="Exo 2 ExtraBold"
    font-weight="800"
    font-stretch="normal"
    units-per-em="1000"
    panose-1="0 0 9 0 0 0 0 0 0 0"
    ascent="800"
    descent="-200"
    x-height="497"
    cap-height="690"
    bbox="-513 -301 1311 1132"
    underline-thickness="50"
    underline-position="-150"
    unicode-range="U+0020-FB02"
  />
<missing-glyph horiz-adv-x="571" 
d="M501 0h-430v690h430v-690zM460 649h-348v-608h348v608z" />
    <glyph glyph-name="uFB01" unicode="fi" horiz-adv-x="700" 
d="M646 675v-53q0 -27 -13 -40t-41 -13h-77q-53 0 -53 53v53q0 53 53 53h77q54 0 54 -53zM645 0h-183v383h-182v-383h-183v383h-84v109l84 5v63q0 162 174 162q32 0 72.5 -3t69.5 -9v-113h-78q-31 0 -43 -13.5t-12 -47.5v-39h365v-497z" />
    <glyph glyph-name="uFB02" unicode="fl" horiz-adv-x="750" 
d="M747 10q-18 -11 -58 -17t-72 -6q-70 0 -110 35.5t-40 98.5v478h-134q-31 0 -43 -13.5t-12 -49.5v-39h114v-114h-114v-383h-182v383h-83v109l83 5v63q0 162 169 162h44q232 0 340 -21v-532q0 -22 11.5 -32.5t34.5 -10.5h32z" />
    <glyph glyph-name="f_f" unicode="ff" horiz-adv-x="782" 
d="M654.5 584q-12.5 -13 -12.5 -45v-42h131v-114h-131v-383h-176v383h-191v-383h-177v383h-85v109l85 5v57q3 158 172 158q33 0 79 -3t73 -9l-17 -113h-74q-32 0 -44 -12t-12 -46v-32h191v67q0 158 171 158q38 0 89.5 -3t83.5 -9l-17 -113h-94q-32 0 -44.5 -13z" />
    <glyph glyph-name="f_f_i" unicode="ffi" horiz-adv-x="1061" 
d="M1007 675v-53q0 -53 -53 -53h-77q-28 0 -41 13t-13 40v53q0 53 54 53h77q53 0 53 -53zM1006 0h-183v383h-183v-383h-176v383h-192v-383h-177v383h-82v109l82 5v57q3 158 172 158q33 0 79 -3t73 -9l-17 -113h-74q-32 0 -44 -12.5t-12 -45.5v-32h192v63q0 77 40.5 119.5
t132.5 42.5q80 0 137 -12v-113h-72q-36 0 -49 -13.5t-13 -47.5v-39h366v-497z" />
    <glyph glyph-name="f_f_l" unicode="ffl" horiz-adv-x="1118" 
d="M1116 10q-18 -11 -58 -17t-72 -6q-70 0 -109.5 35.5t-39.5 98.5v478h-140q-28 0 -41.5 -14t-13.5 -49v-39h119v-114h-119v-383h-176v383h-191v-383h-177v383h-85v109l85 5v57q3 158 172 158q33 0 79 -3t73 -9l-17 -113h-74q-32 0 -44 -12t-12 -46v-32h191v63
q0 162 168 162h44q232 0 340 -21v-532q0 -43 47 -43h31z" />
    <glyph glyph-name=".notdef" horiz-adv-x="571" 
d="M501 0h-430v690h430v-690zM460 649h-348v-608h348v608z" />
    <glyph glyph-name=".null" horiz-adv-x="0" 
 />
    <glyph glyph-name="nonmarkingreturn" horiz-adv-x="333" 
 />
    <glyph glyph-name="space" unicode=" " horiz-adv-x="213" 
 />
    <glyph glyph-name="exclam" unicode="!" horiz-adv-x="316" 
d="M248 445l-19 -222h-143l-19 222v250h181v-250zM227.5 156.5q13.5 -13.5 13.5 -49.5v-44q0 -36 -13.5 -49.5t-48.5 -13.5h-42q-35 0 -48.5 13.5t-13.5 49.5v44q0 36 13.5 49.5t48.5 13.5h42q35 0 48.5 -13.5z" />
    <glyph glyph-name="quotedbl" unicode="&#x22;" horiz-adv-x="385" 
d="M160 465h-107l-10 225h128zM331 465h-106l-11 225h128z" />
    <glyph glyph-name="numbersign" unicode="#" horiz-adv-x="726" 
d="M569 414l-21 -118h110l-20 -107h-108l-33 -189h-135l33 189h-116l-33 -189h-135l33 189h-118l21 107h115l21 118h-115l21 107h113l29 169h135l-29 -169h116l29 169h135l-29 -169h112l-20 -107h-111zM434 414h-116l-21 -118h116z" />
    <glyph glyph-name="dollar" unicode="$" horiz-adv-x="587" 
d="M535.5 74q-21.5 -43 -71 -63t-136.5 -23l-10 -102h-135l11 105q-73 7 -150 26l11 134q198 -5 236 -5q48 0 64.5 8.5t16.5 33.5q0 24 -11.5 35t-43.5 23l-134 55q-79 33 -112 80.5t-33 124.5q0 76 23.5 117.5t74.5 59.5t141 20l11 88h135l-12 -93q73 -9 126 -26l-12 -123
q-21 0 -33 1q-110 2 -193 2q-46 0 -62 -8t-16 -35q0 -23 13.5 -35.5t52.5 -25.5l123 -49q81 -33 114 -81t33 -126q0 -75 -21.5 -118z" />
    <glyph glyph-name="percent" unicode="%" horiz-adv-x="915" 
d="M309.5 685q38.5 -19 55.5 -63.5t17 -123.5t-17 -123.5t-55.5 -63.5t-105.5 -19t-105 19t-54.5 63.5t-16.5 123.5t16.5 123.5t54.5 63.5t105 19t105.5 -19zM315 0h-112l395 690h112zM176.5 599.5q-8.5 -7.5 -12 -30t-3.5 -71.5t3.5 -71.5t12 -30t27.5 -7.5t28 7.5
t12.5 29.5t3.5 72q0 49 -3.5 71.5t-12.5 30t-28 7.5t-27.5 -7.5zM815.5 380q38.5 -19 55.5 -63.5t17 -123.5t-17 -123.5t-55.5 -63.5t-105.5 -19t-105 19t-54.5 63.5t-16.5 123.5t16.5 123.5t54.5 63.5t105 19t105.5 -19zM682 294q-9 -7 -12.5 -29.5t-2.5 -71.5
q-1 -49 2.5 -71.5t12.5 -30t28 -7.5t28 7.5t12.5 30t3.5 71.5t-3.5 71.5t-12.5 29.5t-28 7t-28 -7z" />
    <glyph glyph-name="ampersand" unicode="&#x26;" horiz-adv-x="763" 
d="M737 10q-25 -11 -67 -17t-73 -6q-48 0 -81 17.5t-50 49.5q-40 -36 -87.5 -51.5t-123.5 -15.5q-114 0 -163.5 43t-49.5 146q0 82 32 127t105 52v6q-61 6 -88 44t-27 115q0 80 26.5 119t82.5 51.5t164 12.5q100 0 165 -13l-22 -124q-17 0 -27 1q-66 2 -121 2q-33 0 -49 -6
t-23 -22.5t-7 -49.5q0 -46 14.5 -62t57.5 -16h132l11 97h154v-97h96v-118h-96v-123q0 -24 9 -33.5t31 -9.5h55zM246 163q5 -17 18.5 -24t41.5 -7q36 0 76 7.5t69 20.5v135h-137q-31 0 -46 -7t-21 -23.5t-6 -50.5t5 -51z" />
    <glyph glyph-name="quotesingle" unicode="'" horiz-adv-x="214" 
d="M160 465h-107l-10 225h128z" />
    <glyph glyph-name="parenleft" unicode="(" horiz-adv-x="369" 
d="M357 713q-79 -34 -114.5 -135t-35.5 -265q0 -161 35.5 -262.5t114.5 -138.5l-21 -77q-157 45 -231 160.5t-74 316.5q0 202 74 318t231 160z" />
    <glyph glyph-name="parenright" unicode=")" horiz-adv-x="369" 
d="M264 630q74 -116 74 -318q0 -201 -74 -316.5t-231 -160.5l-21 77q79 37 114.5 138.5t35.5 262.5q0 164 -35.5 265t-114.5 135l21 77q157 -44 231 -160z" />
    <glyph glyph-name="asterisk" unicode="*" horiz-adv-x="454" 
d="M262 520l110 -129l-78 -58l-67 120l-66 -120l-79 58l111 128l-15 173h98zM424 524l-121 -26l-22 26l-1 43l114 51zM174 567v-43l-22 -26l-122 26l30 93z" />
    <glyph glyph-name="plus" unicode="+" horiz-adv-x="530" 
d="M497 235h-165v-162h-133v162h-166v134h165v163h134v-163h165v-134z" />
    <glyph glyph-name="comma" unicode="," horiz-adv-x="249" 
d="M191.5 156.5q13.5 -13.5 14.5 -49.5v-64q0 -64 -14.5 -108.5t-45.5 -89.5l-70 22q15 52 17 133q-51 0 -53 56l2 51q2 36 15.5 49.5t47.5 13.5h38q35 0 48.5 -13.5z" />
    <glyph glyph-name="hyphen" unicode="-" horiz-adv-x="395" 
d="M344 201h-294v110h294v-110z" />
    <glyph glyph-name="period" unicode="." horiz-adv-x="253" 
d="M197.5 156.5q13.5 -13.5 13.5 -49.5v-44q0 -36 -13.5 -49.5t-49.5 -13.5h-43q-36 0 -49.5 13.5t-13.5 49.5v44q0 36 13.5 49.5t49.5 13.5h43q36 0 49.5 -13.5z" />
    <glyph glyph-name="slash" unicode="/" horiz-adv-x="571" 
d="M161 -76h-144l393 766h144z" />
    <glyph glyph-name="zero" unicode="0" horiz-adv-x="645" 
d="M489 670q61 -34 88 -111.5t27 -213.5t-27 -213.5t-88 -111.5t-167 -34t-166.5 34t-87.5 111.5t-27 213.5t27 213.5t87.5 111.5t166.5 34t167 -34zM262 544.5q-20 -16.5 -28 -61.5t-8 -138t8 -138t28 -61.5t59 -16.5q40 0 60.5 16.5t28.5 61.5t8 138t-8 138t-28.5 61.5
t-60.5 16.5q-39 0 -59 -16.5z" />
    <glyph glyph-name="one" unicode="1" horiz-adv-x="449" 
d="M368 0h-187v457q0 49 7 82l-160 -36l-22 119l175 68h187v-690z" />
    <glyph glyph-name="two" unicode="2" horiz-adv-x="590" 
d="M473.5 666q61.5 -36 61.5 -131q0 -40 -8.5 -70t-31.5 -64t-68 -81l-170 -167q36 9 97 9h199v-162h-514v98q0 24 6 41.5t20 33.5l155 160q123 125 123 179q0 21 -16 27t-60 6q-121 0 -216 -5l-7 139q70 14 126 18.5t121 4.5q121 0 182.5 -36z" />
    <glyph glyph-name="three" unicode="3" horiz-adv-x="572" 
d="M416 689q50 -15 73 -49.5t23 -96.5q0 -80 -23.5 -122t-86.5 -52v-4q72 -11 100 -52.5t28 -126.5q0 -72 -24.5 -115.5t-79 -64t-144.5 -20.5q-113 0 -248 19l6 135q104 -6 191 -6q46 0 70 6.5t34 24t10 52.5q0 46 -18 64t-72 17l-132 -1v120h132q50 0 65.5 16t15.5 52
q0 32 -7.5 47t-25.5 20t-57 5q-90 0 -192 -2l-6 130q114 19 231 19q87 0 137 -15z" />
    <glyph glyph-name="four" unicode="4" horiz-adv-x="649" 
d="M625 270v-107l-80 -18h-2v-145h-171v145h-276q-34 0 -56.5 22t-22.5 53q0 16 6 32l172 438h175l-151 -391q-3 -7 -3 -12q0 -8 6 -12.5t15 -4.5h135v177l30 108h141v-285h82z" />
    <glyph glyph-name="five" unicode="5" horiz-adv-x="560" 
d="M499 552h-283l-7 -96l115 -15q202 -23 202 -224q0 -105 -56.5 -167t-194.5 -62q-110 0 -245 20l17 141q106 -8 179 -8q45 0 69 7.5t34 24t12 46.5q1 32 -10.5 49t-37.5 25t-76 12l-107 13q-25 3 -40 20.5t-14 41.5l18 310h432z" />
    <glyph glyph-name="six" unicode="6" horiz-adv-x="599" 
d="M487 433.5q44 -21.5 62 -67.5t18 -125q0 -91 -21 -145t-76.5 -81t-159.5 -27q-106 0 -163 29.5t-81 104t-24 216.5q0 153 32.5 231.5t95.5 105.5t173 27q107 0 178 -20l-8 -116q-57 1 -170 1q-47 0 -71 -11.5t-35 -43.5t-14 -98q29 23 61.5 32t80.5 9q78 0 122 -21.5z
M365 135q17 11 21.5 33t4.5 69q0 38 -6.5 57t-23.5 26.5t-51 7.5q-24 0 -43.5 -6t-44.5 -20q1 -82 6.5 -117.5t23.5 -48t59 -12.5q37 0 54 11z" />
    <glyph glyph-name="seven" unicode="7" horiz-adv-x="535" 
d="M503.5 671.5q20.5 -18.5 20.5 -47.5q0 -14 -4 -26l-208 -598h-184l166 466q7 18 15 37.5t19 35.5h-300l-8 151h430q33 0 53.5 -18.5z" />
    <glyph glyph-name="eight" unicode="8" horiz-adv-x="630" 
d="M473.5 684q54.5 -19 75 -58t20.5 -108q0 -61 -26 -106.5t-79 -51.5v-4q68 -6 95 -55.5t27 -128.5q0 -70 -22.5 -109.5t-81 -57.5t-167.5 -18q-107 0 -165.5 18t-82 57.5t-23.5 109.5q0 79 27 128.5t96 55.5v4q-53 6 -79 51.5t-26 106.5q0 68 20.5 107.5t75 58.5t157.5 19
q104 0 158.5 -19zM262 570.5q-18 -6.5 -25 -24t-7 -52.5q0 -32 7.5 -48t25.5 -22t55 -6q36 0 53 6.5t23.5 22t6.5 47.5q0 35 -7 52.5t-24.5 24t-53.5 6.5t-54 -6.5zM255.5 290.5q-20.5 -7.5 -28 -26.5t-7.5 -56q0 -36 8 -54t28 -25t60 -7q39 0 58.5 7t27 25t7.5 54
q0 38 -7.5 56.5t-26.5 26t-58 7.5q-41 0 -61.5 -7.5z" />
    <glyph glyph-name="nine" unicode="9" horiz-adv-x="599" 
d="M457.5 672.5q55.5 -29.5 76.5 -102.5t21 -218q0 -155 -29 -232.5t-91.5 -104.5t-180.5 -27q-112 0 -192 20l9 117q61 -1 183 -1q46 0 70.5 13.5t35.5 46t14 93.5q-28 -23 -61 -32.5t-81 -9.5q-110 0 -154 56.5t-44 162.5q0 90 23.5 143.5t79 79t154.5 25.5
q111 0 166.5 -29.5zM216 397q7 -19 23.5 -27t49.5 -8q23 0 42 6t45 20q-1 82 -6 117.5t-22.5 48.5t-58.5 13q-35 0 -52 -11t-22.5 -34.5t-4.5 -68.5q-1 -37 6 -56z" />
    <glyph glyph-name="colon" unicode=":" horiz-adv-x="269" 
d="M198.5 443.5q13.5 -13.5 13.5 -49.5v-44q0 -36 -13.5 -49.5t-49.5 -13.5h-43q-36 0 -49.5 13.5t-13.5 49.5v44q0 36 13.5 49.5t49.5 13.5h43q36 0 49.5 -13.5zM198.5 157.5q13.5 -13.5 13.5 -49.5v-44q0 -36 -13.5 -49.5t-49.5 -13.5h-43q-36 0 -49.5 13.5t-13.5 49.5v44
q0 36 13.5 49.5t49.5 13.5h43q36 0 49.5 -13.5z" />
    <glyph glyph-name="semicolon" unicode=";" horiz-adv-x="269" 
d="M206.5 443.5q13.5 -13.5 13.5 -49.5v-44q0 -36 -13.5 -49.5t-49.5 -13.5h-43q-36 0 -49.5 13.5t-13.5 49.5v44q0 36 13.5 49.5t49.5 13.5h43q36 0 49.5 -13.5zM200.5 156.5q13.5 -13.5 14.5 -49.5v-64q0 -64 -14.5 -108.5t-45.5 -89.5l-70 22q15 52 17 133q-51 0 -53 56
l2 51q2 36 15.5 49.5t47.5 13.5h38q35 0 48.5 -13.5z" />
    <glyph glyph-name="less" unicode="&#x3c;" horiz-adv-x="511" 
d="M461 392l-276 -90l276 -89v-142l-429 161v140l429 161v-141z" />
    <glyph glyph-name="equal" unicode="=" horiz-adv-x="575" 
d="M523 343h-471v128h471v-128zM523 129h-471v127h471v-127z" />
    <glyph glyph-name="greater" unicode="&#x3e;" horiz-adv-x="509" 
d="M476 372v-140l-426 -161v142l273 89l-273 90v141z" />
    <glyph glyph-name="question" unicode="?" horiz-adv-x="527" 
d="M447.5 674q54.5 -38 54.5 -117q0 -34 -11 -61t-27 -47t-46 -51q-43 -44 -67.5 -82t-29.5 -93h-144q-3 51 10 92.5t31.5 70.5t47.5 64q20 24 30.5 39.5t12.5 30.5l1 9q0 20 -17.5 29t-55.5 9l-165 -1q-12 -1 -40 -1l-5 121q21 4 28 5q56 12 100 16.5t126 4.5
q112 0 166.5 -38zM318.5 156.5q13.5 -13.5 13.5 -49.5v-44q0 -36 -13.5 -49.5t-49.5 -13.5h-41q-36 0 -49.5 13.5t-13.5 49.5v44q0 36 13.5 49.5t49.5 13.5h41q36 0 49.5 -13.5z" />
    <glyph glyph-name="at" unicode="@" horiz-adv-x="781" 
d="M685.5 569q46.5 -41 46.5 -138v-294h-133l-15 65q-27 -32 -69 -54.5t-95 -22.5q-65 0 -107 33t-42 94v46q0 53 36.5 83.5t101.5 30.5h156v19q0 29 -12.5 40t-45.5 11h-120q-87 -1 -119 -11t-43.5 -51.5t-11.5 -150.5q0 -108 12.5 -149.5t47.5 -52.5t128 -11h34h297v-115
q-191 -15 -307 -15q-177 0 -253 24t-100.5 92.5t-24.5 226.5t22 226t90 91.5t228 23.5h158q94 0 140.5 -41zM472 327q-40 -3 -40 -34v-15q0 -36 42 -36q22 0 47 8t44 23v58z" />
    <glyph glyph-name="A" unicode="A" horiz-adv-x="668" 
d="M440 164h-212l-41 -164h-192l189 641q5 22 22.5 35.5t40.5 13.5h174q23 0 40.5 -13.5t23.5 -35.5l188 -641h-192zM406 300l-45 177q-11 52 -13 72h-27q-7 -38 -14 -72l-45 -177h144z" />
    <glyph glyph-name="B" unicode="B" horiz-adv-x="650" 
d="M582 303q34 -45 34 -131q0 -70 -25 -109t-77.5 -55t-140.5 -16q-115 0 -181 1.5t-132 6.5v690q59 5 119 6.5t162 1.5q96 0 150 -15.5t78 -54.5t24 -110q0 -75 -29 -113t-94 -44v-6q78 -7 112 -52zM397 551.5q-17 14.5 -66 14.5h-87v-151h92q46 0 62 15.5t16 61.5
q0 45 -17 59.5zM394.5 131q18.5 7 26 25t7.5 53q0 38 -7.5 57t-26.5 26.5t-56 7.5h-94v-176h96q36 0 54.5 7z" />
    <glyph glyph-name="C" unicode="C" horiz-adv-x="596" 
d="M462 696.5q46 -5.5 97 -19.5l-14 -138q-102 3 -204 3q-42 0 -64.5 -17t-31.5 -59t-9 -121t9 -121t31.5 -59t64.5 -17q79 0 126 1.5t92 6.5l15 -137q-50 -17 -102.5 -24t-130.5 -7q-112 0 -177.5 34.5t-95 112t-29.5 210.5t29.5 210.5t95 112t177.5 34.5q75 0 121 -5.5z
" />
    <glyph glyph-name="D" unicode="D" horiz-adv-x="691" 
d="M526.5 668.5q66.5 -31.5 96 -108t29.5 -215.5t-29.5 -215.5t-96 -108t-183.5 -31.5q-145 0 -283 10v690q168 10 283 10q117 0 183.5 -31.5zM411.5 149.5q23.5 18.5 33 63.5t9.5 132t-9.5 132.5t-33 64t-68.5 18.5h-95v-428q29 -1 95 -1q45 0 68.5 18.5z" />
    <glyph glyph-name="E" unicode="E" horiz-adv-x="587" 
d="M545 143l9 -135q-65 -7 -144.5 -9t-197.5 -2q-71 0 -114 40.5t-43 107.5v400q0 67 43.5 107.5t113.5 40.5q118 0 197.5 -2t144.5 -9l-9 -135h-259q-43 0 -43 -43v-84h265v-129h-265v-105q0 -43 43 -43h259z" />
    <glyph glyph-name="F" unicode="F" horiz-adv-x="565" 
d="M246 504v-97h255v-130h-255v-277h-188v543q0 68 44 109t115 41q114 0 191 -2t139 -10l-9 -134h-244q-48 0 -48 -43z" />
    <glyph glyph-name="G" unicode="G" horiz-adv-x="658" 
d="M613 397v-397h-138l-17 70q-30 -34 -80 -59t-114 -25q-79 0 -128.5 36.5t-73 115.5t-23.5 208q0 135 31 212.5t99.5 111.5t187.5 34q71 0 124 -6.5t106 -20.5l-15 -136q-108 3 -213 3q-50 0 -75.5 -15.5t-36.5 -57.5t-11 -127q0 -79 9 -121t30.5 -59t60.5 -17q48 0 97 17
v233h180z" />
    <glyph glyph-name="H" unicode="H" horiz-adv-x="702" 
d="M642 690v-690h-188v298h-206v-298h-187v690h187v-255h206v255h188z" />
    <glyph glyph-name="I" unicode="I" horiz-adv-x="308" 
d="M247 0h-186v690h186v-690z" />
    <glyph glyph-name="J" unicode="J" horiz-adv-x="388" 
d="M330 135q0 -71 -45 -109.5t-125 -38.5q-34 0 -79 6.5t-66 16.5l20 121h47q32 0 47 10.5t15 32.5v516h186v-555z" />
    <glyph glyph-name="K" unicode="K" horiz-adv-x="656" 
d="M288 295h-48q8 -35 8 -64v-231h-187v690h187v-183q0 -41 -8 -86h47l158 269h202l-167 -272q-21 -37 -56 -59v-3q16 -9 34.5 -27.5t29.5 -37.5l170 -291h-208z" />
    <glyph glyph-name="L" unicode="L" horiz-adv-x="546" 
d="M246 193q0 -43 47 -43h234l9 -141q-65 -8 -137 -10t-180 -2q-77 0 -119 41.5t-42 110.5v541h188v-497z" />
    <glyph glyph-name="M" unicode="M" horiz-adv-x="933" 
d="M861 623l25 -623h-172l-22 547h-16l-84 -386q-11 -58 -73 -58h-106q-62 0 -74 58l-85 386h-16l-18 -547h-172l24 623q3 67 68 67h168q61 0 73 -59l65 -306q6 -31 14 -100h11l5 36q5 40 10 65l63 305q12 59 73 59h171q65 0 68 -67z" />
    <glyph glyph-name="N" unicode="N" horiz-adv-x="731" 
d="M671 66q0 -66 -65 -66h-89q-27 0 -42 12.5t-31 42.5l-164 296q-27 51 -45 113h-8q8 -62 8 -118v-346h-175v624q0 32 17 49t49 17h88q27 0 41.5 -12.5t31.5 -42.5l158 -285q25 -45 52 -115h8q-7 72 -7 121l-1 334h174v-624z" />
    <glyph glyph-name="O" unicode="O" 
d="M532 672.5q66 -31.5 96 -109t30 -218.5t-30 -218.5t-96 -109t-184 -31.5t-184 31.5t-95.5 109t-29.5 218.5t29.5 218.5t95.5 109t184 31.5t184 -31.5zM279 541.5q-24 -18.5 -33.5 -64t-9.5 -132.5t9.5 -132.5t33.5 -64t69 -18.5t69 18.5t33.5 64t9.5 132.5t-9.5 132.5
t-33.5 64t-69 18.5t-69 -18.5z" />
    <glyph glyph-name="P" unicode="P" horiz-adv-x="632" 
d="M502 679.5q58 -20.5 82.5 -69.5t24.5 -141q0 -91 -23.5 -140t-76 -69.5t-145.5 -20.5q-51 0 -116 7v-246h-188v690q63 6 118 8t160 2q106 0 164 -20.5zM387.5 384q18.5 8 26 27.5t7.5 57.5t-7.5 58t-26 28t-53.5 8h-86v-187h86q35 0 53.5 8z" />
    <glyph glyph-name="Q" unicode="Q" 
d="M532.5 672.5q66.5 -31.5 96 -109t29.5 -218.5t-29.5 -218.5t-96 -109t-184.5 -31.5q-117 0 -183 31.5t-96 109t-30 218.5t30 218.5t96 109t183 31.5q118 0 184.5 -31.5zM279.5 541.5q-23.5 -18.5 -33.5 -64t-10 -132.5t10 -132.5t33.5 -64t68.5 -18.5t69 18.5t33.5 64
t9.5 132.5t-9.5 132.5t-33.5 64t-69 18.5t-68.5 -18.5zM435.5 -71q74.5 -16 173.5 -30l-48 -158q-177 48 -309 136l41 93q68 -25 142.5 -41z" />
    <glyph glyph-name="R" unicode="R" horiz-adv-x="661" 
d="M641 0h-197l-49 208q-7 30 -21.5 41t-43.5 11h-85v-260h-185v690q63 6 118 8t161 2q100 0 159 -19t87.5 -64t28.5 -125q0 -72 -31.5 -115.5t-104.5 -51.5v-6q87 -14 106 -106zM390 404q19 7 27 24.5t8 51.5t-8 51.5t-27 24.5t-55 7h-90v-166h90q36 0 55 7z" />
    <glyph glyph-name="S" unicode="S" horiz-adv-x="597" 
d="M545 672l-12 -123q-23 0 -36 1q-114 2 -194 2q-48 0 -64.5 -8t-16.5 -35q0 -23 14 -35.5t52 -25.5l127 -49q83 -33 117 -81t34 -126q0 -79 -25.5 -123t-83 -63t-161.5 -19q-132 0 -253 30l11 133l36 -1q204 -4 205 -4q50 0 66.5 8.5t16.5 34.5q0 24 -11.5 35t-43.5 23
l-138 55q-81 33 -115 80.5t-34 124.5q0 79 26.5 121.5t83.5 59t159 16.5q145 0 240 -31z" />
    <glyph glyph-name="T" unicode="T" horiz-adv-x="613" 
d="M599 545h-199v-545h-188v545h-198v145h585v-145z" />
    <glyph glyph-name="U" unicode="U" horiz-adv-x="694" 
d="M639 280q0 -109 -27.5 -172.5t-88.5 -92.5t-166 -29q-112 0 -177.5 29t-95 92.5t-29.5 172.5v410h188v-410q0 -60 9.5 -92t31.5 -45t63 -13t63 13t31.5 45t9.5 92v410h188v-410z" />
    <glyph glyph-name="V" unicode="V" horiz-adv-x="655" 
d="M476 51q-5 -23 -23 -37t-42 -14h-167q-24 0 -42 14t-23 37l-177 639h193l106 -471q8 -38 14 -78h25q2 20 14 78l105 471h194z" />
    <glyph glyph-name="W" unicode="W" horiz-adv-x="989" 
d="M870 51q-4 -23 -22 -37t-43 -14h-167q-25 0 -43.5 14t-21.5 37l-60 413q-6 46 -9 95h-18q-6 -68 -10 -96l-59 -412q-3 -23 -21.5 -37t-43.5 -14h-168q-24 0 -42.5 14t-22.5 37l-96 639h187l50 -448q5 -50 6 -109h18l16 109l58 392q3 25 21 40.5t44 15.5h144
q25 0 43 -15.5t21 -40.5l59 -393l4 -27q7 -50 11 -81h18q1 44 7 107l49 450h188z" />
    <glyph glyph-name="X" unicode="X" horiz-adv-x="661" 
d="M332 300h-3l-138 -300h-189l175 353l-161 337h187l125 -280h5l124 280h188l-161 -337l175 -353h-189z" />
    <glyph glyph-name="Y" unicode="Y" horiz-adv-x="633" 
d="M411 221v-221h-188v219l-228 471h194l99 -233q13 -30 23 -93h12q1 6 7 37.5t16 55.5l99 233h193z" />
    <glyph glyph-name="Z" unicode="Z" horiz-adv-x="595" 
d="M562 136v-136h-528v136l312 418h-303v136h510v-136l-311 -418h320z" />
    <glyph glyph-name="bracketleft" unicode="[" horiz-adv-x="355" 
d="M327 656h-69q-9 0 -14.5 -5.5t-5.5 -14.5v-669q0 -9 5.5 -14.5t14.5 -5.5h69v-112h-169q-43 0 -66.5 20.5t-23.5 69.5v753q0 40 25 65t65 25h169v-112z" />
    <glyph glyph-name="backslash" unicode="\" horiz-adv-x="571" 
d="M554 -76h-144l-393 766h144z" />
    <glyph glyph-name="bracketright" unicode="]" horiz-adv-x="355" 
d="M262 743q25 -25 25 -65v-753q0 -40 -25 -65t-65 -25h-169v112h69q9 0 15 5.5t6 14.5v669q0 9 -6 14.5t-15 5.5h-69v112h169q40 0 65 -25z" />
    <glyph glyph-name="asciicircum" unicode="^" horiz-adv-x="481" 
d="M451 409l-70 -38l-135 161h-8l-138 -161l-70 38l146 232h132z" />
    <glyph glyph-name="underscore" unicode="_" horiz-adv-x="448" 
d="M448 -111h-448v111h448v-111z" />
    <glyph glyph-name="grave" unicode="`" horiz-adv-x="374" 
d="M330 607l-51 -75l-241 105l73 120z" />
    <glyph glyph-name="a" unicode="a" horiz-adv-x="580" 
d="M482 467.5q51 -43.5 51 -150.5v-317h-144l-17 73q-30 -37 -74 -61.5t-103 -24.5q-73 0 -120 37.5t-47 104.5v50q0 59 42.5 93t116.5 34h165v12q-1 32 -15.5 44.5t-53.5 12.5q-97 0 -213 -7l-16 118q55 10 135.5 17.5t136.5 7.5q105 0 156 -43.5zM255 115q45 0 97 35v61
h-104q-42 -1 -42 -39v-17q0 -40 49 -40z" />
    <glyph glyph-name="b" unicode="b" horiz-adv-x="606" 
d="M495.5 485q40.5 -26 59 -82t18.5 -149q0 -124 -54.5 -195t-202.5 -71q-64 0 -145 10.5t-121 29.5v672h182l1 -147q2 -65 -14 -118q35 34 78.5 55t89.5 21q68 0 108.5 -26zM352.5 125.5q17.5 10.5 25.5 40t8 87.5q0 49 -6 73.5t-21.5 34.5t-45.5 10q-22 0 -39.5 -6
t-42.5 -19l1 -225q33 -6 70 -6q33 0 50.5 10.5z" />
    <glyph glyph-name="c" unicode="c" horiz-adv-x="518" 
d="M395 503q54 -8 93 -26l-18 -113l-147 1q-39 0 -60.5 -10t-30.5 -34.5t-9 -71.5t9 -71.5t30.5 -34.5t60.5 -10q87 0 156 8l17 -115q-77 -38 -206 -38q-96 0 -152 25.5t-81 82t-25 153.5t25.5 154t81.5 82.5t153 25.5q49 0 103 -8z" />
    <glyph glyph-name="d" unicode="d" horiz-adv-x="608" 
d="M557 700v-700h-144l-15 77q-28 -41 -74 -65t-112 -24q-93 0 -135.5 67.5t-42.5 198.5q0 98 21 154.5t62.5 79.5t106.5 23q97 0 155 -44q-4 68 -4 107v126h182zM333 141q18 6 42 19v210q-26 8 -43 12t-40 4q-28 0 -42.5 -9t-21.5 -37t-7 -85q0 -51 7 -76.5t21 -34.5t39 -9
q27 0 45 6z" />
    <glyph glyph-name="e" unicode="e" horiz-adv-x="576" 
d="M519 141l16 -111q-83 -42 -231 -42q-147 0 -209.5 62t-62.5 196q0 99 27 156.5t85 83t157 25.5q132 0 190 -44t58 -135q0 -68 -40 -99.5t-134 -31.5h-149q6 -41 27.5 -56.5t70.5 -15.5q91 0 195 12zM255 380.5q-16 -7.5 -23 -27t-9 -58.5h101q31 0 40.5 9.5t9.5 34.5
q0 29 -16 39t-58 10q-29 0 -45 -7.5z" />
    <glyph glyph-name="f" unicode="f" horiz-adv-x="417" 
d="M293 584.5q-12 -12.5 -12 -45.5v-42h126v-114h-126v-383h-183v383h-85v109l85 5v67q0 158 174 158q37 0 89 -3t83 -9l-17 -113h-90q-32 0 -44 -12.5z" />
    <glyph glyph-name="g" unicode="g" horiz-adv-x="593" 
d="M576 425l-57 -8q9 -28 9 -64q0 -58 -23.5 -92.5t-76.5 -50t-145 -15.5q-48 0 -80 4q-6 -9 -6 -20q0 -12 8.5 -21t26.5 -11l181 -16q81 -7 116.5 -43.5t35.5 -108.5q0 -68 -27.5 -103t-85.5 -48.5t-163 -13.5q-111 0 -170 14t-81.5 44.5t-22.5 86.5q0 37 17.5 61.5
t59.5 44.5q-26 26 -26 66q0 28 13 51.5t36 35.5q-42 18 -60.5 50t-18.5 84q0 58 24 92.5t78 50.5t146 16q88 0 138 -14h163zM343 311q16 11 16 42t-16 41.5t-60 10.5q-45 0 -61.5 -10.5t-16.5 -41.5t16.5 -42t61.5 -11q44 0 60 11zM378 8.5q-16 6.5 -63 10.5l-105 9
q-13 -10 -18.5 -19t-5.5 -24q0 -19 8.5 -28t29 -12t63.5 -3q45 0 67 3t31 11.5t9 24.5q0 21 -16 27.5z" />
    <glyph glyph-name="h" unicode="h" horiz-adv-x="611" 
d="M526.5 475.5q36.5 -35.5 36.5 -103.5v-372h-182v315q0 24 -9 33t-32 9q-24 0 -48.5 -6t-58.5 -20v-331h-182v700h182l1 -159q0 -57 -10 -107q48 38 98 57.5t97 19.5q71 0 107.5 -35.5z" />
    <glyph glyph-name="i" unicode="i" horiz-adv-x="291" 
d="M237 667v-52q0 -53 -52 -53h-79q-53 0 -53 53v52q0 54 53 54h79q52 0 52 -54zM236 0h-181v497h181v-497z" />
    <glyph glyph-name="j" unicode="j" horiz-adv-x="292" 
d="M236 675v-53q0 -53 -52 -53h-79q-52 0 -52 53v53q0 53 52 53h79q52 0 52 -53zM237 42q0 -75 -39.5 -139.5t-106.5 -95.5l-100 80q36 37 50.5 73.5t14.5 81.5v455h181v-455z" />
    <glyph glyph-name="k" unicode="k" horiz-adv-x="585" 
d="M262 222h-36q7 -45 7 -74v-148h-182v700h182v-278q0 -51 -7 -94h37l107 169h200l-115 -167q-10 -16 -25 -31.5t-27 -22.5v-4q10 -5 26 -23.5t26 -36.5l133 -212h-201z" />
    <glyph glyph-name="l" unicode="l" horiz-adv-x="344" 
d="M233 173q0 -22 13 -32.5t40 -10.5h36l21 -120q-19 -11 -60 -17t-74 -6q-73 0 -115 36.5t-42 101.5v575h181v-527z" />
    <glyph glyph-name="m" unicode="m" horiz-adv-x="882" 
d="M798.5 475.5q35.5 -35.5 35.5 -103.5v-372h-181v315q0 23 -9 32.5t-32 9.5q-17 0 -34.5 -5.5t-47.5 -20.5v-331h-175v315q0 23 -10 32.5t-32 9.5q-18 0 -34.5 -5t-46.5 -19v-333h-181v497h143l15 -73q46 45 88.5 66t94.5 21q101 0 128 -77q42 40 83 58.5t90 18.5
q70 0 105.5 -35.5z" />
    <glyph glyph-name="n" unicode="n" horiz-adv-x="611" 
d="M526.5 475.5q36.5 -35.5 36.5 -103.5v-372h-182v315q0 24 -9 33t-32 9t-47.5 -6t-59.5 -20v-331h-182v497h145l15 -73q51 43 104 65t104 22q71 0 107.5 -35.5z" />
    <glyph glyph-name="o" unicode="o" horiz-adv-x="600" 
d="M457 485q58 -26 84.5 -83t26.5 -154t-26 -153t-84.5 -81.5t-157.5 -25.5t-157 25.5t-84.5 82t-26.5 152.5q0 97 26.5 154t84.5 83t157 26t157 -26zM252 372q-16 -11 -22.5 -39t-6.5 -85q0 -56 6.5 -84t22.5 -38.5t48 -10.5t48 10.5t22.5 38.5t6.5 84t-6.5 84.5
t-22.5 39.5t-48 11t-48 -11z" />
    <glyph glyph-name="p" unicode="p" horiz-adv-x="611" 
d="M535 441.5q42 -67.5 42 -198.5q0 -99 -21 -154.5t-62 -78.5t-106 -23q-100 0 -159 45q5 -62 4 -108v-109h-182v682h146l15 -70q27 35 79.5 58.5t109.5 23.5q92 0 134 -67.5zM361.5 120.5q14.5 9.5 21.5 37.5t7 84t-6.5 84t-20 38t-38.5 10q-26 0 -45.5 -7.5t-46.5 -23.5
v-215q27 -9 44.5 -13t41.5 -4q28 0 42.5 9.5z" />
    <glyph glyph-name="q" unicode="q" horiz-adv-x="606" 
d="M435 500.5q81 -10.5 121 -30.5v-655h-181l-1 137q0 68 14 118q-35 -35 -79.5 -58.5t-92.5 -23.5q-97 0 -140 64t-43 193q0 86 21 143.5t77 90t159 32.5q64 0 145 -10.5zM226 178q6 -23 21 -33t43 -10q23 0 41.5 5.5t43.5 16.5v220q-42 7 -73 7q-33 0 -50 -10.5
t-24.5 -40.5t-7.5 -89q0 -43 6 -66z" />
    <glyph glyph-name="r" unicode="r" horiz-adv-x="440" 
d="M434 511l-16 -167h-48q-50 0 -137 -21v-323h-182v497h142l16 -73q98 87 198 87h27z" />
    <glyph glyph-name="s" unicode="s" horiz-adv-x="541" 
d="M381 504.5q69 -5.5 114 -14.5l-11 -110q-72 1 -211 1q-32 0 -44.5 -1t-17.5 -5.5t-5 -14.5q0 -12 8 -16.5t33 -11.5l20 -5l120 -32q68 -19 98 -51.5t30 -95.5q0 -62 -23.5 -96.5t-74 -48.5t-137.5 -14q-127 0 -242 19l11 110l175 -1q52 0 75 2t31.5 7t8.5 17
q0 11 -8 15.5t-34 12.5l-25 7l-116 32q-73 21 -99.5 57.5t-26.5 99.5q0 74 50.5 109t171.5 35q60 -1 129 -6.5z" />
    <glyph glyph-name="t" unicode="t" horiz-adv-x="426" 
d="M282 383v-210q0 -24 10.5 -33.5t36.5 -9.5h58l20 -120q-27 -11 -73.5 -17t-82.5 -6q-71 0 -111 37t-40 104l-1 255h-85v109l85 4v135h183v-134h128v-114h-128z" />
    <glyph glyph-name="u" unicode="u" horiz-adv-x="604" 
d="M553 497v-497h-144l-15 71q-51 -43 -100 -64t-102 -21q-71 0 -107.5 35.5t-36.5 103.5v372h182v-315q0 -23 10 -33t34 -10q21 0 42.5 5.5t53.5 19.5v333h183z" />
    <glyph glyph-name="v" unicode="v" horiz-adv-x="584" 
d="M428 43q-7 -20 -22 -31.5t-36 -11.5h-156q-21 0 -36.5 11.5t-21.5 31.5l-154 454h192l74 -291q6 -28 17 -91h13l18 91l74 291h192z" />
    <glyph glyph-name="w" unicode="w" horiz-adv-x="863" 
d="M741 47q-5 -22 -21.5 -34.5t-39.5 -12.5h-133q-24 0 -42 15t-21 39l-38 251q-4 25 -7 61q0 7 -2 25h-12q-5 -49 -10 -86l-38 -251q-3 -24 -21 -39t-42 -15h-131q-23 0 -39.5 12.5t-21.5 34.5l-110 450h181l50 -299q8 -59 10 -85h12q3 24 11 85l38 246q3 23 20.5 38
t41.5 15h110q24 0 41.5 -15t20.5 -39l37 -245q1 -11 5 -31l7 -54h12q6 56 11 85l49 299h182z" />
    <glyph glyph-name="x" unicode="x" horiz-adv-x="587" 
d="M402 0l-108 200l-109 -200h-182l148 254l-137 243h182l98 -187l97 187h182l-137 -243l148 -254h-182z" />
    <glyph glyph-name="y" unicode="y" horiz-adv-x="584" 
d="M581 497l-166 -492q-28 -86 -89 -147.5t-161 -61.5q-23 0 -55 5l-13 101q59 14 94 36.5t54 61.5h-32q-21 0 -36.5 11.5t-21.5 31.5l-153 454h193l74 -296q6 -30 14 -85h11q7 26 20 85l74 296h193z" />
    <glyph glyph-name="z" unicode="z" horiz-adv-x="534" 
d="M500 122v-122h-466v122l250 253h-245v122h455v-122l-250 -253h256z" />
    <glyph glyph-name="braceleft" unicode="{" horiz-adv-x="350" 
d="M318 657q-42 0 -55.5 -8.5t-13.5 -40.5v-137q1 -67 -22.5 -100.5t-87.5 -42.5q64 -17 88.5 -50t25.5 -89v-197q0 -21 6 -31t19.5 -12.5t43.5 -2.5v-111q-30 -5 -67 -5q-89 0 -132 39.5t-43 108.5v230q0 22 -5 32.5t-14 15.5t-33 15v114q24 8 32 12.5t12 16t4 38.5v173
q0 69 43 108.5t132 39.5q37 0 67 -5v-111z" />
    <glyph glyph-name="bar" unicode="|" horiz-adv-x="269" 
d="M198 -169h-127v950h127v-950z" />
    <glyph glyph-name="braceright" unicode="}" horiz-adv-x="350" 
d="M100 773q89 0 132 -39.5t43 -108.5v-173q0 -27 3.5 -38.5t12 -16t32.5 -12.5v-114q-24 -10 -33 -15t-14 -15.5t-5 -32.5v-230q0 -69 -43 -108.5t-132 -39.5q-37 0 -67 5v111q30 0 43.5 2.5t19.5 12.5t6 31v197q1 56 25.5 89t88.5 50q-64 9 -88 42.5t-22 100.5v137
q0 32 -13.5 40.5t-55.5 8.5v111q30 5 67 5z" />
    <glyph glyph-name="asciitilde" unicode="~" horiz-adv-x="506" 
d="M188 362.5q33 -7.5 91 -22.5q45 -13 64 -16q5 -1 13 -1q13 0 16.5 9t3.5 33h78q4 -23 4 -47q0 -54 -23 -82.5t-60 -28.5q-23 0 -55.5 7.5t-91.5 22.5q-13 3 -34.5 9t-31.5 7q-4 1 -12 1q-13 0 -16 -8.5t-3 -34.5h-78q-4 24 -4 48q0 55 24 83t61 28q21 0 54 -7.5z" />
    <glyph glyph-name="u00A0" unicode="&#xa0;" horiz-adv-x="213" 
 />
    <glyph glyph-name="exclamdown" unicode="&#xa1;" horiz-adv-x="299" 
d="M219.5 500.5q13.5 -13.5 13.5 -49.5v-44q0 -36 -13.5 -49.5t-48.5 -13.5h-42q-35 0 -48.5 13.5t-13.5 49.5v44q0 36 13.5 49.5t48.5 13.5h42q35 0 48.5 -13.5zM240 69v-249h-181v249l19 222h143z" />
    <glyph glyph-name="cent" unicode="&#xa2;" horiz-adv-x="532" 
d="M335 87l-10 -87h-135l11 93q-92 16 -131 76t-39 179q0 92 23 147.5t74 82.5t137 30l9 82h136l-11 -89q57 -10 92 -26l-19 -107q-59 2 -148 2q-45 0 -69 -10t-34 -36t-10 -76q0 -51 10 -77t33.5 -36.5t69.5 -10.5q88 0 158 8l16 -108q-63 -30 -163 -37z" />
    <glyph glyph-name="sterling" unicode="&#xa3;" horiz-adv-x="595" 
d="M561 147v-147h-517v147q43 20 60 50t17 72q0 17 -1 26l-2 23h-76l-2 91h71l-8 103q-1 9 -1 27q0 64 23.5 100t70 50t122.5 14q97 0 221 -10l-9 -137q-39 1 -182 1q-36 0 -50 -12t-11 -41l9 -95h178l-4 -91h-165l2 -23q1 -7 1 -21q0 -36 -9.5 -60t-24.5 -39.5t-41 -36.5
q18 6 36 7.5t46 1.5h246z" />
    <glyph glyph-name="currency" unicode="&#xa4;" horiz-adv-x="579" 
d="M467 248l71 -70l-75 -74l-70 70q-48 -28 -104 -28q-54 0 -103 27l-68 -68l-80 80l70 69q-25 45 -25 98q0 56 28 104l-68 68l75 74l68 -68q47 28 103 28t106 -29l69 69l74 -74l-70 -70q27 -48 27 -102q0 -56 -28 -104zM360.5 279.5q30.5 30.5 30.5 73.5t-30.5 73.5
t-71.5 30.5t-71.5 -30.5t-30.5 -73.5t30.5 -73.5t71.5 -30.5t71.5 30.5z" />
    <glyph glyph-name="yen" unicode="&#xa5;" horiz-adv-x="686" 
d="M507 370h84v-103h-493l-1 103h82l-158 320h193l100 -221q11 -23 16.5 -53.5t7.5 -38.5h12q2 10 8 40.5t15 52.5l99 220h193zM97 237h494v-102h-153l-1 -135h-187v135h-152z" />
    <glyph glyph-name="brokenbar" unicode="&#xa6;" horiz-adv-x="271" 
d="M199 381h-127v400h127v-400zM199 -169h-127v400h127v-400z" />
    <glyph glyph-name="section" unicode="&#xa7;" horiz-adv-x="559" 
d="M509 692l-13 -126q-31 2 -86 2h-77q-55 0 -75.5 -5t-22.5 -23q-3 -18 9 -30t38 -25l125 -62q59 -29 85.5 -65t26.5 -83q0 -40 -21 -103h-126q1 39 -4.5 59.5t-22 35t-52.5 34.5l-151 81q-31 17 -51 33t-35.5 48t-15.5 83q0 62 26 96.5t77.5 48t133.5 13.5q138 -3 232 -12
zM192.5 284q6.5 -21 22.5 -35.5t52 -34.5l151 -81q31 -17 51 -33t35.5 -48t15.5 -83q0 -62 -26.5 -96.5t-77.5 -48t-133 -13.5q-47 0 -115 3t-117 9l13 126q52 -3 163 -3q54 0 75 5.5t23 24.5q3 18 -9 29.5t-38 23.5l-125 63q-59 29 -85.5 64.5t-26.5 82.5q0 41 21 104h125
q-1 -38 5.5 -59z" />
    <glyph glyph-name="dieresis" unicode="&#xa8;" horiz-adv-x="430" 
d="M188 678v-60q0 -37 -36 -37h-59q-36 0 -36 37v60q0 36 36 36h59q36 0 36 -36zM374 678v-60q0 -37 -36 -37h-59q-37 0 -37 37v60q0 36 37 36h59q36 0 36 -36z" />
    <glyph glyph-name="copyright" unicode="&#xa9;" horiz-adv-x="795" 
d="M581 657.5q83 -46.5 131 -128t48 -184.5t-48 -184.5t-131 -128t-184 -46.5t-184 46.5t-131 128.5t-48 184t48 184t131 128.5t184 46.5t184 -46.5zM260.5 582.5q-62.5 -35.5 -99.5 -98t-37 -139.5t37 -139.5t99.5 -98t136.5 -35.5q75 0 137.5 35.5t99.5 98t37 139.5
t-37 139.5t-99.5 98t-137.5 35.5q-74 0 -136.5 -35.5zM476.5 543.5q28.5 -3.5 63.5 -11.5l-11 -96l-128 1q-24 0 -35.5 -7.5t-16 -26t-4.5 -57.5t4.5 -57.5t16 -25.5t35.5 -7q96 0 138 3l10 -95q-32 -10 -65 -14.5t-82 -4.5q-73 0 -115 19.5t-61 63t-19 118.5t19 118.5
t61.5 63t114.5 19.5q46 0 74.5 -3.5z" />
    <glyph glyph-name="ordfeminine" unicode="&#xaa;" horiz-adv-x="435" 
d="M352 589.5q35 -29.5 35 -103.5v-210h-105l-12 49q-46 -58 -120 -58q-49 0 -80.5 24.5t-31.5 69.5v34q0 40 29 63t79 23h110v6q0 18 -9.5 26t-31.5 8q-74 0 -147 -4l-12 86q38 6 94 11t95 5q72 0 107 -29.5zM197 359q27 0 59 20v41l-61 -6q-30 -3 -30 -23v-9q0 -23 32 -23
z" />
    <glyph glyph-name="guillemotleft" unicode="&#xab;" horiz-adv-x="537" 
d="M503 407l-94 -156l95 -162l-96 -60l-158 203v38l158 198zM280 407l-94 -156l95 -162l-96 -60l-158 203v38l158 198z" />
    <glyph glyph-name="logicalnot" unicode="&#xac;" horiz-adv-x="576" 
d="M521 369v-232l-135 -1v107h-337v126h472z" />
    <glyph glyph-name="u00AD" unicode="&#xad;" horiz-adv-x="395" 
d="M344 201h-294v110h294v-110z" />
    <glyph glyph-name="registered" unicode="&#xae;" horiz-adv-x="507" 
d="M365.5 673q50.5 -30 80.5 -80.5t30 -111.5t-30 -112t-80.5 -81t-111.5 -30t-112 30t-81 81t-30 112t30 111.5t81 80.5t112 30t111.5 -30zM338.5 332q39.5 23 62.5 62.5t23 86.5t-23 86.5t-62.5 62.5t-84.5 23q-46 0 -85.5 -23t-62.5 -62.5t-23 -86.5t23 -86.5t62.5 -62.5
t85.5 -23q45 0 84.5 23zM352 443l20 -67h-79l-15 64q-4 9 -8.5 12t-14.5 3h-26v-79h-74v219q32 3 104 3q56 0 80 -14.5t24 -51.5q0 -47 -51 -52v-2q32 -2 40 -35zM281 506.5q6 4.5 6 17.5t-6 17t-24 4h-28v-44h28q18 1 24 5.5z" />
    <glyph glyph-name="macron" unicode="&#xaf;" horiz-adv-x="400" 
d="M355 594h-310v110h310v-110z" />
    <glyph glyph-name="degree" unicode="&#xb0;" horiz-adv-x="334" 
d="M236 686q32 -18 51 -49.5t19 -68.5q0 -38 -19 -69.5t-50.5 -49.5t-69.5 -18t-70 18t-51 49.5t-19 69.5q0 37 19 68.5t51 49.5t70 18q37 0 69 -18zM130 606q-15 -15 -15 -38t15 -39t37 -16q21 0 36 16t15 39t-15 38t-36 15q-22 0 -37 -15z" />
    <glyph glyph-name="plusminus" unicode="&#xb1;" horiz-adv-x="565" 
d="M514 448v-134h-165v-112h-133v112h-165v134h165v113h133v-113h165zM51 165h463v-134h-463v134z" />
    <glyph glyph-name="u00B2" unicode="&#xb2;" horiz-adv-x="432" 
d="M303.5 772q37.5 -9 56.5 -33.5t19 -70.5q0 -23 -17.5 -53t-50.5 -58l-99 -86q31 7 60 7l118 -3v-115h-347v70q0 19 4 32.5t15 23.5l87 77q69 61 79 86q3 11 -6.5 14.5t-33.5 3.5l-137 -1l-4 102q70 13 155 13q64 0 101.5 -9z" />
    <glyph glyph-name="u00B3" unicode="&#xb3;" horiz-adv-x="412" 
d="M301.5 774q34.5 -9 49.5 -29.5t15 -58.5q0 -50 -16.5 -74.5t-62.5 -30.5v-2q52 -7 71.5 -31t19.5 -76q0 -66 -38.5 -93.5t-132.5 -27.5q-78 0 -169 12l4 99q60 -2 126 -2q29 0 43 2.5t19 10t5 22.5q0 18 -9.5 25t-41.5 8l-86 2v85l86 3q30 0 38.5 6.5t8.5 23.5t-9.5 22
t-40.5 5h-129l-4 96q79 12 157 12q62 0 96.5 -9z" />
    <glyph glyph-name="acute" unicode="&#xb4;" horiz-adv-x="374" 
d="M334 626l-242 -106l-51 76l219 149z" />
    <glyph glyph-name="mu" unicode="&#xb5;" horiz-adv-x="620" 
d="M611 12q-66 -24 -130 -24q-49 0 -79.5 22t-30.5 69v6q-19 -41 -56 -68.5t-84 -29.5v-52l-22 -120h-158v682h182v-301q0 -34 9.5 -44.5t30.5 -10.5q24 0 45.5 19.5t35.5 57t14 88.5v191h181v-348q0 -25 5 -35t20 -10h30z" />
    <glyph glyph-name="paragraph" unicode="&#xb6;" horiz-adv-x="613" 
d="M447 698q50 -4 88 -13v-685h-114v592q-34 2 -49 2v-804h-114v411q-125 11 -179.5 69t-54.5 180q0 93 33 148t104.5 79.5t191.5 24.5q44 0 94 -4z" />
    <glyph glyph-name="periodcentered" unicode="&#xb7;" horiz-adv-x="260" 
d="M201.5 329.5q13.5 -13.5 13.5 -49.5v-44q0 -36 -13.5 -49.5t-49.5 -13.5h-43q-36 0 -49.5 13.5t-13.5 49.5v44q0 36 13.5 49.5t49.5 13.5h43q36 0 49.5 -13.5z" />
    <glyph glyph-name="cedilla" unicode="&#xb8;" horiz-adv-x="256" 
d="M157 -29q42 0 61 -13.5t19 -49.5q0 -73 -48.5 -113t-127.5 -40q-21 0 -42 3l20 72q38 0 61 11.5t26 42.5q1 8 -3.5 11t-21 3.5t-42.5 0.5l17 66q64 6 81 6z" />
    <glyph glyph-name="u00B9" unicode="&#xb9;" horiz-adv-x="314" 
d="M261 360h-138v249q0 36 5 56l-100 -18l-16 87l111 40h138v-414z" />
    <glyph glyph-name="ordmasculine" unicode="&#xba;" horiz-adv-x="437" 
d="M327 602q40 -17 58 -55.5t18 -104.5q0 -65 -18 -102.5t-58 -54.5t-108 -17q-69 0 -109 17t-58 54.5t-18 102.5q0 66 18 104.5t58 55.5t109 17q68 0 108 -17zM189.5 520.5q-9.5 -6.5 -13.5 -24.5t-5 -54q1 -35 5 -52.5t13.5 -24t29.5 -6.5q19 0 28.5 6.5t13.5 24t4 52.5
q0 36 -4 54t-13.5 24.5t-28.5 6.5q-20 0 -29.5 -6.5z" />
    <glyph glyph-name="guillemotright" unicode="&#xbb;" horiz-adv-x="537" 
d="M287 270v-38l-158 -203l-95 60l95 162l-95 156l95 61zM510 270v-38l-159 -203l-95 60l95 162l-95 156l96 61z" />
    <glyph glyph-name="onequarter" unicode="&#xbc;" horiz-adv-x="924" 
d="M127 525q0 32 6 56l-95 -18l-15 87l104 40h139v-414h-139v249zM674 690l-400 -690h-112l400 690h112zM896 92l-46 -12v-80h-128v80h-175q-22 0 -37 12.5t-15 32.5q0 9 5 22l107 267h124l-91 -230q-1 -2 -1 -5q0 -8 13 -8h70v98l22 63h106v-161h46v-79z" />
    <glyph glyph-name="onehalf" unicode="&#xbd;" horiz-adv-x="929" 
d="M266 276h-139v249q0 32 6 56l-95 -18l-15 87l104 40h139v-414zM271 0h-111l399 690h113zM809 412q37 -9 56 -33.5t19 -70.5q0 -23 -17.5 -53t-49.5 -58l-96 -86q29 7 58 7l116 -3l-1 -115h-343v70q0 19 4.5 32t15.5 24l84 77q69 64 78 86q4 11 -5.5 14.5t-33.5 3.5
l-135 -1l-4 102q70 13 153 13q64 0 101 -9z" />
    <glyph glyph-name="threequarters" unicode="&#xbe;" horiz-adv-x="1002" 
d="M333 292.5q-38 -27.5 -130 -27.5q-72 0 -167 11l4 99q60 -2 123 -2q28 0 41.5 2.5t18.5 10t5 22.5q0 20 -9 28t-39 8l-85 -1v85l85 1q28 0 36 7t8 25q0 17 -8.5 21.5t-39.5 5.5q-47 1 -126 1l-4 95q79 12 156 12q60 0 94 -9t48.5 -29.5t14.5 -58.5q0 -50 -16 -74.5
t-62 -30.5v-2q51 -7 70.5 -31t19.5 -76q0 -65 -38 -92.5zM757 690l-400 -690h-112l399 690h113zM976 92l-46 -12v-80h-128v80h-175q-23 0 -37.5 12.5t-14.5 31.5q0 10 5 23l107 267h124l-91 -230q-1 -2 -1 -5q0 -8 13 -8h70v98l22 63h106v-161h46v-79z" />
    <glyph glyph-name="questiondown" unicode="&#xbf;" horiz-adv-x="522" 
d="M347.5 500.5q13.5 -13.5 13.5 -49.5v-44q0 -36 -13.5 -49.5t-49.5 -13.5h-41q-36 0 -49.5 13.5t-13.5 49.5v44q0 36 13.5 49.5t49.5 13.5h41q36 0 49.5 -13.5zM327.5 166.5q-24.5 -50.5 -68.5 -102.5q-22 -27 -31.5 -41t-11.5 -29l-1 -9q0 -20 17.5 -29t56.5 -9l163 1
q13 1 41 1l5 -121q-21 -4 -28 -5q-56 -12 -100 -16.5t-126 -4.5q-112 0 -166.5 38t-54.5 117q0 49 21 82.5t63 76.5q43 43 67.5 81t30.5 93h143q4 -73 -20.5 -123.5z" />
    <glyph glyph-name="Agrave" unicode="&#xc0;" horiz-adv-x="668" 
d="M440 164h-212l-41 -164h-192l189 641q5 22 22.5 35.5t40.5 13.5h174q23 0 40.5 -13.5t23.5 -35.5l188 -641h-192zM406 300l-45 177q-11 52 -13 72h-27q-7 -38 -14 -72l-45 -177h144zM425 809l-51 -75l-241 105l73 120z" />
    <glyph glyph-name="Aacute" unicode="&#xc1;" horiz-adv-x="668" 
d="M440 164h-212l-41 -164h-192l189 641q5 22 22.5 35.5t40.5 13.5h174q23 0 40.5 -13.5t23.5 -35.5l188 -641h-192zM406 300l-45 177q-11 52 -13 72h-27q-7 -38 -14 -72l-45 -177h144zM532 828l-242 -106l-51 76l219 149z" />
    <glyph glyph-name="Acircumflex" unicode="&#xc2;" horiz-adv-x="668" 
d="M440 164h-212l-41 -164h-192l189 641q5 22 22.5 35.5t40.5 13.5h174q23 0 40.5 -13.5t23.5 -35.5l188 -641h-192zM406 300l-45 177q-11 52 -13 72h-27q-7 -38 -14 -72l-45 -177h144zM536 782l-45 -63l-151 94h-8l-153 -94l-46 69l138 132h131z" />
    <glyph glyph-name="Atilde" unicode="&#xc3;" horiz-adv-x="668" 
d="M440 164h-212l-41 -164h-192l189 641q5 22 22.5 35.5t40.5 13.5h174q23 0 40.5 -13.5t23.5 -35.5l188 -641h-192zM406 300l-45 177q-11 52 -13 72h-27q-7 -38 -14 -72l-45 -177h144zM284 898.5q23 -6.5 52 -16.5q42 -16 64 -20q4 -1 11 -1q15 0 18.5 8.5t3.5 32.5h76
q4 -23 4 -46q0 -54 -24 -83t-63 -27q-26 2 -48 8t-57 19q-37 15 -61 19q-4 1 -11 1q-14 0 -17.5 -9t-3.5 -33h-76q-4 21 -4 45q0 56 25.5 84.5t61.5 26.5q26 -2 49 -8.5z" />
    <glyph glyph-name="Adieresis" unicode="&#xc4;" horiz-adv-x="668" 
d="M440 164h-212l-41 -164h-192l189 641q5 22 22.5 35.5t40.5 13.5h174q23 0 40.5 -13.5t23.5 -35.5l188 -641h-192zM406 300l-45 177q-11 52 -13 72h-27q-7 -38 -14 -72l-45 -177h144zM306 857v-60q0 -37 -36 -37h-59q-36 0 -36 37v60q0 36 36 36h59q36 0 36 -36zM492 857
v-60q0 -37 -36 -37h-59q-37 0 -37 37v60q0 36 37 36h59q36 0 36 -36z" />
    <glyph glyph-name="Aring" unicode="&#xc5;" horiz-adv-x="668" 
d="M440 164h-212l-41 -164h-192l189 641q5 22 22.5 35.5t40.5 13.5h174q23 0 40.5 -13.5t23.5 -35.5l188 -641h-192zM406 300l-45 177q-11 52 -13 72h-27q-7 -38 -14 -72l-45 -177h144zM396.5 938q28.5 -16 45.5 -43.5t17 -60.5q0 -51 -36.5 -86t-87.5 -35t-87.5 35
t-36.5 86q0 33 17 60.5t45.5 43.5t61.5 16t61.5 -16zM301.5 868q-13.5 -14 -13.5 -34q0 -21 13.5 -34.5t33.5 -13.5t33.5 13.5t13.5 34.5q0 20 -13.5 34t-33.5 14t-33.5 -14z" />
    <glyph glyph-name="AE" unicode="&#xc6;" horiz-adv-x="944" 
d="M901 141l9 -133q-68 -7 -143 -9t-187 -2q-64 0 -101.5 41t-37.5 107v29h-185l-79 -174h-192l263 545q26 56 61 87t97 45.5t167 14.5q109 0 183.5 -2t153.5 -8l-9 -133h-240q-20 0 -32.5 -12.5t-12.5 -31.5v-88h250v-122h-250v-111q0 -43 45 -43h240zM441 307v205
q0 16 5.5 33.5t13.5 30.5h-13q-10 -11 -31 -48l-100 -221h125z" />
    <glyph glyph-name="Ccedilla" unicode="&#xc7;" horiz-adv-x="596" 
d="M462 696.5q46 -5.5 97 -19.5l-14 -138q-102 3 -204 3q-42 0 -64.5 -17t-31.5 -59t-9 -121t9 -121t31.5 -59t64.5 -17q79 0 126 1.5t92 6.5l15 -137q-50 -17 -102.5 -24t-130.5 -7q-112 0 -177.5 34.5t-95 112t-29.5 210.5t29.5 210.5t95 112t177.5 34.5q75 0 121 -5.5z
M342 -55q42 0 61 -13.5t19 -49.5q0 -73 -48.5 -113t-127.5 -40q-21 0 -42 3l20 72q38 0 61 11.5t26 42.5q1 8 -3.5 11t-21 3.5t-42.5 0.5l17 66q64 6 81 6z" />
    <glyph glyph-name="Egrave" unicode="&#xc8;" horiz-adv-x="587" 
d="M545 143l9 -135q-65 -7 -144.5 -9t-197.5 -2q-71 0 -114 40.5t-43 107.5v400q0 67 43.5 107.5t113.5 40.5q118 0 197.5 -2t144.5 -9l-9 -135h-259q-43 0 -43 -43v-84h265v-129h-265v-105q0 -43 43 -43h259zM409 814l-51 -75l-241 105l73 120z" />
    <glyph glyph-name="Eacute" unicode="&#xc9;" horiz-adv-x="587" 
d="M545 143l9 -135q-65 -7 -144.5 -9t-197.5 -2q-71 0 -114 40.5t-43 107.5v400q0 67 43.5 107.5t113.5 40.5q118 0 197.5 -2t144.5 -9l-9 -135h-259q-43 0 -43 -43v-84h265v-129h-265v-105q0 -43 43 -43h259zM516 833l-242 -106l-51 76l219 149z" />
    <glyph glyph-name="Ecircumflex" unicode="&#xca;" horiz-adv-x="587" 
d="M545 143l9 -135q-65 -7 -144.5 -9t-197.5 -2q-71 0 -114 40.5t-43 107.5v400q0 67 43.5 107.5t113.5 40.5q118 0 197.5 -2t144.5 -9l-9 -135h-259q-43 0 -43 -43v-84h265v-129h-265v-105q0 -43 43 -43h259zM520 787l-45 -63l-151 94h-8l-153 -94l-46 69l138 132h131z" />
    <glyph glyph-name="Edieresis" unicode="&#xcb;" horiz-adv-x="587" 
d="M545 143l9 -135q-65 -7 -144.5 -9t-197.5 -2q-71 0 -114 40.5t-43 107.5v400q0 67 43.5 107.5t113.5 40.5q118 0 197.5 -2t144.5 -9l-9 -135h-259q-43 0 -43 -43v-84h265v-129h-265v-105q0 -43 43 -43h259zM290 862v-60q0 -37 -36 -37h-59q-36 0 -36 37v60q0 36 36 36h59
q36 0 36 -36zM476 862v-60q0 -37 -36 -37h-59q-37 0 -37 37v60q0 36 37 36h59q36 0 36 -36z" />
    <glyph glyph-name="Igrave" unicode="&#xcc;" horiz-adv-x="308" 
d="M247 0h-186v690h186v-690zM244 811l-51 -75l-241 105l73 120z" />
    <glyph glyph-name="Iacute" unicode="&#xcd;" horiz-adv-x="308" 
d="M247 0h-186v690h186v-690zM351 830l-242 -106l-51 76l219 149z" />
    <glyph glyph-name="Icircumflex" unicode="&#xce;" horiz-adv-x="308" 
d="M247 0h-186v690h186v-690zM355 784l-45 -63l-151 94h-8l-153 -94l-46 69l138 132h131z" />
    <glyph glyph-name="Idieresis" unicode="&#xcf;" horiz-adv-x="308" 
d="M247 0h-186v690h186v-690zM125 859v-60q0 -37 -36 -37h-59q-36 0 -36 37v60q0 36 36 36h59q36 0 36 -36zM311 859v-60q0 -37 -36 -37h-59q-37 0 -37 37v60q0 36 37 36h59q36 0 36 -36z" />
    <glyph glyph-name="Eth" unicode="&#xd0;" horiz-adv-x="693" 
d="M528 668.5q66 -31.5 96 -108t30 -215.5t-30 -215.5t-96 -108t-183 -31.5q-144 0 -284 10v313h-50v92h50v285q170 10 284 10q117 0 183 -31.5zM412.5 149.5q23.5 18.5 33.5 63.5t10 132t-10 132.5t-33.5 64t-67.5 18.5h-96v-155h110v-92h-110v-181q29 -1 96 -1
q44 0 67.5 18.5z" />
    <glyph glyph-name="Ntilde" unicode="&#xd1;" horiz-adv-x="731" 
d="M671 66q0 -66 -65 -66h-89q-27 0 -42 12.5t-31 42.5l-164 296q-27 51 -45 113h-8q8 -62 8 -118v-346h-175v624q0 32 17 49t49 17h88q27 0 41.5 -12.5t31.5 -42.5l158 -285q25 -45 52 -115h8q-7 72 -7 121l-1 334h174v-624zM326 901.5q23 -6.5 52 -16.5q42 -16 64 -20
q4 -1 11 -1q15 0 18.5 8.5t3.5 32.5h76q4 -23 4 -46q0 -54 -24 -83t-63 -27q-26 2 -48 8t-57 19q-37 15 -61 19q-4 1 -11 1q-14 0 -17.5 -9t-3.5 -33h-76q-4 21 -4 45q0 56 25.5 84.5t61.5 26.5q26 -2 49 -8.5z" />
    <glyph glyph-name="Ograve" unicode="&#xd2;" 
d="M532 672.5q66 -31.5 96 -109t30 -218.5t-30 -218.5t-96 -109t-184 -31.5t-184 31.5t-95.5 109t-29.5 218.5t29.5 218.5t95.5 109t184 31.5t184 -31.5zM279 541.5q-24 -18.5 -33.5 -64t-9.5 -132.5t9.5 -132.5t33.5 -64t69 -18.5t69 18.5t33.5 64t9.5 132.5t-9.5 132.5
t-33.5 64t-69 18.5t-69 -18.5zM438 811l-51 -75l-241 105l73 120z" />
    <glyph glyph-name="Oacute" unicode="&#xd3;" 
d="M532 672.5q66 -31.5 96 -109t30 -218.5t-30 -218.5t-96 -109t-184 -31.5t-184 31.5t-95.5 109t-29.5 218.5t29.5 218.5t95.5 109t184 31.5t184 -31.5zM279 541.5q-24 -18.5 -33.5 -64t-9.5 -132.5t9.5 -132.5t33.5 -64t69 -18.5t69 18.5t33.5 64t9.5 132.5t-9.5 132.5
t-33.5 64t-69 18.5t-69 -18.5zM545 830l-242 -106l-51 76l219 149z" />
    <glyph glyph-name="Ocircumflex" unicode="&#xd4;" 
d="M532 672.5q66 -31.5 96 -109t30 -218.5t-30 -218.5t-96 -109t-184 -31.5t-184 31.5t-95.5 109t-29.5 218.5t29.5 218.5t95.5 109t184 31.5t184 -31.5zM279 541.5q-24 -18.5 -33.5 -64t-9.5 -132.5t9.5 -132.5t33.5 -64t69 -18.5t69 18.5t33.5 64t9.5 132.5t-9.5 132.5
t-33.5 64t-69 18.5t-69 -18.5zM548 784l-45 -63l-151 94h-8l-153 -94l-46 69l138 132h131z" />
    <glyph glyph-name="Otilde" unicode="&#xd5;" 
d="M532 672.5q66 -31.5 96 -109t30 -218.5t-30 -218.5t-96 -109t-184 -31.5t-184 31.5t-95.5 109t-29.5 218.5t29.5 218.5t95.5 109t184 31.5t184 -31.5zM279 541.5q-24 -18.5 -33.5 -64t-9.5 -132.5t9.5 -132.5t33.5 -64t69 -18.5t69 18.5t33.5 64t9.5 132.5t-9.5 132.5
t-33.5 64t-69 18.5t-69 -18.5zM297 901.5q23 -6.5 52 -16.5q42 -16 64 -20q4 -1 11 -1q15 0 18.5 8.5t3.5 32.5h76q4 -23 4 -46q0 -54 -24 -83t-63 -27q-26 2 -48 8t-57 19q-37 15 -61 19q-4 1 -11 1q-14 0 -17.5 -9t-3.5 -33h-76q-4 21 -4 45q0 56 25.5 84.5t61.5 26.5
q26 -2 49 -8.5z" />
    <glyph glyph-name="Odieresis" unicode="&#xd6;" 
d="M532 672.5q66 -31.5 96 -109t30 -218.5t-30 -218.5t-96 -109t-184 -31.5t-184 31.5t-95.5 109t-29.5 218.5t29.5 218.5t95.5 109t184 31.5t184 -31.5zM279 541.5q-24 -18.5 -33.5 -64t-9.5 -132.5t9.5 -132.5t33.5 -64t69 -18.5t69 18.5t33.5 64t9.5 132.5t-9.5 132.5
t-33.5 64t-69 18.5t-69 -18.5zM319 859v-60q0 -37 -36 -37h-59q-36 0 -36 37v60q0 36 36 36h59q36 0 36 -36zM505 859v-60q0 -37 -36 -37h-59q-37 0 -37 37v60q0 36 37 36h59q36 0 36 -36z" />
    <glyph glyph-name="multiply" unicode="&#xd7;" horiz-adv-x="500" 
d="M350 292l128 -114l-85 -100l-142 126l-142 -126l-84 100l128 114l-128 114l84 101l142 -127l142 127l85 -101z" />
    <glyph glyph-name="Oslash" unicode="&#xd8;" 
d="M628.5 561q29.5 -77 29.5 -216q0 -141 -30 -218.5t-96 -109t-184 -31.5q-77 0 -130 13l-31 -67l-57 26l29 62q-64 34 -92 111t-28 214q0 141 29.5 218.5t95.5 109t184 31.5q78 0 125 -12l30 64l57 -26l-27 -58q66 -34 95.5 -111zM247 208l159 341q-21 11 -58 11
q-45 0 -69 -18.5t-33.5 -64t-9.5 -132.5q0 -93 11 -137zM417 148.5q24 18.5 33.5 64t9.5 132.5q0 101 -13 144l-161 -345q22 -14 62 -14q45 0 69 18.5z" />
    <glyph glyph-name="Ugrave" unicode="&#xd9;" horiz-adv-x="694" 
d="M639 280q0 -109 -27.5 -172.5t-88.5 -92.5t-166 -29q-112 0 -177.5 29t-95 92.5t-29.5 172.5v410h188v-410q0 -60 9.5 -92t31.5 -45t63 -13t63 13t31.5 45t9.5 92v410h188v-410zM439 811l-51 -75l-241 105l73 120z" />
    <glyph glyph-name="Uacute" unicode="&#xda;" horiz-adv-x="694" 
d="M639 280q0 -109 -27.5 -172.5t-88.5 -92.5t-166 -29q-112 0 -177.5 29t-95 92.5t-29.5 172.5v410h188v-410q0 -60 9.5 -92t31.5 -45t63 -13t63 13t31.5 45t9.5 92v410h188v-410zM545 830l-242 -106l-51 76l219 149z" />
    <glyph glyph-name="Ucircumflex" unicode="&#xdb;" horiz-adv-x="694" 
d="M639 280q0 -109 -27.5 -172.5t-88.5 -92.5t-166 -29q-112 0 -177.5 29t-95 92.5t-29.5 172.5v410h188v-410q0 -60 9.5 -92t31.5 -45t63 -13t63 13t31.5 45t9.5 92v410h188v-410zM549 784l-45 -63l-151 94h-8l-153 -94l-46 69l138 132h131z" />
    <glyph glyph-name="Udieresis" unicode="&#xdc;" horiz-adv-x="694" 
d="M639 280q0 -109 -27.5 -172.5t-88.5 -92.5t-166 -29q-112 0 -177.5 29t-95 92.5t-29.5 172.5v410h188v-410q0 -60 9.5 -92t31.5 -45t63 -13t63 13t31.5 45t9.5 92v410h188v-410zM320 859v-60q0 -37 -36 -37h-59q-36 0 -36 37v60q0 36 36 36h59q36 0 36 -36zM506 859v-60
q0 -37 -36 -37h-59q-37 0 -37 37v60q0 36 37 36h59q36 0 36 -36z" />
    <glyph glyph-name="Yacute" unicode="&#xdd;" horiz-adv-x="633" 
d="M411 221v-221h-188v219l-228 471h194l99 -233q13 -30 23 -93h12q1 6 7 37.5t16 55.5l99 233h193zM514 826l-242 -106l-51 76l219 149z" />
    <glyph glyph-name="Thorn" unicode="&#xde;" horiz-adv-x="623" 
d="M494.5 555.5q56.5 -20.5 80.5 -70t24 -141.5q0 -91 -23 -140t-74.5 -69.5t-142.5 -20.5q-57 0 -110 6v-120h-188v690h188v-114h85q104 0 160.5 -20.5zM379.5 259q17.5 8 24.5 27.5t7 57.5q0 39 -7 59t-24.5 28t-50.5 8h-80v-188h80q33 0 50.5 8z" />
    <glyph glyph-name="germandbls" unicode="&#xdf;" horiz-adv-x="723" 
d="M678 229q17 -17 24.5 -38t7.5 -54q0 -78 -44.5 -113t-155.5 -35q-62 0 -175 11l12 115q38 -1 120 -1q37 0 48.5 4.5t11.5 25.5q0 15 -13 28.5t-44 36.5q-12 8 -18 13l-48 29q-36 26 -54 53t-18 65q0 27 11 45t37 45q18 18 27 29q24 29 32 44t8 34q0 18 -6 27.5t-23.5 14
t-52.5 4.5q-37 0 -55 -6t-25 -21t-7 -46v-539h-182v383h-83v110l83 4v64q0 68 27 106t84 54t155 16q101 0 155 -16t75 -50t21 -94q0 -33 -10.5 -57.5t-44.5 -60.5q-32 -32 -43.5 -46.5t-11.5 -31.5q0 -14 10.5 -25t26.5 -22.5t24 -17.5l63 -44q34 -26 51 -43z" />
    <glyph glyph-name="agrave" unicode="&#xe0;" horiz-adv-x="580" 
d="M482 467.5q51 -43.5 51 -150.5v-317h-144l-17 73q-30 -37 -74 -61.5t-103 -24.5q-73 0 -120 37.5t-47 104.5v50q0 59 42.5 93t116.5 34h165v12q-1 32 -15.5 44.5t-53.5 12.5q-97 0 -213 -7l-16 118q55 10 135.5 17.5t136.5 7.5q105 0 156 -43.5zM255 115q45 0 97 35v61
h-104q-42 -1 -42 -39v-17q0 -40 49 -40zM386 639l-51 -75l-241 105l73 120z" />
    <glyph glyph-name="aacute" unicode="&#xe1;" horiz-adv-x="580" 
d="M482 467.5q51 -43.5 51 -150.5v-317h-144l-17 73q-30 -37 -74 -61.5t-103 -24.5q-73 0 -120 37.5t-47 104.5v50q0 59 42.5 93t116.5 34h165v12q-1 32 -15.5 44.5t-53.5 12.5q-97 0 -213 -7l-16 118q55 10 135.5 17.5t136.5 7.5q105 0 156 -43.5zM255 115q45 0 97 35v61
h-104q-42 -1 -42 -39v-17q0 -40 49 -40zM492 658l-242 -106l-51 76l219 149z" />
    <glyph glyph-name="acircumflex" unicode="&#xe2;" horiz-adv-x="580" 
d="M482 467.5q51 -43.5 51 -150.5v-317h-144l-17 73q-30 -37 -74 -61.5t-103 -24.5q-73 0 -120 37.5t-47 104.5v50q0 59 42.5 93t116.5 34h165v12q-1 32 -15.5 44.5t-53.5 12.5q-97 0 -213 -7l-16 118q55 10 135.5 17.5t136.5 7.5q105 0 156 -43.5zM255 115q45 0 97 35v61
h-104q-42 -1 -42 -39v-17q0 -40 49 -40zM496 612l-45 -63l-151 94h-8l-153 -94l-46 69l138 132h131z" />
    <glyph glyph-name="atilde" unicode="&#xe3;" horiz-adv-x="580" 
d="M482 467.5q51 -43.5 51 -150.5v-317h-144l-17 73q-30 -37 -74 -61.5t-103 -24.5q-73 0 -120 37.5t-47 104.5v50q0 59 42.5 93t116.5 34h165v12q-1 32 -15.5 44.5t-53.5 12.5q-97 0 -213 -7l-16 118q55 10 135.5 17.5t136.5 7.5q105 0 156 -43.5zM255 115q45 0 97 35v61
h-104q-42 -1 -42 -39v-17q0 -40 49 -40zM245 728.5q23 -6.5 52 -16.5q42 -16 64 -20q4 -1 11 -1q15 0 18.5 8.5t3.5 32.5h76q4 -23 4 -46q0 -54 -24 -83t-63 -27q-26 2 -48 8t-57 19q-37 15 -61 19q-4 1 -11 1q-14 0 -17.5 -9t-3.5 -33h-76q-4 21 -4 45q0 56 25.5 84.5
t61.5 26.5q26 -2 49 -8.5z" />
    <glyph glyph-name="adieresis" unicode="&#xe4;" horiz-adv-x="580" 
d="M482 467.5q51 -43.5 51 -150.5v-317h-144l-17 73q-30 -37 -74 -61.5t-103 -24.5q-73 0 -120 37.5t-47 104.5v50q0 59 42.5 93t116.5 34h165v12q-1 32 -15.5 44.5t-53.5 12.5q-97 0 -213 -7l-16 118q55 10 135.5 17.5t136.5 7.5q105 0 156 -43.5zM255 115q45 0 97 35v61
h-104q-42 -1 -42 -39v-17q0 -40 49 -40zM267 687v-60q0 -37 -36 -37h-59q-36 0 -36 37v60q0 36 36 36h59q36 0 36 -36zM453 687v-60q0 -37 -36 -37h-59q-37 0 -37 37v60q0 36 37 36h59q36 0 36 -36z" />
    <glyph glyph-name="aring" unicode="&#xe5;" horiz-adv-x="580" 
d="M482 467.5q51 -43.5 51 -150.5v-317h-144l-17 73q-30 -37 -74 -61.5t-103 -24.5q-73 0 -120 37.5t-47 104.5v50q0 59 42.5 93t116.5 34h165v12q-1 32 -15.5 44.5t-53.5 12.5q-97 0 -213 -7l-16 118q55 10 135.5 17.5t136.5 7.5q105 0 156 -43.5zM255 115q45 0 97 35v61
h-104q-42 -1 -42 -39v-17q0 -40 49 -40zM357.5 768q28.5 -16 45.5 -43.5t17 -60.5q0 -51 -36.5 -86t-87.5 -35t-87.5 35t-36.5 86q0 33 17 60.5t45.5 43.5t61.5 16t61.5 -16zM262.5 698q-13.5 -14 -13.5 -34q0 -21 13.5 -34.5t33.5 -13.5t33.5 13.5t13.5 34.5q0 20 -13.5 34
t-33.5 14t-33.5 -14z" />
    <glyph glyph-name="ae" unicode="&#xe6;" horiz-adv-x="881" 
d="M823 141l17 -111q-83 -42 -228 -42q-88 0 -144.5 22.5t-86.5 69.5q-30 -39 -76.5 -66t-112.5 -27q-71 0 -117.5 37.5t-46.5 104.5v50q0 58 41.5 91.5t114.5 33.5h160v14q0 32 -14.5 44.5t-51.5 12.5q-96 0 -209 -7l-16 118q53 10 133.5 17.5t134.5 7.5q83 0 131 -26
q58 26 157 26q130 0 187 -43.5t57 -132.5q1 -70 -38.5 -102t-134.5 -32h-149q7 -41 29 -56.5t73 -15.5q89 0 190 12zM561.5 380.5q-16.5 -7.5 -24 -27t-9.5 -58.5h101q31 0 40 9.5t9 34.5q0 30 -14.5 39.5t-54.5 9.5q-31 0 -47.5 -7.5zM300.5 125q26.5 10 51.5 28
q-7 30 -8 57l-97 1q-41 -1 -41 -39v-17q0 -40 46 -40q22 0 48.5 10z" />
    <glyph glyph-name="ccedilla" unicode="&#xe7;" horiz-adv-x="518" 
d="M395 503q54 -8 93 -26l-18 -113l-147 1q-39 0 -60.5 -10t-30.5 -34.5t-9 -71.5t9 -71.5t30.5 -34.5t60.5 -10q87 0 156 8l17 -115q-77 -38 -206 -38q-96 0 -152 25.5t-81 82t-25 153.5t25.5 154t81.5 82.5t153 25.5q49 0 103 -8zM295 -45q42 0 61 -13.5t19 -49.5
q0 -73 -48.5 -113t-127.5 -40q-21 0 -42 3l20 72q38 0 61 11.5t26 42.5q1 8 -3.5 11t-21 3.5t-42.5 0.5l17 66q64 6 81 6z" />
    <glyph glyph-name="egrave" unicode="&#xe8;" horiz-adv-x="576" 
d="M519 141l16 -111q-83 -42 -231 -42q-147 0 -209.5 62t-62.5 196q0 99 27 156.5t85 83t157 25.5q132 0 190 -44t58 -135q0 -68 -40 -99.5t-134 -31.5h-149q6 -41 27.5 -56.5t70.5 -15.5q91 0 195 12zM255 380.5q-16 -7.5 -23 -27t-9 -58.5h101q31 0 40.5 9.5t9.5 34.5
q0 29 -16 39t-58 10q-29 0 -45 -7.5zM394 633l-51 -75l-241 105l73 120z" />
    <glyph glyph-name="eacute" unicode="&#xe9;" horiz-adv-x="576" 
d="M519 141l16 -111q-83 -42 -231 -42q-147 0 -209.5 62t-62.5 196q0 99 27 156.5t85 83t157 25.5q132 0 190 -44t58 -135q0 -68 -40 -99.5t-134 -31.5h-149q6 -41 27.5 -56.5t70.5 -15.5q91 0 195 12zM255 380.5q-16 -7.5 -23 -27t-9 -58.5h101q31 0 40.5 9.5t9.5 34.5
q0 29 -16 39t-58 10q-29 0 -45 -7.5zM501 652l-242 -106l-51 76l219 149z" />
    <glyph glyph-name="ecircumflex" unicode="&#xea;" horiz-adv-x="576" 
d="M519 141l16 -111q-83 -42 -231 -42q-147 0 -209.5 62t-62.5 196q0 99 27 156.5t85 83t157 25.5q132 0 190 -44t58 -135q0 -68 -40 -99.5t-134 -31.5h-149q6 -41 27.5 -56.5t70.5 -15.5q91 0 195 12zM255 380.5q-16 -7.5 -23 -27t-9 -58.5h101q31 0 40.5 9.5t9.5 34.5
q0 29 -16 39t-58 10q-29 0 -45 -7.5zM504 606l-45 -63l-151 94h-8l-153 -94l-46 69l138 132h131z" />
    <glyph glyph-name="edieresis" unicode="&#xeb;" horiz-adv-x="576" 
d="M519 141l16 -111q-83 -42 -231 -42q-147 0 -209.5 62t-62.5 196q0 99 27 156.5t85 83t157 25.5q132 0 190 -44t58 -135q0 -68 -40 -99.5t-134 -31.5h-149q6 -41 27.5 -56.5t70.5 -15.5q91 0 195 12zM255 380.5q-16 -7.5 -23 -27t-9 -58.5h101q31 0 40.5 9.5t9.5 34.5
q0 29 -16 39t-58 10q-29 0 -45 -7.5zM275 681v-60q0 -37 -36 -37h-59q-36 0 -36 37v60q0 36 36 36h59q36 0 36 -36zM461 681v-60q0 -37 -36 -37h-59q-37 0 -37 37v60q0 36 37 36h59q36 0 36 -36z" />
    <glyph glyph-name="igrave" unicode="&#xec;" horiz-adv-x="293" 
d="M238 0h-183v497h183v-497zM235 633l-51 -75l-241 105l73 120z" />
    <glyph glyph-name="iacute" unicode="&#xed;" horiz-adv-x="293" 
d="M238 0h-183v497h183v-497zM341 652l-242 -106l-51 76l219 149z" />
    <glyph glyph-name="icircumflex" unicode="&#xee;" horiz-adv-x="293" 
d="M238 0h-183v497h183v-497zM345 606l-45 -63l-151 94h-8l-153 -94l-46 69l138 132h131z" />
    <glyph glyph-name="idieresis" unicode="&#xef;" horiz-adv-x="293" 
d="M238 0h-183v497h183v-497zM116 681v-60q0 -37 -36 -37h-59q-36 0 -36 37v60q0 36 36 36h59q36 0 36 -36zM302 681v-60q0 -37 -36 -37h-59q-37 0 -37 37v60q0 36 37 36h59q36 0 36 -36z" />
    <glyph glyph-name="eth" unicode="&#xf0;" horiz-adv-x="590" 
d="M533 455.5q23 -74.5 23 -166.5q0 -110 -27 -176t-85 -96.5t-154 -30.5q-132 0 -195 55.5t-63 173.5q0 123 51 180t169 57q61 0 101 -15q-16 78 -60 112.5t-129 34.5q-11 0 -39 -2l16 116q14 1 40 1q97 0 168 -31l83 83l103 -100l-70 -68q45 -53 68 -127.5zM339.5 130
q15.5 15 20.5 50.5t5 108.5v30q-37 5 -71 5q-27 0 -42 -8t-22 -31t-7 -67q0 -60 14.5 -81.5t54.5 -21.5q32 0 47.5 15z" />
    <glyph glyph-name="ntilde" unicode="&#xf1;" horiz-adv-x="611" 
d="M526.5 475.5q36.5 -35.5 36.5 -103.5v-372h-182v315q0 24 -9 33t-32 9t-47.5 -6t-59.5 -20v-331h-182v497h145l15 -73q51 43 104 65t104 22q71 0 107.5 -35.5zM260 722.5q23 -6.5 52 -16.5q42 -16 64 -20q4 -1 11 -1q15 0 18.5 8.5t3.5 32.5h76q4 -23 4 -46
q0 -54 -24 -83t-63 -27q-26 2 -48 8t-57 19q-37 15 -61 19q-4 1 -11 1q-14 0 -17.5 -9t-3.5 -33h-76q-4 21 -4 45q0 56 25.5 84.5t61.5 26.5q26 -2 49 -8.5z" />
    <glyph glyph-name="ograve" unicode="&#xf2;" horiz-adv-x="600" 
d="M457 485q58 -26 84.5 -83t26.5 -154t-26 -153t-84.5 -81.5t-157.5 -25.5t-157 25.5t-84.5 82t-26.5 152.5q0 97 26.5 154t84.5 83t157 26t157 -26zM252 372q-16 -11 -22.5 -39t-6.5 -85q0 -56 6.5 -84t22.5 -38.5t48 -10.5t48 10.5t22.5 38.5t6.5 84t-6.5 84.5
t-22.5 39.5t-48 11t-48 -11zM391 624l-51 -75l-241 105l73 120z" />
    <glyph glyph-name="oacute" unicode="&#xf3;" horiz-adv-x="600" 
d="M457 485q58 -26 84.5 -83t26.5 -154t-26 -153t-84.5 -81.5t-157.5 -25.5t-157 25.5t-84.5 82t-26.5 152.5q0 97 26.5 154t84.5 83t157 26t157 -26zM252 372q-16 -11 -22.5 -39t-6.5 -85q0 -56 6.5 -84t22.5 -38.5t48 -10.5t48 10.5t22.5 38.5t6.5 84t-6.5 84.5
t-22.5 39.5t-48 11t-48 -11zM498 643l-242 -106l-51 76l219 149z" />
    <glyph glyph-name="ocircumflex" unicode="&#xf4;" horiz-adv-x="600" 
d="M457 485q58 -26 84.5 -83t26.5 -154t-26 -153t-84.5 -81.5t-157.5 -25.5t-157 25.5t-84.5 82t-26.5 152.5q0 97 26.5 154t84.5 83t157 26t157 -26zM252 372q-16 -11 -22.5 -39t-6.5 -85q0 -56 6.5 -84t22.5 -38.5t48 -10.5t48 10.5t22.5 38.5t6.5 84t-6.5 84.5
t-22.5 39.5t-48 11t-48 -11zM501 597l-45 -63l-151 94h-8l-153 -94l-46 69l138 132h131z" />
    <glyph glyph-name="otilde" unicode="&#xf5;" horiz-adv-x="600" 
d="M457 485q58 -26 84.5 -83t26.5 -154t-26 -153t-84.5 -81.5t-157.5 -25.5t-157 25.5t-84.5 82t-26.5 152.5q0 97 26.5 154t84.5 83t157 26t157 -26zM252 372q-16 -11 -22.5 -39t-6.5 -85q0 -56 6.5 -84t22.5 -38.5t48 -10.5t48 10.5t22.5 38.5t6.5 84t-6.5 84.5
t-22.5 39.5t-48 11t-48 -11zM250 714.5q23 -6.5 52 -16.5q42 -16 64 -20q4 -1 11 -1q15 0 18.5 8.5t3.5 32.5h76q4 -23 4 -46q0 -54 -24 -83t-63 -27q-26 2 -48 8t-57 19q-37 15 -61 19q-4 1 -11 1q-14 0 -17.5 -9t-3.5 -33h-76q-4 21 -4 45q0 56 25.5 84.5t61.5 26.5
q26 -2 49 -8.5z" />
    <glyph glyph-name="odieresis" unicode="&#xf6;" horiz-adv-x="600" 
d="M457 485q58 -26 84.5 -83t26.5 -154t-26 -153t-84.5 -81.5t-157.5 -25.5t-157 25.5t-84.5 82t-26.5 152.5q0 97 26.5 154t84.5 83t157 26t157 -26zM252 372q-16 -11 -22.5 -39t-6.5 -85q0 -56 6.5 -84t22.5 -38.5t48 -10.5t48 10.5t22.5 38.5t6.5 84t-6.5 84.5
t-22.5 39.5t-48 11t-48 -11zM272 672v-60q0 -37 -36 -37h-59q-36 0 -36 37v60q0 36 36 36h59q36 0 36 -36zM458 672v-60q0 -37 -36 -37h-59q-37 0 -37 37v60q0 36 37 36h59q36 0 36 -36z" />
    <glyph glyph-name="divide" unicode="&#xf7;" horiz-adv-x="543" 
d="M345 550.5q14 -14.5 14 -52.5v-25q0 -38 -14 -52t-52 -14h-44q-38 0 -52 14t-14 52v25q0 38 14 52.5t52 14.5h44q38 0 52 -14.5zM507 229h-471v127h471v-127zM345 161.5q14 -14.5 14 -52.5v-24q0 -38 -14 -52.5t-52 -14.5h-44q-38 0 -52 14.5t-14 52.5v24q0 38 14 52.5
t52 14.5h44q38 0 52 -14.5z" />
    <glyph glyph-name="oslash" unicode="&#xf8;" horiz-adv-x="600" 
d="M547.5 389q20.5 -54 20.5 -141q0 -97 -26 -153t-84.5 -81.5t-157.5 -25.5q-20 0 -52 2l-44 -92l-122 62l33 69q-43 29 -63 82t-20 137q0 97 26.5 154t84.5 83t157 26q32 0 47 -2l46 97l122 -63l-34 -70q46 -30 66.5 -84zM348 125.5q16 10.5 22.5 38.5t6.5 84t-6.5 84.5
t-22.5 39.5t-48 11t-48 -11t-22.5 -39t-6.5 -85q0 -56 6.5 -84t22.5 -38.5t48 -10.5t48 10.5z" />
    <glyph glyph-name="ugrave" unicode="&#xf9;" horiz-adv-x="604" 
d="M553 497v-497h-144l-15 71q-51 -43 -100 -64t-102 -21q-71 0 -107.5 35.5t-36.5 103.5v372h182v-315q0 -23 10 -33t34 -10q21 0 42.5 5.5t53.5 19.5v333h183zM391 634l-51 -75l-241 105l73 120z" />
    <glyph glyph-name="uacute" unicode="&#xfa;" horiz-adv-x="604" 
d="M553 497v-497h-144l-15 71q-51 -43 -100 -64t-102 -21q-71 0 -107.5 35.5t-36.5 103.5v372h182v-315q0 -23 10 -33t34 -10q21 0 42.5 5.5t53.5 19.5v333h183zM497 653l-242 -106l-51 76l219 149z" />
    <glyph glyph-name="ucircumflex" unicode="&#xfb;" horiz-adv-x="604" 
d="M553 497v-497h-144l-15 71q-51 -43 -100 -64t-102 -21q-71 0 -107.5 35.5t-36.5 103.5v372h182v-315q0 -23 10 -33t34 -10q21 0 42.5 5.5t53.5 19.5v333h183zM501 607l-45 -63l-151 94h-8l-153 -94l-46 69l138 132h131z" />
    <glyph glyph-name="udieresis" unicode="&#xfc;" horiz-adv-x="604" 
d="M553 497v-497h-144l-15 71q-51 -43 -100 -64t-102 -21q-71 0 -107.5 35.5t-36.5 103.5v372h182v-315q0 -23 10 -33t34 -10q21 0 42.5 5.5t53.5 19.5v333h183zM272 682v-60q0 -37 -36 -37h-59q-36 0 -36 37v60q0 36 36 36h59q36 0 36 -36zM458 682v-60q0 -37 -36 -37h-59
q-37 0 -37 37v60q0 36 37 36h59q36 0 36 -36z" />
    <glyph glyph-name="yacute" unicode="&#xfd;" horiz-adv-x="584" 
d="M581 497l-166 -492q-28 -86 -89 -147.5t-161 -61.5q-23 0 -55 5l-13 101q59 14 94 36.5t54 61.5h-32q-21 0 -36.5 11.5t-21.5 31.5l-153 454h193l74 -296q6 -30 14 -85h11q7 26 20 85l74 296h193zM493 652l-242 -106l-51 76l219 149z" />
    <glyph glyph-name="thorn" unicode="&#xfe;" horiz-adv-x="608" 
d="M532 443q42 -66 42 -200q0 -99 -20.5 -155t-60.5 -79t-105 -23q-97 0 -159 42q5 -60 4 -104v-109h-182v885h182v-116q1 -37 -6 -133q61 58 167 58q96 0 138 -66zM358 120q15 10 22 38t7 84t-7 84.5t-21 38.5t-40 10q-24 0 -42.5 -7t-43.5 -22v-218q47 -18 83 -18
q27 0 42 10z" />
    <glyph glyph-name="ydieresis" unicode="&#xff;" horiz-adv-x="584" 
d="M581 497l-166 -492q-28 -86 -89 -147.5t-161 -61.5q-23 0 -55 5l-13 101q59 14 94 36.5t54 61.5h-32q-21 0 -36.5 11.5t-21.5 31.5l-153 454h193l74 -296q6 -30 14 -85h11q7 26 20 85l74 296h193zM267 681v-60q0 -37 -36 -37h-59q-36 0 -36 37v60q0 36 36 36h59
q36 0 36 -36zM453 681v-60q0 -37 -36 -37h-59q-37 0 -37 37v60q0 36 37 36h59q36 0 36 -36z" />
    <glyph glyph-name="Amacron" unicode="&#x100;" horiz-adv-x="668" 
d="M440 164h-212l-41 -164h-192l189 641q5 22 22.5 35.5t40.5 13.5h174q23 0 40.5 -13.5t23.5 -35.5l188 -641h-192zM406 300l-45 177q-11 52 -13 72h-27q-7 -38 -14 -72l-45 -177h144zM491 772h-310v110h310v-110z" />
    <glyph glyph-name="amacron" unicode="&#x101;" horiz-adv-x="580" 
d="M482 467.5q51 -43.5 51 -150.5v-317h-144l-17 73q-30 -37 -74 -61.5t-103 -24.5q-73 0 -120 37.5t-47 104.5v50q0 59 42.5 93t116.5 34h165v12q-1 32 -15.5 44.5t-53.5 12.5q-97 0 -213 -7l-16 118q55 10 135.5 17.5t136.5 7.5q105 0 156 -43.5zM255 115q45 0 97 35v61
h-104q-42 -1 -42 -39v-17q0 -40 49 -40zM451 602h-310v110h310v-110z" />
    <glyph glyph-name="Abreve" unicode="&#x102;" horiz-adv-x="668" 
d="M440 164h-212l-41 -164h-192l189 641q5 22 22.5 35.5t40.5 13.5h174q23 0 40.5 -13.5t23.5 -35.5l188 -641h-192zM406 300l-45 177q-11 52 -13 72h-27q-7 -38 -14 -72l-45 -177h144zM507 898q2 -14 2 -21q0 -39 -21.5 -71t-61 -51t-91.5 -19t-92 19t-61.5 51t-21.5 71
q0 7 2 21l85 12q0 -32 21 -47t67 -15t66.5 15t20.5 47z" />
    <glyph glyph-name="abreve" unicode="&#x103;" horiz-adv-x="580" 
d="M482 467.5q51 -43.5 51 -150.5v-317h-144l-17 73q-30 -37 -74 -61.5t-103 -24.5q-73 0 -120 37.5t-47 104.5v50q0 59 42.5 93t116.5 34h165v12q-1 32 -15.5 44.5t-53.5 12.5q-97 0 -213 -7l-16 118q55 10 135.5 17.5t136.5 7.5q105 0 156 -43.5zM255 115q45 0 97 35v61
h-104q-42 -1 -42 -39v-17q0 -40 49 -40zM468 728q2 -14 2 -21q0 -39 -21.5 -71t-61 -51t-91.5 -19t-92 19t-61.5 51t-21.5 71q0 7 2 21l85 12q0 -32 21 -47t67 -15t66.5 15t20.5 47z" />
    <glyph glyph-name="Aogonek" unicode="&#x104;" horiz-adv-x="668" 
d="M687 -192q-59 -22 -102 -22q-44 0 -67.5 21t-23.5 54q0 18 5 31q20 58 100 108h-118l-41 164h-212l-41 -164h-192l189 641q5 22 22.5 35.5t40.5 13.5h174q23 0 40.5 -13.5t23.5 -35.5l188 -641q-3 -5 -21 -33t-32 -60q-5 -10 -5 -20q0 -19 29 -19q8 0 30 4zM406 300
l-45 177q-11 52 -13 72h-27q-7 -38 -14 -72l-45 -177h144z" />
    <glyph glyph-name="aogonek" unicode="&#x105;" horiz-adv-x="580" 
d="M547 -192q-59 -22 -102 -22q-44 0 -67.5 21t-23.5 54q0 18 5 31q20 58 100 108h-70l-17 73q-30 -37 -74 -61.5t-103 -24.5q-73 0 -120 37.5t-47 104.5v50q0 59 42.5 93t116.5 34h165v12q-1 32 -15.5 44.5t-53.5 12.5q-97 0 -213 -7l-16 118q55 10 135.5 17.5t136.5 7.5
q105 0 156 -43.5t51 -150.5v-317q-3 -5 -21 -33t-32 -60q-5 -10 -5 -20q0 -19 29 -19q8 0 30 4zM255 115q45 0 97 35v61h-104q-42 -1 -42 -39v-17q0 -40 49 -40z" />
    <glyph glyph-name="Cacute" unicode="&#x106;" horiz-adv-x="596" 
d="M462 696.5q46 -5.5 97 -19.5l-14 -138q-102 3 -204 3q-42 0 -64.5 -17t-31.5 -59t-9 -121t9 -121t31.5 -59t64.5 -17q79 0 126 1.5t92 6.5l15 -137q-50 -17 -102.5 -24t-130.5 -7q-112 0 -177.5 34.5t-95 112t-29.5 210.5t29.5 210.5t95 112t177.5 34.5q75 0 121 -5.5z
M534 830l-242 -106l-51 76l219 149z" />
    <glyph glyph-name="cacute" unicode="&#x107;" horiz-adv-x="518" 
d="M395 503q54 -8 93 -26l-18 -113l-147 1q-39 0 -60.5 -10t-30.5 -34.5t-9 -71.5t9 -71.5t30.5 -34.5t60.5 -10q87 0 156 8l17 -115q-77 -38 -206 -38q-96 0 -152 25.5t-81 82t-25 153.5t25.5 154t81.5 82.5t153 25.5q49 0 103 -8zM482 652l-242 -106l-51 76l219 149z" />
    <glyph glyph-name="Ccircumflex" unicode="&#x108;" horiz-adv-x="596" 
d="M462 696.5q46 -5.5 97 -19.5l-14 -138q-102 3 -204 3q-42 0 -64.5 -17t-31.5 -59t-9 -121t9 -121t31.5 -59t64.5 -17q79 0 126 1.5t92 6.5l15 -137q-50 -17 -102.5 -24t-130.5 -7q-112 0 -177.5 34.5t-95 112t-29.5 210.5t29.5 210.5t95 112t177.5 34.5q75 0 121 -5.5z
M538 784l-45 -63l-151 94h-8l-153 -94l-46 69l138 132h131z" />
    <glyph glyph-name="ccircumflex" unicode="&#x109;" horiz-adv-x="518" 
d="M395 503q54 -8 93 -26l-18 -113l-147 1q-39 0 -60.5 -10t-30.5 -34.5t-9 -71.5t9 -71.5t30.5 -34.5t60.5 -10q87 0 156 8l17 -115q-77 -38 -206 -38q-96 0 -152 25.5t-81 82t-25 153.5t25.5 154t81.5 82.5t153 25.5q49 0 103 -8zM485 606l-45 -63l-151 94h-8l-153 -94
l-46 69l138 132h131z" />
    <glyph glyph-name="Cdotaccent" unicode="&#x10a;" horiz-adv-x="596" 
d="M462 696.5q46 -5.5 97 -19.5l-14 -138q-102 3 -204 3q-42 0 -64.5 -17t-31.5 -59t-9 -121t9 -121t31.5 -59t64.5 -17q79 0 126 1.5t92 6.5l15 -137q-50 -17 -102.5 -24t-130.5 -7q-112 0 -177.5 34.5t-95 112t-29.5 210.5t29.5 210.5t95 112t177.5 34.5q75 0 121 -5.5z
M417 852v-50q0 -50 -51 -50h-55q-52 0 -52 50v50q0 49 52 49h55q51 0 51 -49z" />
    <glyph glyph-name="cdotaccent" unicode="&#x10b;" horiz-adv-x="518" 
d="M395 503q54 -8 93 -26l-18 -113l-147 1q-39 0 -60.5 -10t-30.5 -34.5t-9 -71.5t9 -71.5t30.5 -34.5t60.5 -10q87 0 156 8l17 -115q-77 -38 -206 -38q-96 0 -152 25.5t-81 82t-25 153.5t25.5 154t81.5 82.5t153 25.5q49 0 103 -8zM364 674v-50q0 -50 -51 -50h-55
q-52 0 -52 50v50q0 49 52 49h55q51 0 51 -49z" />
    <glyph glyph-name="Ccaron" unicode="&#x10c;" horiz-adv-x="596" 
d="M462 696.5q46 -5.5 97 -19.5l-14 -138q-102 3 -204 3q-42 0 -64.5 -17t-31.5 -59t-9 -121t9 -121t31.5 -59t64.5 -17q79 0 126 1.5t92 6.5l15 -137q-50 -17 -102.5 -24t-130.5 -7q-112 0 -177.5 34.5t-95 112t-29.5 210.5t29.5 210.5t95 112t177.5 34.5q75 0 121 -5.5z
M532 869l-158 -131h-73l-159 131l46 69l145 -78h8l146 78z" />
    <glyph glyph-name="ccaron" unicode="&#x10d;" horiz-adv-x="518" 
d="M395 503q54 -8 93 -26l-18 -113l-147 1q-39 0 -60.5 -10t-30.5 -34.5t-9 -71.5t9 -71.5t30.5 -34.5t60.5 -10q87 0 156 8l17 -115q-77 -38 -206 -38q-96 0 -152 25.5t-81 82t-25 153.5t25.5 154t81.5 82.5t153 25.5q49 0 103 -8zM480 691l-158 -131h-73l-159 131l46 69
l145 -78h8l146 78z" />
    <glyph glyph-name="Dcaron" unicode="&#x10e;" horiz-adv-x="691" 
d="M526.5 668.5q66.5 -31.5 96 -108t29.5 -215.5t-29.5 -215.5t-96 -108t-183.5 -31.5q-145 0 -283 10v690q168 10 283 10q117 0 183.5 -31.5zM411.5 149.5q23.5 18.5 33 63.5t9.5 132t-9.5 132.5t-33 64t-68.5 18.5h-95v-428q29 -1 95 -1q45 0 68.5 18.5zM534 869
l-158 -131h-73l-159 131l46 69l145 -78h8l146 78z" />
    <glyph glyph-name="dcaron" unicode="&#x10f;" horiz-adv-x="608" 
d="M557 700v-700h-144l-15 77q-28 -41 -74 -65t-112 -24q-93 0 -135.5 67.5t-42.5 198.5q0 98 21 154.5t62.5 79.5t106.5 23q97 0 155 -44q-4 68 -4 107v126h182zM333 141q18 6 42 19v210q-26 8 -43 12t-40 4q-28 0 -42.5 -9t-21.5 -37t-7 -85q0 -51 7 -76.5t21 -34.5t39 -9
q27 0 45 6zM722.5 694.5q10.5 -11.5 10.5 -41.5l1 -53q0 -53 -11.5 -89t-36.5 -74l-58 18q12 40 14 110q-21 0 -32 12t-10 34l1 42q2 30 12.5 41.5t38.5 11.5h32q28 0 38.5 -11.5z" />
    <glyph glyph-name="Dcroat" unicode="&#x110;" horiz-adv-x="693" 
d="M528 668.5q66 -31.5 96 -108t30 -215.5t-30 -215.5t-96 -108t-183 -31.5q-144 0 -284 10v313h-50v92h50v285q170 10 284 10q117 0 183 -31.5zM412.5 149.5q23.5 18.5 33.5 63.5t10 132t-10 132.5t-33.5 64t-67.5 18.5h-96v-155h110v-92h-110v-181q29 -1 96 -1
q44 0 67.5 18.5z" />
    <glyph glyph-name="dcroat" unicode="&#x111;" horiz-adv-x="605" 
d="M614 553h-57v-553h-144l-15 77q-28 -41 -74 -65t-112 -24q-93 0 -135.5 67.5t-42.5 198.5q0 98 21 154.5t62.5 79.5t106.5 23q97 0 155 -44q-2 28 -4 86h-117v77h117v70h182v-70h57v-77zM333 141q18 6 42 19v210q-26 8 -43 12t-40 4q-28 0 -42.5 -9t-21.5 -37t-7 -85
q0 -51 7 -76.5t21 -34.5t39 -9q27 0 45 6z" />
    <glyph glyph-name="Emacron" unicode="&#x112;" horiz-adv-x="587" 
d="M545 143l9 -135q-65 -7 -144.5 -9t-197.5 -2q-71 0 -114 40.5t-43 107.5v400q0 67 43.5 107.5t113.5 40.5q118 0 197.5 -2t144.5 -9l-9 -135h-259q-43 0 -43 -43v-84h265v-129h-265v-105q0 -43 43 -43h259zM475 777h-310v110h310v-110z" />
    <glyph glyph-name="emacron" unicode="&#x113;" horiz-adv-x="576" 
d="M519 141l16 -111q-83 -42 -231 -42q-147 0 -209.5 62t-62.5 196q0 99 27 156.5t85 83t157 25.5q132 0 190 -44t58 -135q0 -68 -40 -99.5t-134 -31.5h-149q6 -41 27.5 -56.5t70.5 -15.5q91 0 195 12zM255 380.5q-16 -7.5 -23 -27t-9 -58.5h101q31 0 40.5 9.5t9.5 34.5
q0 29 -16 39t-58 10q-29 0 -45 -7.5zM460 596h-310v110h310v-110z" />
    <glyph glyph-name="Ebreve" unicode="&#x114;" horiz-adv-x="587" 
d="M545 143l9 -135q-65 -7 -144.5 -9t-197.5 -2q-71 0 -114 40.5t-43 107.5v400q0 67 43.5 107.5t113.5 40.5q118 0 197.5 -2t144.5 -9l-9 -135h-259q-43 0 -43 -43v-84h265v-129h-265v-105q0 -43 43 -43h259zM491 903q2 -14 2 -21q0 -39 -21.5 -71t-61 -51t-91.5 -19
t-92 19t-61.5 51t-21.5 71q0 7 2 21l85 12q0 -32 21 -47t67 -15t66.5 15t20.5 47z" />
    <glyph glyph-name="ebreve" unicode="&#x115;" horiz-adv-x="576" 
d="M519 141l16 -111q-83 -42 -231 -42q-147 0 -209.5 62t-62.5 196q0 99 27 156.5t85 83t157 25.5q132 0 190 -44t58 -135q0 -68 -40 -99.5t-134 -31.5h-149q6 -41 27.5 -56.5t70.5 -15.5q91 0 195 12zM255 380.5q-16 -7.5 -23 -27t-9 -58.5h101q31 0 40.5 9.5t9.5 34.5
q0 29 -16 39t-58 10q-29 0 -45 -7.5zM476 722q2 -14 2 -21q0 -39 -21.5 -71t-61 -51t-91.5 -19t-92 19t-61.5 51t-21.5 71q0 7 2 21l85 12q0 -32 21 -47t67 -15t66.5 15t20.5 47z" />
    <glyph glyph-name="Edotaccent" unicode="&#x116;" horiz-adv-x="587" 
d="M545 143l9 -135q-65 -7 -144.5 -9t-197.5 -2q-71 0 -114 40.5t-43 107.5v400q0 67 43.5 107.5t113.5 40.5q118 0 197.5 -2t144.5 -9l-9 -135h-259q-43 0 -43 -43v-84h265v-129h-265v-105q0 -43 43 -43h259zM399 854v-50q0 -50 -51 -50h-55q-52 0 -52 50v50q0 49 52 49h55
q51 0 51 -49z" />
    <glyph glyph-name="edotaccent" unicode="&#x117;" horiz-adv-x="576" 
d="M519 141l16 -111q-83 -42 -231 -42q-147 0 -209.5 62t-62.5 196q0 99 27 156.5t85 83t157 25.5q132 0 190 -44t58 -135q0 -68 -40 -99.5t-134 -31.5h-149q6 -41 27.5 -56.5t70.5 -15.5q91 0 195 12zM255 380.5q-16 -7.5 -23 -27t-9 -58.5h101q31 0 40.5 9.5t9.5 34.5
q0 29 -16 39t-58 10q-29 0 -45 -7.5zM383 673v-50q0 -50 -51 -50h-55q-52 0 -52 50v50q0 49 52 49h55q51 0 51 -49z" />
    <glyph glyph-name="Eogonek" unicode="&#x118;" horiz-adv-x="587" 
d="M568 -184q-59 -22 -102 -22q-44 0 -67.5 21t-23.5 54q0 18 5 31q18 53 90 101q-82 -4 -258 -4q-71 0 -114 40.5t-43 107.5v400q0 67 43.5 107.5t113.5 40.5q118 0 197.5 -2t144.5 -9l-9 -135h-259q-43 0 -43 -43v-84h265v-129h-265v-105q0 -43 43 -43h259l9 -135
q-3 -5 -21 -33t-32 -60q-5 -10 -5 -20q0 -19 29 -19q8 0 30 4z" />
    <glyph glyph-name="eogonek" unicode="&#x119;" horiz-adv-x="576" 
d="M550 -162q-59 -22 -102 -22q-44 0 -67.5 21t-23.5 54q0 18 5 31q11 36 53 73q-50 -7 -111 -7q-147 0 -209.5 62t-62.5 196q0 99 27 156.5t85 83t157 25.5q132 0 190 -44t58 -135q0 -68 -40 -99.5t-134 -31.5h-149q6 -41 27.5 -56.5t70.5 -15.5q91 0 195 12l16 -111h1
q-3 -5 -21 -33t-32 -60q-5 -10 -5 -20q0 -19 29 -19q8 0 30 4zM255 380.5q-16 -7.5 -23 -27t-9 -58.5h101q31 0 40.5 9.5t9.5 34.5q0 29 -16 39t-58 10q-29 0 -45 -7.5z" />
    <glyph glyph-name="Ecaron" unicode="&#x11a;" horiz-adv-x="587" 
d="M545 143l9 -135q-65 -7 -144.5 -9t-197.5 -2q-71 0 -114 40.5t-43 107.5v400q0 67 43.5 107.5t113.5 40.5q118 0 197.5 -2t144.5 -9l-9 -135h-259q-43 0 -43 -43v-84h265v-129h-265v-105q0 -43 43 -43h259zM514 872l-158 -131h-73l-159 131l46 69l145 -78h8l146 78z" />
    <glyph glyph-name="ecaron" unicode="&#x11b;" horiz-adv-x="576" 
d="M519 141l16 -111q-83 -42 -231 -42q-147 0 -209.5 62t-62.5 196q0 99 27 156.5t85 83t157 25.5q132 0 190 -44t58 -135q0 -68 -40 -99.5t-134 -31.5h-149q6 -41 27.5 -56.5t70.5 -15.5q91 0 195 12zM255 380.5q-16 -7.5 -23 -27t-9 -58.5h101q31 0 40.5 9.5t9.5 34.5
q0 29 -16 39t-58 10q-29 0 -45 -7.5zM499 691l-158 -131h-73l-159 131l46 69l145 -78h8l146 78z" />
    <glyph glyph-name="Gcircumflex" unicode="&#x11c;" horiz-adv-x="658" 
d="M613 397v-397h-138l-17 70q-30 -34 -80 -59t-114 -25q-79 0 -128.5 36.5t-73 115.5t-23.5 208q0 135 31 212.5t99.5 111.5t187.5 34q71 0 124 -6.5t106 -20.5l-15 -136q-108 3 -213 3q-50 0 -75.5 -15.5t-36.5 -57.5t-11 -127q0 -79 9 -121t30.5 -59t60.5 -17q48 0 97 17
v233h180zM546 787l-45 -63l-151 94h-8l-153 -94l-46 69l138 132h131z" />
    <glyph glyph-name="gcircumflex" unicode="&#x11d;" horiz-adv-x="593" 
d="M576 425l-57 -8q9 -28 9 -64q0 -58 -23.5 -92.5t-76.5 -50t-145 -15.5q-48 0 -80 4q-6 -9 -6 -20q0 -12 8.5 -21t26.5 -11l181 -16q81 -7 116.5 -43.5t35.5 -108.5q0 -68 -27.5 -103t-85.5 -48.5t-163 -13.5q-111 0 -170 14t-81.5 44.5t-22.5 86.5q0 37 17.5 61.5
t59.5 44.5q-26 26 -26 66q0 28 13 51.5t36 35.5q-42 18 -60.5 50t-18.5 84q0 58 24 92.5t78 50.5t146 16q88 0 138 -14h163zM343 311q16 11 16 42t-16 41.5t-60 10.5q-45 0 -61.5 -10.5t-16.5 -41.5t16.5 -42t61.5 -11q44 0 60 11zM378 8.5q-16 6.5 -63 10.5l-105 9
q-13 -10 -18.5 -19t-5.5 -24q0 -19 8.5 -28t29 -12t63.5 -3q45 0 67 3t31 11.5t9 24.5q0 21 -16 27.5zM487 599l-45 -63l-151 94h-8l-153 -94l-46 69l138 132h131z" />
    <glyph glyph-name="Gbreve" unicode="&#x11e;" horiz-adv-x="658" 
d="M613 397v-397h-138l-17 70q-30 -34 -80 -59t-114 -25q-79 0 -128.5 36.5t-73 115.5t-23.5 208q0 135 31 212.5t99.5 111.5t187.5 34q71 0 124 -6.5t106 -20.5l-15 -136q-108 3 -213 3q-50 0 -75.5 -15.5t-36.5 -57.5t-11 -127q0 -79 9 -121t30.5 -59t60.5 -17q48 0 97 17
v233h180zM518 904q2 -14 2 -21q0 -39 -21.5 -71t-61 -51t-91.5 -19t-92 19t-61.5 51t-21.5 71q0 7 2 21l85 12q0 -32 21 -47t67 -15t66.5 15t20.5 47z" />
    <glyph glyph-name="gbreve" unicode="&#x11f;" horiz-adv-x="593" 
d="M576 425l-57 -8q9 -28 9 -64q0 -58 -23.5 -92.5t-76.5 -50t-145 -15.5q-48 0 -80 4q-6 -9 -6 -20q0 -12 8.5 -21t26.5 -11l181 -16q81 -7 116.5 -43.5t35.5 -108.5q0 -68 -27.5 -103t-85.5 -48.5t-163 -13.5q-111 0 -170 14t-81.5 44.5t-22.5 86.5q0 37 17.5 61.5
t59.5 44.5q-26 26 -26 66q0 28 13 51.5t36 35.5q-42 18 -60.5 50t-18.5 84q0 58 24 92.5t78 50.5t146 16q88 0 138 -14h163zM343 311q16 11 16 42t-16 41.5t-60 10.5q-45 0 -61.5 -10.5t-16.5 -41.5t16.5 -42t61.5 -11q44 0 60 11zM378 8.5q-16 6.5 -63 10.5l-105 9
q-13 -10 -18.5 -19t-5.5 -24q0 -19 8.5 -28t29 -12t63.5 -3q45 0 67 3t31 11.5t9 24.5q0 21 -16 27.5zM459 715q2 -14 2 -21q0 -39 -21.5 -71t-61 -51t-91.5 -19t-92 19t-61.5 51t-21.5 71q0 7 2 21l85 12q0 -32 21 -47t67 -15t66.5 15t20.5 47z" />
    <glyph glyph-name="Gdotaccent" unicode="&#x120;" horiz-adv-x="658" 
d="M613 397v-397h-138l-17 70q-30 -34 -80 -59t-114 -25q-79 0 -128.5 36.5t-73 115.5t-23.5 208q0 135 31 212.5t99.5 111.5t187.5 34q71 0 124 -6.5t106 -20.5l-15 -136q-108 3 -213 3q-50 0 -75.5 -15.5t-36.5 -57.5t-11 -127q0 -79 9 -121t30.5 -59t60.5 -17q48 0 97 17
v233h180zM425 855v-50q0 -50 -51 -50h-55q-52 0 -52 50v50q0 49 52 49h55q51 0 51 -49z" />
    <glyph glyph-name="gdotaccent" unicode="&#x121;" horiz-adv-x="593" 
d="M576 425l-57 -8q9 -28 9 -64q0 -58 -23.5 -92.5t-76.5 -50t-145 -15.5q-48 0 -80 4q-6 -9 -6 -20q0 -12 8.5 -21t26.5 -11l181 -16q81 -7 116.5 -43.5t35.5 -108.5q0 -68 -27.5 -103t-85.5 -48.5t-163 -13.5q-111 0 -170 14t-81.5 44.5t-22.5 86.5q0 37 17.5 61.5
t59.5 44.5q-26 26 -26 66q0 28 13 51.5t36 35.5q-42 18 -60.5 50t-18.5 84q0 58 24 92.5t78 50.5t146 16q88 0 138 -14h163zM343 311q16 11 16 42t-16 41.5t-60 10.5q-45 0 -61.5 -10.5t-16.5 -41.5t16.5 -42t61.5 -11q44 0 60 11zM378 8.5q-16 6.5 -63 10.5l-105 9
q-13 -10 -18.5 -19t-5.5 -24q0 -19 8.5 -28t29 -12t63.5 -3q45 0 67 3t31 11.5t9 24.5q0 21 -16 27.5zM366 666v-50q0 -50 -51 -50h-55q-52 0 -52 50v50q0 49 52 49h55q51 0 51 -49z" />
    <glyph glyph-name="u0122" unicode="&#x122;" horiz-adv-x="658" 
d="M613 397v-397h-138l-17 70q-30 -34 -80 -59t-114 -25q-79 0 -128.5 36.5t-73 115.5t-23.5 208q0 135 31 212.5t99.5 111.5t187.5 34q71 0 124 -6.5t106 -20.5l-15 -136q-108 3 -213 3q-50 0 -75.5 -15.5t-36.5 -57.5t-11 -127q0 -79 9 -121t30.5 -59t60.5 -17q48 0 97 17
v233h180zM405 -60q12 -10 13 -38v-50q0 -50 -13.5 -84t-41.5 -69l-64 17q14 40 16 103q-46 0 -48 43l2 40q1 28 13 38t44 10h35q32 0 44 -10z" />
    <glyph glyph-name="u0123" unicode="&#x123;" horiz-adv-x="593" 
d="M237 559.5q-12 10.5 -12 38.5l-1 49q1 50 14 84.5t41 69.5l64 -17q-14 -40 -16 -103q46 0 48 -44l-2 -39q-1 -28 -13 -38.5t-44 -10.5h-35q-32 0 -44 10.5zM576 425l-57 -8q9 -28 9 -64q0 -58 -23.5 -92.5t-76.5 -50t-145 -15.5q-48 0 -80 4q-6 -9 -6 -20q0 -12 8.5 -21
t26.5 -11l181 -16q81 -7 116.5 -43.5t35.5 -108.5q0 -68 -27.5 -103t-85.5 -48.5t-163 -13.5q-111 0 -170 14t-81.5 44.5t-22.5 86.5q0 37 17.5 61.5t59.5 44.5q-26 26 -26 66q0 28 13 51.5t36 35.5q-42 18 -60.5 50t-18.5 84q0 58 24 92.5t78 50.5t146 16q88 0 138 -14h163
zM343 311q16 11 16 42t-16 41.5t-60 10.5q-45 0 -61.5 -10.5t-16.5 -41.5t16.5 -42t61.5 -11q44 0 60 11zM378 8.5q-16 6.5 -63 10.5l-105 9q-13 -10 -18.5 -19t-5.5 -24q0 -19 8.5 -28t29 -12t63.5 -3q45 0 67 3t31 11.5t9 24.5q0 21 -16 27.5z" />
    <glyph glyph-name="Hcircumflex" unicode="&#x124;" horiz-adv-x="702" 
d="M642 690v-690h-188v298h-206v-298h-187v690h187v-255h206v255h188zM550 787l-45 -63l-151 94h-8l-153 -94l-46 69l138 132h131z" />
    <glyph glyph-name="hcircumflex" unicode="&#x125;" horiz-adv-x="611" 
d="M526.5 475.5q36.5 -35.5 36.5 -103.5v-372h-182v315q0 24 -9 33t-32 9q-24 0 -48.5 -6t-58.5 -20v-331h-182v700h182l1 -159q0 -57 -10 -107q48 38 98 57.5t97 19.5q71 0 107.5 -35.5zM342 763l-45 -63l-151 94h-8l-153 -94l-46 69l138 132h131z" />
    <glyph glyph-name="Hbar" unicode="&#x126;" horiz-adv-x="705" 
d="M698 510h-55v-510h-188v298h-205v-298h-188v510h-54v84h54v96h188v-96h205v96h188v-96h55v-84zM455 510h-205v-75h205v75z" />
    <glyph glyph-name="hbar" unicode="&#x127;" horiz-adv-x="614" 
d="M529.5 475.5q36.5 -35.5 36.5 -103.5v-372h-182v315q0 24 -9 33t-32 9q-24 0 -48.5 -6t-58.5 -20v-331h-182v553h-59v77h59v70h182v-70h115v-77h-114v-12q0 -56 -10 -108q48 38 98 58t97 20q71 0 107.5 -35.5z" />
    <glyph glyph-name="Itilde" unicode="&#x128;" horiz-adv-x="308" 
d="M247 0h-186v690h186v-690zM103 901.5q23 -6.5 52 -16.5q42 -16 64 -20q4 -1 11 -1q15 0 18.5 8.5t3.5 32.5h76q4 -23 4 -46q0 -54 -24 -83t-63 -27q-26 2 -48 8t-57 19q-37 15 -61 19q-4 1 -11 1q-14 0 -17.5 -9t-3.5 -33h-76q-4 21 -4 45q0 56 25.5 84.5t61.5 26.5
q26 -2 49 -8.5z" />
    <glyph glyph-name="itilde" unicode="&#x129;" horiz-adv-x="293" 
d="M238 0h-183v497h183v-497zM94 723.5q23 -6.5 52 -16.5q42 -16 64 -20q4 -1 11 -1q15 0 18.5 8.5t3.5 32.5h76q4 -23 4 -46q0 -54 -24 -83t-63 -27q-26 2 -48 8t-57 19q-37 15 -61 19q-4 1 -11 1q-14 0 -17.5 -9t-3.5 -33h-76q-4 21 -4 45q0 56 25.5 84.5t61.5 26.5
q26 -2 49 -8.5z" />
    <glyph glyph-name="Imacron" unicode="&#x12a;" horiz-adv-x="308" 
d="M247 0h-186v690h186v-690zM310 774h-310v110h310v-110z" />
    <glyph glyph-name="imacron" unicode="&#x12b;" horiz-adv-x="293" 
d="M238 0h-183v497h183v-497zM300 596h-310v110h310v-110z" />
    <glyph glyph-name="Ibreve" unicode="&#x12c;" horiz-adv-x="308" 
d="M247 0h-186v690h186v-690zM326 901q2 -14 2 -21q0 -39 -21.5 -71t-61 -51t-91.5 -19t-92 19t-61.5 51t-21.5 71q0 7 2 21l85 12q0 -32 21 -47t67 -15t66.5 15t20.5 47z" />
    <glyph glyph-name="ibreve" unicode="&#x12d;" horiz-adv-x="293" 
d="M238 0h-183v497h183v-497zM317 723q2 -14 2 -21q0 -39 -21.5 -71t-61 -51t-91.5 -19t-92 19t-61.5 51t-21.5 71q0 7 2 21l85 12q0 -32 21 -47t67 -15t66.5 15t20.5 47z" />
    <glyph glyph-name="Iogonek" unicode="&#x12e;" horiz-adv-x="308" 
d="M203 -33q-18 -28 -32 -60q-5 -10 -5 -20q0 -19 29 -19q8 0 30 4l13 -64q-59 -22 -102 -22q-44 0 -67.5 21t-23.5 54q0 18 5 31q20 58 100 108h-89v690h186v-690h-23q-3 -5 -21 -33z" />
    <glyph glyph-name="iogonek" unicode="&#x12f;" horiz-adv-x="293" 
d="M66 624v50q0 49 52 49h55q51 0 51 -49v-50q0 -50 -51 -50h-55q-52 0 -52 50zM200 -33q-18 -28 -32 -60q-5 -10 -5 -20q0 -19 29 -19q8 0 30 4l13 -64q-59 -22 -102 -22q-44 0 -67.5 21t-23.5 54q0 18 5 31q20 58 100 108h-92v497h183v-497h-17q-3 -5 -21 -33z" />
    <glyph glyph-name="Idotaccent" unicode="&#x130;" horiz-adv-x="308" 
d="M247 0h-186v690h186v-690zM234 852v-50q0 -50 -51 -50h-55q-52 0 -52 50v50q0 49 52 49h55q51 0 51 -49z" />
    <glyph glyph-name="dotlessi" unicode="&#x131;" horiz-adv-x="293" 
d="M238 0h-183v497h183v-497z" />
    <glyph glyph-name="IJ" unicode="&#x132;" horiz-adv-x="696" 
d="M247 0h-186v690h186v-690zM638 135q0 -71 -45 -109.5t-125 -38.5q-34 0 -79 6.5t-66 16.5l20 121h47q32 0 47 10.5t15 32.5v516h186v-555z" />
    <glyph glyph-name="ij" unicode="&#x133;" horiz-adv-x="583" 
d="M237 667v-52q0 -53 -52 -53h-79q-53 0 -53 53v52q0 54 53 54h79q52 0 52 -54zM236 0h-181v497h181v-497zM527 675v-53q0 -53 -52 -53h-79q-52 0 -52 53v53q0 53 52 53h79q52 0 52 -53zM528 42q0 -75 -39.5 -139.5t-106.5 -95.5l-100 80q36 37 50.5 73.5t14.5 81.5v455
h181v-455z" />
    <glyph glyph-name="Jcircumflex" unicode="&#x134;" horiz-adv-x="388" 
d="M330 135q0 -71 -45 -109.5t-125 -38.5q-34 0 -79 6.5t-66 16.5l20 121h47q32 0 47 10.5t15 32.5v516h186v-555zM440 784l-45 -63l-151 94h-8l-153 -94l-46 69l138 132h131z" />
    <glyph glyph-name="jcircumflex" unicode="&#x135;" horiz-adv-x="292" 
d="M237 42q0 -75 -39.5 -139.5t-106.5 -95.5l-100 80q36 37 50.5 73.5t14.5 81.5v455h181v-455zM346 606l-45 -63l-151 94h-8l-153 -94l-46 69l138 132h131z" />
    <glyph glyph-name="u0136" unicode="&#x136;" horiz-adv-x="656" 
d="M658 0h-208l-162 295h-48q8 -35 8 -64v-231h-187v690h187v-183q0 -41 -8 -86h47l158 269h202l-167 -272q-21 -37 -56 -59v-3q16 -9 34.5 -27.5t29.5 -37.5zM401.5 -60.5q12.5 -10.5 12.5 -37.5v-50q0 -50 -13 -84.5t-41 -68.5l-64 17q15 42 15 103q-47 0 -47 43l2 40
q1 28 13 38t44 10h34q32 0 44.5 -10.5z" />
    <glyph glyph-name="u0137" unicode="&#x137;" horiz-adv-x="585" 
d="M588 0h-201l-125 222h-36q7 -45 7 -74v-148h-182v700h182v-278q0 -51 -7 -94h37l107 169h200l-115 -167q-10 -16 -25 -31.5t-27 -22.5v-4q10 -5 26 -23.5t26 -36.5zM361 -52.5q12 -10.5 13 -38.5v-50q0 -49 -13.5 -84t-41.5 -69l-64 17q14 40 16 103q-46 0 -48 43l2 40
q1 28 13 38.5t44 10.5h35q32 0 44 -10.5z" />
    <glyph glyph-name="kgreenlandic" unicode="&#x138;" horiz-adv-x="585" 
d="M265 198h-39q7 -45 7 -74v-124h-182v497h182v-99q0 -51 -7 -94h34l110 193h200l-115 -183q-11 -17 -26 -32t-27 -22v-4q16 -8 53 -60l133 -196h-201z" />
    <glyph glyph-name="Lacute" unicode="&#x139;" horiz-adv-x="546" 
d="M246 193q0 -43 47 -43h234l9 -141q-65 -8 -137 -10t-180 -2q-77 0 -119 41.5t-42 110.5v541h188v-497zM344 830l-242 -106l-51 76l219 149z" />
    <glyph glyph-name="lacute" unicode="&#x13a;" horiz-adv-x="344" 
d="M233 173q0 -22 13 -32.5t40 -10.5h36l21 -120q-19 -11 -60 -17t-74 -6q-73 0 -115 36.5t-42 101.5v575h181v-527zM340 833l-242 -106l-51 76l219 149z" />
    <glyph glyph-name="u013B" unicode="&#x13b;" horiz-adv-x="546" 
d="M246 193q0 -43 47 -43h234l9 -141q-65 -8 -137 -10t-180 -2q-77 0 -119 41.5t-42 110.5v541h188v-497zM356 -60q12 -10 12 -38v-50q0 -50 -13 -84.5t-41 -68.5l-64 17q15 42 15 103q-47 0 -47 43l2 40q1 28 13 38t44 10h35q32 0 44 -10z" />
    <glyph glyph-name="u013C" unicode="&#x13c;" horiz-adv-x="344" 
d="M233 173q0 -22 13 -32.5t40 -10.5h36l21 -120q-19 -11 -60 -17t-74 -6q-73 0 -115 36.5t-42 101.5v575h181v-527zM248 -60q12 -10 13 -38v-50q0 -50 -13 -84.5t-41 -68.5l-64 17q13 41 15 103q-46 0 -48 43l2 40q2 28 14 38t43 10h35q32 0 44 -10z" />
    <glyph glyph-name="Lcaron" unicode="&#x13d;" horiz-adv-x="546" 
d="M246 193q0 -43 47 -43h234l9 -141q-65 -8 -137 -10t-180 -2q-77 0 -119 41.5t-42 110.5v541h188v-497zM468.5 678.5q10.5 -11.5 10.5 -41.5l1 -53q0 -53 -11.5 -89t-36.5 -74l-58 18q12 40 14 110q-21 0 -32 12t-10 34l1 42q2 30 12.5 41.5t38.5 11.5h32q28 0 38.5 -11.5
z" />
    <glyph glyph-name="lcaron" unicode="&#x13e;" horiz-adv-x="344" 
d="M233 173q0 -22 13 -32.5t40 -10.5h36l21 -120q-19 -11 -60 -17t-74 -6q-73 0 -115 36.5t-42 101.5v575h181v-527zM397.5 692.5q10.5 -11.5 10.5 -41.5l1 -53q0 -53 -11.5 -89t-36.5 -74l-58 18q12 40 14 110q-21 0 -32 12t-10 34l1 42q2 30 12.5 41.5t38.5 11.5h32
q28 0 38.5 -11.5z" />
    <glyph glyph-name="Ldot" unicode="&#x13f;" horiz-adv-x="546" 
d="M246 193q0 -43 47 -43h234l9 -141q-65 -8 -137 -10t-180 -2q-77 0 -119 41.5t-42 110.5v541h188v-497zM321 387v49q0 26 12.5 38t38.5 12h55q51 0 51 -50v-49q0 -50 -51 -50h-55q-51 0 -51 50z" />
    <glyph glyph-name="ldot" unicode="&#x140;" horiz-adv-x="437" 
d="M233 173q0 -22 13 -32.5t40 -10.5h36l21 -120q-19 -11 -60 -17t-74 -6q-73 0 -115 36.5t-42 101.5v575h181v-527zM281 366v50q0 49 51 49h55q51 0 51 -49v-50q0 -49 -51 -49h-55q-51 0 -51 49z" />
    <glyph glyph-name="Lslash" unicode="&#x141;" horiz-adv-x="548" 
d="M538 9q-65 -8 -137 -10t-180 -2q-77 0 -119 41.5t-42 110.5v147l-50 -19v94l50 19v300h188v-226l106 41v-94l-106 -41v-177q0 -43 47 -43h234z" />
    <glyph glyph-name="lslash" unicode="&#x142;" horiz-adv-x="375" 
d="M369 10q-18 -11 -59.5 -17t-73.5 -6q-73 0 -115 36.5t-42 101.5v171l-71 -28v94l71 28v310h181v-239l89 35v-94l-89 -35v-194q0 -22 13 -32.5t40 -10.5h36z" />
    <glyph glyph-name="Nacute" unicode="&#x143;" horiz-adv-x="731" 
d="M671 66q0 -66 -65 -66h-89q-27 0 -42 12.5t-31 42.5l-164 296q-27 51 -45 113h-8q8 -62 8 -118v-346h-175v624q0 32 17 49t49 17h88q27 0 41.5 -12.5t31.5 -42.5l158 -285q25 -45 52 -115h8q-7 72 -7 121l-1 334h174v-624zM574 830l-242 -106l-51 76l219 149z" />
    <glyph glyph-name="nacute" unicode="&#x144;" horiz-adv-x="611" 
d="M526.5 475.5q36.5 -35.5 36.5 -103.5v-372h-182v315q0 24 -9 33t-32 9t-47.5 -6t-59.5 -20v-331h-182v497h145l15 -73q51 43 104 65t104 22q71 0 107.5 -35.5zM507 652l-242 -106l-51 76l219 149z" />
    <glyph glyph-name="u0145" unicode="&#x145;" horiz-adv-x="731" 
d="M671 66q0 -66 -65 -66h-89q-27 0 -42 12.5t-31 42.5l-164 296q-27 51 -45 113h-8q8 -62 8 -118v-346h-175v624q0 32 17 49t49 17h88q27 0 41.5 -12.5t31.5 -42.5l158 -285q25 -45 52 -115h8q-7 72 -7 121l-1 334h174v-624zM431 -60q12 -10 12 -38l1 -50q-1 -50 -14 -84.5
t-41 -68.5l-64 17q14 40 16 103q-46 0 -48 43l2 40q1 28 13 38t44 10h35q32 0 44 -10z" />
    <glyph glyph-name="u0146" unicode="&#x146;" horiz-adv-x="611" 
d="M526.5 475.5q36.5 -35.5 36.5 -103.5v-372h-182v315q0 24 -9 33t-32 9t-47.5 -6t-59.5 -20v-331h-182v497h145l15 -73q51 43 104 65t104 22q71 0 107.5 -35.5zM358.5 -52.5q12.5 -10.5 12.5 -38.5v-50q0 -50 -13 -84.5t-41 -68.5l-64 17q15 42 15 103q-23 0 -35 11
t-12 32l2 40q1 28 13 38.5t44 10.5h34q32 0 44.5 -10.5z" />
    <glyph glyph-name="Ncaron" unicode="&#x147;" horiz-adv-x="731" 
d="M671 66q0 -66 -65 -66h-89q-27 0 -42 12.5t-31 42.5l-164 296q-27 51 -45 113h-8q8 -62 8 -118v-346h-175v624q0 32 17 49t49 17h88q27 0 41.5 -12.5t31.5 -42.5l158 -285q25 -45 52 -115h8q-7 72 -7 121l-1 334h174v-624zM572 869l-158 -131h-73l-159 131l46 69l145 -78
h8l146 78z" />
    <glyph glyph-name="ncaron" unicode="&#x148;" horiz-adv-x="611" 
d="M526.5 475.5q36.5 -35.5 36.5 -103.5v-372h-182v315q0 24 -9 33t-32 9t-47.5 -6t-59.5 -20v-331h-182v497h145l15 -73q51 43 104 65t104 22q71 0 107.5 -35.5zM506 691l-158 -131h-73l-159 131l46 69l145 -78h8l146 78z" />
    <glyph glyph-name="Eng" unicode="&#x14a;" horiz-adv-x="732" 
d="M671 -43q0 -77 -39 -120.5t-104 -43.5q-31 0 -68.5 6t-62.5 17l20 118h38q52 0 52 38v35h-13q-14 0 -41 47l-173 292q-12 20 -24 52t-22 61h-7q8 -61 8 -112v-347h-175v624q0 32 17 49t49 17h81q27 0 42.5 -12.5t32.5 -42.5l163 -280q28 -51 51 -115h8q-8 64 -8 119v331
h175v-733z" />
    <glyph glyph-name="eng" unicode="&#x14b;" horiz-adv-x="611" 
d="M526.5 475.5q36.5 -35.5 36.5 -103.5v-406q0 -78 -39 -120.5t-110 -42.5q-33 0 -74.5 6t-63.5 17l20 117h38q47 0 47 39v333q0 22 -9 31t-33 9q-41 0 -106 -25v-330h-182v497h142l16 -74q51 44 105 66t105 22q71 0 107.5 -35.5z" />
    <glyph glyph-name="Omacron" unicode="&#x14c;" 
d="M532 672.5q66 -31.5 96 -109t30 -218.5t-30 -218.5t-96 -109t-184 -31.5t-184 31.5t-95.5 109t-29.5 218.5t29.5 218.5t95.5 109t184 31.5t184 -31.5zM279 541.5q-24 -18.5 -33.5 -64t-9.5 -132.5t9.5 -132.5t33.5 -64t69 -18.5t69 18.5t33.5 64t9.5 132.5t-9.5 132.5
t-33.5 64t-69 18.5t-69 -18.5zM504 774h-310v110h310v-110z" />
    <glyph glyph-name="omacron" unicode="&#x14d;" horiz-adv-x="600" 
d="M457 485q58 -26 84.5 -83t26.5 -154t-26 -153t-84.5 -81.5t-157.5 -25.5t-157 25.5t-84.5 82t-26.5 152.5q0 97 26.5 154t84.5 83t157 26t157 -26zM252 372q-16 -11 -22.5 -39t-6.5 -85q0 -56 6.5 -84t22.5 -38.5t48 -10.5t48 10.5t22.5 38.5t6.5 84t-6.5 84.5
t-22.5 39.5t-48 11t-48 -11zM457 587h-310v110h310v-110z" />
    <glyph glyph-name="Obreve" unicode="&#x14e;" 
d="M532 672.5q66 -31.5 96 -109t30 -218.5t-30 -218.5t-96 -109t-184 -31.5t-184 31.5t-95.5 109t-29.5 218.5t29.5 218.5t95.5 109t184 31.5t184 -31.5zM279 541.5q-24 -18.5 -33.5 -64t-9.5 -132.5t9.5 -132.5t33.5 -64t69 -18.5t69 18.5t33.5 64t9.5 132.5t-9.5 132.5
t-33.5 64t-69 18.5t-69 -18.5zM520 901q2 -14 2 -21q0 -39 -21.5 -71t-61 -51t-91.5 -19t-92 19t-61.5 51t-21.5 71q0 7 2 21l85 12q0 -32 21 -47t67 -15t66.5 15t20.5 47z" />
    <glyph glyph-name="obreve" unicode="&#x14f;" horiz-adv-x="600" 
d="M457 485q58 -26 84.5 -83t26.5 -154t-26 -153t-84.5 -81.5t-157.5 -25.5t-157 25.5t-84.5 82t-26.5 152.5q0 97 26.5 154t84.5 83t157 26t157 -26zM252 372q-16 -11 -22.5 -39t-6.5 -85q0 -56 6.5 -84t22.5 -38.5t48 -10.5t48 10.5t22.5 38.5t6.5 84t-6.5 84.5
t-22.5 39.5t-48 11t-48 -11zM473 714q2 -14 2 -21q0 -39 -21.5 -71t-61 -51t-91.5 -19t-92 19t-61.5 51t-21.5 71q0 7 2 21l85 12q0 -32 21 -47t67 -15t66.5 15t20.5 47z" />
    <glyph glyph-name="Ohungarumlaut" unicode="&#x150;" 
d="M532 672.5q66 -31.5 96 -109t30 -218.5t-30 -218.5t-96 -109t-184 -31.5t-184 31.5t-95.5 109t-29.5 218.5t29.5 218.5t95.5 109t184 31.5t184 -31.5zM279 541.5q-24 -18.5 -33.5 -64t-9.5 -132.5t9.5 -132.5t33.5 -64t69 -18.5t69 18.5t33.5 64t9.5 132.5t-9.5 132.5
t-33.5 64t-69 18.5t-69 -18.5zM392 885l-161 -172l-73 58l119 190zM595 885l-162 -172l-71 57l119 191z" />
    <glyph glyph-name="ohungarumlaut" unicode="&#x151;" horiz-adv-x="600" 
d="M457 485q58 -26 84.5 -83t26.5 -154t-26 -153t-84.5 -81.5t-157.5 -25.5t-157 25.5t-84.5 82t-26.5 152.5q0 97 26.5 154t84.5 83t157 26t157 -26zM252 372q-16 -11 -22.5 -39t-6.5 -85q0 -56 6.5 -84t22.5 -38.5t48 -10.5t48 10.5t22.5 38.5t6.5 84t-6.5 84.5
t-22.5 39.5t-48 11t-48 -11zM345 698l-161 -172l-73 58l119 190zM548 698l-162 -172l-71 57l119 191z" />
    <glyph glyph-name="OE" unicode="&#x152;" horiz-adv-x="965" 
d="M923 143l9 -135q-64 -7 -143 -9t-196 -2q-45 0 -81 22q-37 -17 -77 -25t-90 -8q-116 0 -181.5 31.5t-95 109t-29.5 218.5t29.5 218.5t95 109t181.5 31.5q100 0 177 -28q34 17 74 17q116 0 194.5 -2t141.5 -9l-9 -135h-244q-45 0 -45 -43v-87h254v-122h-254v-109
q0 -43 45 -43h244zM246.5 212.5q9.5 -45.5 32 -64t66.5 -18.5q62 0 100 11v8v392v10q-38 9 -100 9q-44 0 -66.5 -18.5t-32 -64t-9.5 -132.5t9.5 -132.5z" />
    <glyph glyph-name="oe" unicode="&#x153;" horiz-adv-x="907" 
d="M849 139l17 -111q-83 -41 -228 -41q-108 0 -170 36q-60 -35 -171 -35q-98 0 -155.5 25.5t-83.5 81.5t-26 153t26 154t83.5 83t155.5 26q110 0 170 -35q57 33 166 33q130 0 188 -43t58 -128q1 -51 -16.5 -80.5t-57.5 -43t-110 -13.5h-136q7 -42 28.5 -57.5t71.5 -15.5
q84 0 190 11zM589 380q-16 -7 -23 -26.5t-9 -59.5h95q32 0 42 8t10 34q0 30 -15 40.5t-53 10.5q-31 0 -47 -7zM342 123.5q16 8.5 23.5 31t9.5 64.5q-1 9 -1 26q0 20 1 30q-2 44 -9 67t-22.5 32t-44.5 9q-31 0 -47 -11t-22 -39t-6 -85q0 -56 6 -84t21 -38.5t46 -10.5
q29 0 45 8.5z" />
    <glyph glyph-name="Racute" unicode="&#x154;" horiz-adv-x="661" 
d="M641 0h-197l-49 208q-7 30 -21.5 41t-43.5 11h-85v-260h-185v690q63 6 118 8t161 2q100 0 159 -19t87.5 -64t28.5 -125q0 -72 -31.5 -115.5t-104.5 -51.5v-6q87 -14 106 -106zM390 404q19 7 27 24.5t8 51.5t-8 51.5t-27 24.5t-55 7h-90v-166h90q36 0 55 7zM519 830
l-242 -106l-51 76l219 149z" />
    <glyph glyph-name="racute" unicode="&#x155;" horiz-adv-x="440" 
d="M434 511l-16 -167h-48q-50 0 -137 -21v-323h-182v497h142l16 -73q98 87 198 87h27zM425 652l-242 -106l-51 76l219 149z" />
    <glyph glyph-name="u0156" unicode="&#x156;" horiz-adv-x="661" 
d="M641 0h-197l-49 208q-7 30 -21.5 41t-43.5 11h-85v-260h-185v690q63 6 118 8t161 2q100 0 159 -19t87.5 -64t28.5 -125q0 -72 -31.5 -115.5t-104.5 -51.5v-6q87 -14 106 -106zM390 404q19 7 27 24.5t8 51.5t-8 51.5t-27 24.5t-55 7h-90v-166h90q36 0 55 7zM403.5 -60.5
q12.5 -10.5 12.5 -37.5v-50q0 -50 -13 -84.5t-41 -68.5l-64 17q15 42 15 103q-47 0 -47 43l2 40q1 28 13 38t44 10h34q32 0 44.5 -10.5z" />
    <glyph glyph-name="u0157" unicode="&#x157;" horiz-adv-x="440" 
d="M434 511l-16 -167h-48q-50 0 -137 -21v-323h-182v497h142l16 -73q98 87 198 87h27zM192.5 -52.5q12.5 -10.5 12.5 -38.5v-50q0 -50 -13 -84.5t-41 -68.5l-64 17q15 42 15 103q-23 0 -35 11t-12 32l2 40q1 28 13 38.5t44 10.5h34q32 0 44.5 -10.5z" />
    <glyph glyph-name="Rcaron" unicode="&#x158;" horiz-adv-x="661" 
d="M641 0h-197l-49 208q-7 30 -21.5 41t-43.5 11h-85v-260h-185v690q63 6 118 8t161 2q100 0 159 -19t87.5 -64t28.5 -125q0 -72 -31.5 -115.5t-104.5 -51.5v-6q87 -14 106 -106zM390 404q19 7 27 24.5t8 51.5t-8 51.5t-27 24.5t-55 7h-90v-166h90q36 0 55 7zM517 869
l-158 -131h-73l-159 131l46 69l145 -78h8l146 78z" />
    <glyph glyph-name="rcaron" unicode="&#x159;" horiz-adv-x="440" 
d="M434 511l-16 -167h-48q-50 0 -137 -21v-323h-182v497h142l16 -73q98 87 198 87h27zM423 691l-158 -131h-73l-159 131l46 69l145 -78h8l146 78z" />
    <glyph glyph-name="Sacute" unicode="&#x15a;" horiz-adv-x="597" 
d="M545 672l-12 -123q-23 0 -36 1q-114 2 -194 2q-48 0 -64.5 -8t-16.5 -35q0 -23 14 -35.5t52 -25.5l127 -49q83 -33 117 -81t34 -126q0 -79 -25.5 -123t-83 -63t-161.5 -19q-132 0 -253 30l11 133l36 -1q204 -4 205 -4q50 0 66.5 8.5t16.5 34.5q0 24 -11.5 35t-43.5 23
l-138 55q-81 33 -115 80.5t-34 124.5q0 79 26.5 121.5t83.5 59t159 16.5q145 0 240 -31zM499 830l-242 -106l-51 76l219 149z" />
    <glyph glyph-name="sacute" unicode="&#x15b;" horiz-adv-x="541" 
d="M381 504.5q69 -5.5 114 -14.5l-11 -110q-72 1 -211 1q-32 0 -44.5 -1t-17.5 -5.5t-5 -14.5q0 -12 8 -16.5t33 -11.5l20 -5l120 -32q68 -19 98 -51.5t30 -95.5q0 -62 -23.5 -96.5t-74 -48.5t-137.5 -14q-127 0 -242 19l11 110l175 -1q52 0 75 2t31.5 7t8.5 17
q0 11 -8 15.5t-34 12.5l-25 7l-116 32q-73 21 -99.5 57.5t-26.5 99.5q0 74 50.5 109t171.5 35q60 -1 129 -6.5zM472 645l-242 -106l-51 76l219 149z" />
    <glyph glyph-name="Scircumflex" unicode="&#x15c;" horiz-adv-x="597" 
d="M545 672l-12 -123q-23 0 -36 1q-114 2 -194 2q-48 0 -64.5 -8t-16.5 -35q0 -23 14 -35.5t52 -25.5l127 -49q83 -33 117 -81t34 -126q0 -79 -25.5 -123t-83 -63t-161.5 -19q-132 0 -253 30l11 133l36 -1q204 -4 205 -4q50 0 66.5 8.5t16.5 34.5q0 24 -11.5 35t-43.5 23
l-138 55q-81 33 -115 80.5t-34 124.5q0 79 26.5 121.5t83.5 59t159 16.5q145 0 240 -31zM502 784l-45 -63l-151 94h-8l-153 -94l-46 69l138 132h131z" />
    <glyph glyph-name="scircumflex" unicode="&#x15d;" horiz-adv-x="541" 
d="M381 504.5q69 -5.5 114 -14.5l-11 -110q-72 1 -211 1q-32 0 -44.5 -1t-17.5 -5.5t-5 -14.5q0 -12 8 -16.5t33 -11.5l20 -5l120 -32q68 -19 98 -51.5t30 -95.5q0 -62 -23.5 -96.5t-74 -48.5t-137.5 -14q-127 0 -242 19l11 110l175 -1q52 0 75 2t31.5 7t8.5 17
q0 11 -8 15.5t-34 12.5l-25 7l-116 32q-73 21 -99.5 57.5t-26.5 99.5q0 74 50.5 109t171.5 35q60 -1 129 -6.5zM475 599l-45 -63l-151 94h-8l-153 -94l-46 69l138 132h131z" />
    <glyph glyph-name="Scedilla" unicode="&#x15e;" horiz-adv-x="597" 
d="M545 672l-12 -123q-23 0 -36 1q-114 2 -194 2q-48 0 -64.5 -8t-16.5 -35q0 -23 14 -35.5t52 -25.5l127 -49q83 -33 117 -81t34 -126q0 -79 -25.5 -123t-83 -63t-161.5 -19q-132 0 -253 30l11 133l36 -1q204 -4 205 -4q50 0 66.5 8.5t16.5 34.5q0 24 -11.5 35t-43.5 23
l-138 55q-81 33 -115 80.5t-34 124.5q0 79 26.5 121.5t83.5 59t159 16.5q145 0 240 -31zM320 -41q42 0 61 -13.5t19 -49.5q0 -73 -48.5 -113t-127.5 -40q-21 0 -42 3l20 72q38 0 61 11.5t26 42.5q1 8 -3.5 11t-21 3.5t-42.5 0.5l17 66q64 6 81 6z" />
    <glyph glyph-name="scedilla" unicode="&#x15f;" horiz-adv-x="541" 
d="M381 504.5q69 -5.5 114 -14.5l-11 -110q-72 1 -211 1q-32 0 -44.5 -1t-17.5 -5.5t-5 -14.5q0 -12 8 -16.5t33 -11.5l20 -5l120 -32q68 -19 98 -51.5t30 -95.5q0 -62 -23.5 -96.5t-74 -48.5t-137.5 -14q-127 0 -242 19l11 110l175 -1q52 0 75 2t31.5 7t8.5 17
q0 11 -8 15.5t-34 12.5l-25 7l-116 32q-73 21 -99.5 57.5t-26.5 99.5q0 74 50.5 109t171.5 35q60 -1 129 -6.5zM278 -44q42 0 61 -13.5t19 -49.5q0 -73 -48.5 -113t-127.5 -40q-21 0 -42 3l20 72q38 0 61 11.5t26 42.5q1 8 -3.5 11t-21 3.5t-42.5 0.5l17 66q64 6 81 6z" />
    <glyph glyph-name="Scaron" unicode="&#x160;" horiz-adv-x="597" 
d="M545 672l-12 -123q-23 0 -36 1q-114 2 -194 2q-48 0 -64.5 -8t-16.5 -35q0 -23 14 -35.5t52 -25.5l127 -49q83 -33 117 -81t34 -126q0 -79 -25.5 -123t-83 -63t-161.5 -19q-132 0 -253 30l11 133l36 -1q204 -4 205 -4q50 0 66.5 8.5t16.5 34.5q0 24 -11.5 35t-43.5 23
l-138 55q-81 33 -115 80.5t-34 124.5q0 79 26.5 121.5t83.5 59t159 16.5q145 0 240 -31zM497 869l-158 -131h-73l-159 131l46 69l145 -78h8l146 78z" />
    <glyph glyph-name="scaron" unicode="&#x161;" horiz-adv-x="541" 
d="M381 504.5q69 -5.5 114 -14.5l-11 -110q-72 1 -211 1q-32 0 -44.5 -1t-17.5 -5.5t-5 -14.5q0 -12 8 -16.5t33 -11.5l20 -5l120 -32q68 -19 98 -51.5t30 -95.5q0 -62 -23.5 -96.5t-74 -48.5t-137.5 -14q-127 0 -242 19l11 110l175 -1q52 0 75 2t31.5 7t8.5 17
q0 11 -8 15.5t-34 12.5l-25 7l-116 32q-73 21 -99.5 57.5t-26.5 99.5q0 74 50.5 109t171.5 35q60 -1 129 -6.5zM470 684l-158 -131h-73l-159 131l46 69l145 -78h8l146 78z" />
    <glyph glyph-name="u0162" unicode="&#x162;" horiz-adv-x="613" 
d="M599 545h-199v-545h-188v545h-198v145h585v-145zM319 -43q42 0 61 -13.5t19 -49.5q0 -73 -48.5 -113t-127.5 -40q-21 0 -42 3l20 72q38 0 61 11.5t26 42.5q1 8 -3.5 11t-21 3.5t-42.5 0.5l17 66q64 6 81 6z" />
    <glyph glyph-name="u0163" unicode="&#x163;" horiz-adv-x="426" 
d="M282 383v-210q0 -24 10.5 -33.5t36.5 -9.5h58l20 -120q-27 -11 -73.5 -17t-82.5 -6q-71 0 -111 37t-40 104l-1 255h-85v109l85 4v135h183v-134h128v-114h-128zM281 -40q42 0 61 -13.5t19 -49.5q0 -73 -48.5 -113t-127.5 -40q-21 0 -42 3l20 72q38 0 61 11.5t26 42.5
q1 8 -3.5 11t-21 3.5t-42.5 0.5l17 66q64 6 81 6z" />
    <glyph glyph-name="Tcaron" unicode="&#x164;" horiz-adv-x="613" 
d="M599 545h-199v-545h-188v545h-198v145h585v-145zM501 869l-158 -131h-73l-159 131l46 69l145 -78h8l146 78z" />
    <glyph glyph-name="tcaron" unicode="&#x165;" horiz-adv-x="426" 
d="M282 383v-210q0 -24 10.5 -33.5t36.5 -9.5h58l20 -120q-27 -11 -73.5 -17t-82.5 -6q-71 0 -111 37t-40 104l-1 255h-85v109l85 4v135h183v-134h128v-114h-128zM433.5 791.5q10.5 -11.5 10.5 -41.5l1 -53q0 -53 -11.5 -89t-36.5 -74l-58 18q12 40 14 110q-21 0 -32 12
t-10 34l1 42q2 30 12.5 41.5t38.5 11.5h32q28 0 38.5 -11.5z" />
    <glyph glyph-name="Tbar" unicode="&#x166;" horiz-adv-x="616" 
d="M402 545v-145h121v-84h-121v-316h-188v316h-122v84h122v145h-199v145h586v-145h-199z" />
    <glyph glyph-name="tbar" unicode="&#x167;" horiz-adv-x="426" 
d="M282 383v-72h92v-84h-92v-54q0 -24 10.5 -33.5t36.5 -9.5h58l20 -120q-27 -11 -73.5 -17t-82.5 -6q-71 0 -111 37t-40 104v99h-58v84h58l-1 72h-85v109l85 4v135h183v-134h128v-114h-128z" />
    <glyph glyph-name="Utilde" unicode="&#x168;" horiz-adv-x="694" 
d="M639 280q0 -109 -27.5 -172.5t-88.5 -92.5t-166 -29q-112 0 -177.5 29t-95 92.5t-29.5 172.5v410h188v-410q0 -60 9.5 -92t31.5 -45t63 -13t63 13t31.5 45t9.5 92v410h188v-410zM298 901.5q23 -6.5 52 -16.5q42 -16 64 -20q4 -1 11 -1q15 0 18.5 8.5t3.5 32.5h76
q4 -23 4 -46q0 -54 -24 -83t-63 -27q-26 2 -48 8t-57 19q-37 15 -61 19q-4 1 -11 1q-14 0 -17.5 -9t-3.5 -33h-76q-4 21 -4 45q0 56 25.5 84.5t61.5 26.5q26 -2 49 -8.5z" />
    <glyph glyph-name="utilde" unicode="&#x169;" horiz-adv-x="604" 
d="M553 497v-497h-144l-15 71q-51 -43 -100 -64t-102 -21q-71 0 -107.5 35.5t-36.5 103.5v372h182v-315q0 -23 10 -33t34 -10q21 0 42.5 5.5t53.5 19.5v333h183zM250 724.5q23 -6.5 52 -16.5q42 -16 64 -20q4 -1 11 -1q15 0 18.5 8.5t3.5 32.5h76q4 -23 4 -46q0 -54 -24 -83
t-63 -27q-26 2 -48 8t-57 19q-37 15 -61 19q-4 1 -11 1q-14 0 -17.5 -9t-3.5 -33h-76q-4 21 -4 45q0 56 25.5 84.5t61.5 26.5q26 -2 49 -8.5z" />
    <glyph glyph-name="Umacron" unicode="&#x16a;" horiz-adv-x="694" 
d="M639 280q0 -109 -27.5 -172.5t-88.5 -92.5t-166 -29q-112 0 -177.5 29t-95 92.5t-29.5 172.5v410h188v-410q0 -60 9.5 -92t31.5 -45t63 -13t63 13t31.5 45t9.5 92v410h188v-410zM504 774h-310v110h310v-110z" />
    <glyph glyph-name="umacron" unicode="&#x16b;" horiz-adv-x="604" 
d="M553 497v-497h-144l-15 71q-51 -43 -100 -64t-102 -21q-71 0 -107.5 35.5t-36.5 103.5v372h182v-315q0 -23 10 -33t34 -10q21 0 42.5 5.5t53.5 19.5v333h183zM456 597h-310v110h310v-110z" />
    <glyph glyph-name="Ubreve" unicode="&#x16c;" horiz-adv-x="694" 
d="M639 280q0 -109 -27.5 -172.5t-88.5 -92.5t-166 -29q-112 0 -177.5 29t-95 92.5t-29.5 172.5v410h188v-410q0 -60 9.5 -92t31.5 -45t63 -13t63 13t31.5 45t9.5 92v410h188v-410zM520 901q2 -14 2 -21q0 -39 -21.5 -71t-61 -51t-91.5 -19t-92 19t-61.5 51t-21.5 71
q0 7 2 21l85 12q0 -32 21 -47t67 -15t66.5 15t20.5 47z" />
    <glyph glyph-name="ubreve" unicode="&#x16d;" horiz-adv-x="604" 
d="M553 497v-497h-144l-15 71q-51 -43 -100 -64t-102 -21q-71 0 -107.5 35.5t-36.5 103.5v372h182v-315q0 -23 10 -33t34 -10q21 0 42.5 5.5t53.5 19.5v333h183zM473 724q2 -14 2 -21q0 -39 -21.5 -71t-61 -51t-91.5 -19t-92 19t-61.5 51t-21.5 71q0 7 2 21l85 12
q0 -32 21 -47t67 -15t66.5 15t20.5 47z" />
    <glyph glyph-name="Uring" unicode="&#x16e;" horiz-adv-x="694" 
d="M639 280q0 -109 -27.5 -172.5t-88.5 -92.5t-166 -29q-112 0 -177.5 29t-95 92.5t-29.5 172.5v410h188v-410q0 -60 9.5 -92t31.5 -45t63 -13t63 13t31.5 45t9.5 92v410h188v-410zM409.5 941q28.5 -16 45.5 -43.5t17 -60.5q0 -51 -36.5 -86t-87.5 -35t-87.5 35t-36.5 86
q0 33 17 60.5t45.5 43.5t61.5 16t61.5 -16zM314.5 871q-13.5 -14 -13.5 -34q0 -21 13.5 -34.5t33.5 -13.5t33.5 13.5t13.5 34.5q0 20 -13.5 34t-33.5 14t-33.5 -14z" />
    <glyph glyph-name="uring" unicode="&#x16f;" horiz-adv-x="604" 
d="M553 497v-497h-144l-15 71q-51 -43 -100 -64t-102 -21q-71 0 -107.5 35.5t-36.5 103.5v372h182v-315q0 -23 10 -33t34 -10q21 0 42.5 5.5t53.5 19.5v333h183zM362.5 763q28.5 -16 45.5 -43.5t17 -60.5q0 -51 -36.5 -86t-87.5 -35t-87.5 35t-36.5 86q0 33 17 60.5
t45.5 43.5t61.5 16t61.5 -16zM267.5 693q-13.5 -14 -13.5 -34q0 -21 13.5 -34.5t33.5 -13.5t33.5 13.5t13.5 34.5q0 20 -13.5 34t-33.5 14t-33.5 -14z" />
    <glyph glyph-name="Uhungarumlaut" unicode="&#x170;" horiz-adv-x="694" 
d="M639 280q0 -109 -27.5 -172.5t-88.5 -92.5t-166 -29q-112 0 -177.5 29t-95 92.5t-29.5 172.5v410h188v-410q0 -60 9.5 -92t31.5 -45t63 -13t63 13t31.5 45t9.5 92v410h188v-410zM393 885l-161 -172l-73 58l119 190zM596 885l-162 -172l-71 57l119 191z" />
    <glyph glyph-name="uhungarumlaut" unicode="&#x171;" horiz-adv-x="604" 
d="M553 497v-497h-144l-15 71q-51 -43 -100 -64t-102 -21q-71 0 -107.5 35.5t-36.5 103.5v372h182v-315q0 -23 10 -33t34 -10q21 0 42.5 5.5t53.5 19.5v333h183zM345 708l-161 -172l-73 58l119 190zM548 708l-162 -172l-71 57l119 191z" />
    <glyph glyph-name="Uogonek" unicode="&#x172;" horiz-adv-x="694" 
d="M639 690v-410q0 -102 -24 -164.5t-77.5 -93t-143.5 -35.5q-4 -6 -19 -30.5t-27 -51.5q-5 -10 -5 -20q0 -19 29 -19q8 0 30 4l13 -64q-59 -22 -102 -22q-44 0 -67.5 21t-23.5 54q0 18 5 31q18 51 84 97q-94 6 -150 37t-81 93t-25 163v410h188v-410q0 -60 9.5 -92t31.5 -45
t63 -13t63 13t31.5 45t9.5 92v410h188z" />
    <glyph glyph-name="uogonek" unicode="&#x173;" horiz-adv-x="604" 
d="M568 -192q-59 -22 -102 -22q-44 0 -67.5 21t-23.5 54q0 18 5 31q20 58 100 108h-71l-15 71q-51 -43 -100 -64t-102 -21q-71 0 -107.5 35.5t-36.5 103.5v372h182v-315q0 -23 10 -33t34 -10q21 0 42.5 5.5t53.5 19.5v333h183v-497h1q-3 -5 -21 -33t-32 -60q-5 -10 -5 -20
q0 -19 29 -19q8 0 30 4z" />
    <glyph glyph-name="Wcircumflex" unicode="&#x174;" horiz-adv-x="989" 
d="M870 51q-4 -23 -22 -37t-43 -14h-167q-25 0 -43.5 14t-21.5 37l-60 413q-6 46 -9 95h-18q-6 -68 -10 -96l-59 -412q-3 -23 -21.5 -37t-43.5 -14h-168q-24 0 -42.5 14t-22.5 37l-96 639h187l50 -448q5 -50 6 -109h18l16 109l58 392q3 25 21 40.5t44 15.5h144
q25 0 43 -15.5t21 -40.5l59 -393l4 -27q7 -50 11 -81h18q1 44 7 107l49 450h188zM696 784l-45 -63l-151 94h-8l-153 -94l-46 69l138 132h131z" />
    <glyph glyph-name="wcircumflex" unicode="&#x175;" horiz-adv-x="863" 
d="M741 47q-5 -22 -21.5 -34.5t-39.5 -12.5h-133q-24 0 -42 15t-21 39l-38 251q-4 25 -7 61q0 7 -2 25h-12q-5 -49 -10 -86l-38 -251q-3 -24 -21 -39t-42 -15h-131q-23 0 -39.5 12.5t-21.5 34.5l-110 450h181l50 -299q8 -59 10 -85h12q3 24 11 85l38 246q3 23 20.5 38
t41.5 15h110q24 0 41.5 -15t20.5 -39l37 -245q1 -11 5 -31l7 -54h12q6 56 11 85l49 299h182zM633 599l-45 -63l-151 94h-8l-153 -94l-46 69l138 132h131z" />
    <glyph glyph-name="Ycircumflex" unicode="&#x176;" horiz-adv-x="633" 
d="M411 221v-221h-188v219l-228 471h194l99 -233q13 -30 23 -93h12q1 6 7 37.5t16 55.5l99 233h193zM518 781l-45 -63l-151 94h-8l-153 -94l-46 69l138 132h131z" />
    <glyph glyph-name="ycircumflex" unicode="&#x177;" horiz-adv-x="584" 
d="M581 497l-166 -492q-28 -86 -89 -147.5t-161 -61.5q-23 0 -55 5l-13 101q59 14 94 36.5t54 61.5h-32q-21 0 -36.5 11.5t-21.5 31.5l-153 454h193l74 -296q6 -30 14 -85h11q7 26 20 85l74 296h193zM497 606l-45 -63l-151 94h-8l-153 -94l-46 69l138 132h131z" />
    <glyph glyph-name="Ydieresis" unicode="&#x178;" horiz-adv-x="633" 
d="M411 221v-221h-188v219l-228 471h194l99 -233q13 -30 23 -93h12q1 6 7 37.5t16 55.5l99 233h193zM289 856v-60q0 -37 -36 -37h-59q-36 0 -36 37v60q0 36 36 36h59q36 0 36 -36zM475 856v-60q0 -37 -36 -37h-59q-37 0 -37 37v60q0 36 37 36h59q36 0 36 -36z" />
    <glyph glyph-name="Zacute" unicode="&#x179;" horiz-adv-x="595" 
d="M562 136v-136h-528v136l312 418h-303v136h510v-136l-311 -418h320zM495 830l-242 -106l-51 76l219 149z" />
    <glyph glyph-name="zacute" unicode="&#x17a;" horiz-adv-x="534" 
d="M500 122v-122h-466v122l250 253h-245v122h455v-122l-250 -253h256zM472 652l-242 -106l-51 76l219 149z" />
    <glyph glyph-name="Zdotaccent" unicode="&#x17b;" horiz-adv-x="595" 
d="M562 136v-136h-528v136l312 418h-303v136h510v-136l-311 -418h320zM377 852v-50q0 -50 -51 -50h-55q-52 0 -52 50v50q0 49 52 49h55q51 0 51 -49z" />
    <glyph glyph-name="zdotaccent" unicode="&#x17c;" horiz-adv-x="534" 
d="M500 122v-122h-466v122l250 253h-245v122h455v-122l-250 -253h256zM355 674v-50q0 -50 -51 -50h-55q-52 0 -52 50v50q0 49 52 49h55q51 0 51 -49z" />
    <glyph glyph-name="Zcaron" unicode="&#x17d;" horiz-adv-x="595" 
d="M562 136v-136h-528v136l312 418h-303v136h510v-136l-311 -418h320zM493 869l-158 -131h-73l-159 131l46 69l145 -78h8l146 78z" />
    <glyph glyph-name="zcaron" unicode="&#x17e;" horiz-adv-x="534" 
d="M500 122v-122h-466v122l250 253h-245v122h455v-122l-250 -253h256zM470 691l-158 -131h-73l-159 131l46 69l145 -78h8l146 78z" />
    <glyph glyph-name="u018F" unicode="&#x18f;" horiz-adv-x="663" 
d="M494 667q69 -36 99.5 -114t30.5 -209t-29 -208.5t-92.5 -112.5t-170.5 -35q-151 0 -223.5 59.5t-72.5 169.5q0 91 46.5 141t131.5 50h228q-2 61 -12.5 93t-40 47t-89.5 15q-115 0 -226 -16l-14 118q49 19 115.5 28.5t131.5 9.5q118 0 187 -36zM394.5 144.5
q24.5 14.5 34.5 46t12 88.5h-157q-66 0 -66 -65q0 -44 23.5 -64t82.5 -20q46 0 70.5 14.5z" />
    <glyph glyph-name="florin" unicode="&#x192;" horiz-adv-x="497" 
d="M355.5 565q-11.5 -12 -14.5 -45l-10 -112h105l-10 -114h-105l-27 -308q-15 -158 -182 -158q-31 0 -74.5 3t-68.5 9l27 114h62q28 0 40 12.5t15 44.5l25 283h-93l8 109l95 5l12 137q15 158 184 158q31 0 74 -3t68 -9l-27 -114h-64q-28 0 -39.5 -12z" />
    <glyph glyph-name="Ohorn" unicode="&#x1a0;" horiz-adv-x="718" 
d="M712.5 623q-33.5 -39 -88.5 -51q34 -76 34 -227q0 -141 -30 -218.5t-96 -109t-184 -31.5t-184 31.5t-95.5 109t-29.5 218.5t29.5 218.5t95.5 109t184 31.5q80 0 134.5 -14t90.5 -45q29 7 45 29t18 54l111 -5q-1 -61 -34.5 -100zM417 148.5q24 18.5 33.5 64t9.5 132.5
t-9.5 132.5t-33.5 64t-69 18.5t-69 -18.5t-33.5 -64t-9.5 -132.5t9.5 -132.5t33.5 -64t69 -18.5t69 18.5z" />
    <glyph glyph-name="ohorn" unicode="&#x1a1;" horiz-adv-x="635" 
d="M630.5 444.5q-31.5 -38.5 -84.5 -51.5q22 -56 22 -145q0 -97 -26 -153t-84.5 -81.5t-157.5 -25.5t-157 25.5t-84.5 82t-26.5 152.5q0 97 26.5 154t84.5 83t157 26q130 0 192 -46q27 8 42.5 29.5t17.5 52.5l111 -5q-1 -59 -32.5 -97.5zM348 125.5q16 10.5 22.5 38.5
t6.5 84t-6.5 84.5t-22.5 39.5t-48 11t-48 -11t-22.5 -39t-6.5 -85q0 -56 6.5 -84t22.5 -38.5t48 -10.5t48 10.5z" />
    <glyph glyph-name="Uhorn" unicode="&#x1af;" horiz-adv-x="763" 
d="M756 610q-46 -41 -117 -42v-288q0 -109 -27.5 -172.5t-88.5 -92.5t-166 -29q-112 0 -177.5 29t-95 92.5t-29.5 172.5v410h188v-410q0 -60 9.5 -92t31.5 -45t63 -13t63 13t31.5 45t9.5 92v410h188v-42q48 20 53 80l111 -5q-1 -72 -47 -113z" />
    <glyph glyph-name="uhorn" unicode="&#x1b0;" horiz-adv-x="679" 
d="M669.5 429.5q-45.5 -40.5 -116.5 -42.5v-387h-144l-15 71q-51 -43 -100 -64t-102 -21q-71 0 -107.5 35.5t-36.5 103.5v372h182v-315q0 -23 10 -33t34 -10q21 0 42.5 5.5t53.5 19.5v333h183v-29q24 9 37.5 29.5t15.5 49.5l110 -5q-1 -72 -46.5 -112.5z" />
    <glyph glyph-name="u01C4" unicode="&#x1c4;" horiz-adv-x="1280" 
d="M526.5 668.5q66.5 -31.5 96 -108t29.5 -215.5t-29.5 -215.5t-96 -108t-183.5 -31.5q-145 0 -283 10v690q168 10 283 10q117 0 183.5 -31.5zM411.5 149.5q23.5 18.5 33 63.5t9.5 132t-9.5 132.5t-33 64t-68.5 18.5h-95v-428q29 -1 95 -1q45 0 68.5 18.5zM1247 136v-136
h-528v136l312 418h-303v136h510v-136l-311 -418h320zM1178 869l-158 -131h-73l-159 131l46 69l145 -78h8l146 78z" />
    <glyph glyph-name="u01C5" unicode="&#x1c5;" horiz-adv-x="1225" 
d="M526.5 668.5q66.5 -31.5 96 -108t29.5 -215.5t-29.5 -215.5t-96 -108t-183.5 -31.5q-145 0 -283 10v690q168 10 283 10q117 0 183.5 -31.5zM411.5 149.5q23.5 18.5 33 63.5t9.5 132t-9.5 132.5t-33 64t-68.5 18.5h-95v-428q29 -1 95 -1q45 0 68.5 18.5zM1191 122v-122
h-466v122l250 253h-245v122h455v-122l-250 -253h256zM1162 691l-158 -131h-73l-159 131l46 69l145 -78h8l146 78z" />
    <glyph glyph-name="u01C6" unicode="&#x1c6;" horiz-adv-x="1142" 
d="M557 700v-700h-144l-15 77q-28 -41 -74 -65t-112 -24q-93 0 -135.5 67.5t-42.5 198.5q0 98 21 154.5t62.5 79.5t106.5 23q97 0 155 -44q-4 68 -4 107v126h182zM333 141q18 6 42 19v210q-26 8 -43 12t-40 4q-28 0 -42.5 -9t-21.5 -37t-7 -85q0 -51 7 -76.5t21 -34.5t39 -9
q27 0 45 6zM1108 122v-122h-466v122l250 253h-245v122h455v-122l-250 -253h256zM1078 691l-158 -131h-73l-159 131l46 69l145 -78h8l146 78z" />
    <glyph glyph-name="u01C7" unicode="&#x1c7;" horiz-adv-x="934" 
d="M246 193q0 -43 47 -43h234l9 -141q-65 -8 -137 -10t-180 -2q-77 0 -119 41.5t-42 110.5v541h188v-497zM876 135q0 -71 -45 -109.5t-125 -38.5q-34 0 -79 6.5t-66 16.5l20 121h47q32 0 47 10.5t15 32.5v516h186v-555z" />
    <glyph glyph-name="u01C8" unicode="&#x1c8;" horiz-adv-x="838" 
d="M246 193q0 -43 47 -43h234l9 -141q-65 -8 -137 -10t-180 -2q-77 0 -119 41.5t-42 110.5v541h188v-497zM782 675v-53q0 -53 -52 -53h-79q-52 0 -52 53v53q0 53 52 53h79q52 0 52 -53zM783 42q0 -75 -39.5 -139.5t-106.5 -95.5l-100 80q36 37 50.5 73.5t14.5 81.5v455h181
v-455z" />
    <glyph glyph-name="u01C9" unicode="&#x1c9;" horiz-adv-x="636" 
d="M233 173q0 -22 13 -32.5t40 -10.5h36l21 -120q-19 -11 -60 -17t-74 -6q-73 0 -115 36.5t-42 101.5v575h181v-527zM580 675v-53q0 -53 -52 -53h-79q-52 0 -52 53v53q0 53 52 53h79q52 0 52 -53zM581 42q0 -75 -39.5 -139.5t-106.5 -95.5l-100 80q36 37 50.5 73.5
t14.5 81.5v455h181v-455z" />
    <glyph glyph-name="u01CA" unicode="&#x1ca;" horiz-adv-x="1119" 
d="M671 66q0 -66 -65 -66h-89q-27 0 -42 12.5t-31 42.5l-164 296q-27 51 -45 113h-8q8 -62 8 -118v-346h-175v624q0 32 17 49t49 17h88q27 0 41.5 -12.5t31.5 -42.5l158 -285q25 -45 52 -115h8q-7 72 -7 121l-1 334h174v-624zM1061 135q0 -71 -45 -109.5t-125 -38.5
q-34 0 -79 6.5t-66 16.5l20 121h47q32 0 47 10.5t15 32.5v516h186v-555z" />
    <glyph glyph-name="u01CB" unicode="&#x1cb;" horiz-adv-x="1023" 
d="M671 66q0 -66 -65 -66h-89q-27 0 -42 12.5t-31 42.5l-164 296q-27 51 -45 113h-8q8 -62 8 -118v-346h-175v624q0 32 17 49t49 17h88q27 0 41.5 -12.5t31.5 -42.5l158 -285q25 -45 52 -115h8q-7 72 -7 121l-1 334h174v-624zM967 675v-53q0 -53 -52 -53h-79q-52 0 -52 53
v53q0 53 52 53h79q52 0 52 -53zM968 42q0 -75 -39.5 -139.5t-106.5 -95.5l-100 80q36 37 50.5 73.5t14.5 81.5v455h181v-455z" />
    <glyph glyph-name="u01CC" unicode="&#x1cc;" horiz-adv-x="903" 
d="M526.5 475.5q36.5 -35.5 36.5 -103.5v-372h-182v315q0 24 -9 33t-32 9t-47.5 -6t-59.5 -20v-331h-182v497h145l15 -73q51 43 104 65t104 22q71 0 107.5 -35.5zM847 675v-53q0 -53 -52 -53h-79q-52 0 -52 53v53q0 53 52 53h79q52 0 52 -53zM848 42q0 -75 -39.5 -139.5
t-106.5 -95.5l-100 80q36 37 50.5 73.5t14.5 81.5v455h181v-455z" />
    <glyph glyph-name="Gcaron" unicode="&#x1e6;" horiz-adv-x="658" 
d="M613 397v-397h-138l-17 70q-30 -34 -80 -59t-114 -25q-79 0 -128.5 36.5t-73 115.5t-23.5 208q0 135 31 212.5t99.5 111.5t187.5 34q71 0 124 -6.5t106 -20.5l-15 -136q-108 3 -213 3q-50 0 -75.5 -15.5t-36.5 -57.5t-11 -127q0 -79 9 -121t30.5 -59t60.5 -17q48 0 97 17
v233h180zM541 872l-158 -131h-73l-159 131l46 69l145 -78h8l146 78z" />
    <glyph glyph-name="gcaron" unicode="&#x1e7;" horiz-adv-x="593" 
d="M576 425l-57 -8q9 -28 9 -64q0 -58 -23.5 -92.5t-76.5 -50t-145 -15.5q-48 0 -80 4q-6 -9 -6 -20q0 -12 8.5 -21t26.5 -11l181 -16q81 -7 116.5 -43.5t35.5 -108.5q0 -68 -27.5 -103t-85.5 -48.5t-163 -13.5q-111 0 -170 14t-81.5 44.5t-22.5 86.5q0 37 17.5 61.5
t59.5 44.5q-26 26 -26 66q0 28 13 51.5t36 35.5q-42 18 -60.5 50t-18.5 84q0 58 24 92.5t78 50.5t146 16q88 0 138 -14h163zM343 311q16 11 16 42t-16 41.5t-60 10.5q-45 0 -61.5 -10.5t-16.5 -41.5t16.5 -42t61.5 -11q44 0 60 11zM378 8.5q-16 6.5 -63 10.5l-105 9
q-13 -10 -18.5 -19t-5.5 -24q0 -19 8.5 -28t29 -12t63.5 -3q45 0 67 3t31 11.5t9 24.5q0 21 -16 27.5zM482 684l-158 -131h-73l-159 131l46 69l145 -78h8l146 78z" />
    <glyph glyph-name="u01EA" unicode="&#x1ea;" 
d="M347 -93q-5 -10 -5 -20q0 -19 29 -19q8 0 30 4l13 -64q-59 -22 -102 -22q-44 0 -67.5 21t-23.5 54q0 18 5 31q17 50 80 95q-100 5 -157.5 39.5t-83.5 110t-26 208.5q0 141 29.5 218.5t95.5 109t184 31.5t184 -31.5t96 -109t30 -218.5q0 -132 -26 -207.5t-83 -110.5
t-157 -40q-30 -47 -45 -80zM245.5 212.5q9.5 -45.5 33.5 -64t69 -18.5t69 18.5t33.5 64t9.5 132.5t-9.5 132.5t-33.5 64t-69 18.5t-69 -18.5t-33.5 -64t-9.5 -132.5t9.5 -132.5z" />
    <glyph glyph-name="u01EB" unicode="&#x1eb;" horiz-adv-x="600" 
d="M292 -92q-5 -10 -5 -20q0 -19 29 -19q8 0 30 4l13 -64q-59 -22 -102 -22q-44 0 -67.5 21t-23.5 54q0 18 5 31q18 51 83 96q-81 6 -129.5 33.5t-70.5 82t-22 143.5q0 97 26.5 154t84.5 83t157 26t157 -26t84.5 -83t26.5 -154q0 -90 -23 -145t-73 -82t-135 -32
q-29 -45 -45 -81zM229.5 164q6.5 -28 22.5 -38.5t48 -10.5t48 10.5t22.5 38.5t6.5 84t-6.5 84.5t-22.5 39.5t-48 11t-48 -11t-22.5 -39t-6.5 -85q0 -56 6.5 -84z" />
    <glyph glyph-name="Aringacute" unicode="&#x1fa;" horiz-adv-x="668" 
d="M237 895l-50 75l209 143l73 -118zM228 838.5q17 27.5 45.5 43.5t61.5 16q51 0 87.5 -35t36.5 -85q0 -51 -36.5 -86t-87.5 -35t-87.5 35t-36.5 86q0 33 17 60.5zM368.5 812q-13.5 14 -33.5 14q-19 0 -32.5 -14t-13.5 -34q0 -21 13.5 -34.5t32.5 -13.5q20 0 33.5 13.5
t13.5 34.5q0 20 -13.5 34zM436 155h-204l-45 -155h-192l189 581q7 23 24 36t39 13h174q22 0 39 -13t25 -36l188 -581h-192zM397 291l-36 126q-9 31 -13 72h-27q-1 -9 -5 -32t-9 -40l-36 -126h126z" />
    <glyph glyph-name="aringacute" unicode="&#x1fb;" horiz-adv-x="580" 
d="M187 777l-50 75l210 143l73 -118zM208.5 743.5q36.5 35.5 87.5 35.5q33 0 61.5 -16.5t45.5 -44t17 -60.5t-17 -60.5t-45.5 -43.5t-61.5 -16q-51 0 -87.5 35t-36.5 85t36.5 85.5zM328.5 692q-13.5 14 -32.5 14q-20 0 -33.5 -14t-13.5 -34t13.5 -33.5t33.5 -13.5
q19 0 32.5 13.5t13.5 33.5t-13.5 34zM482 467.5q51 -43.5 51 -150.5v-317h-144l-17 73q-30 -37 -74 -61.5t-103 -24.5q-73 0 -120 37.5t-47 104.5v50q0 59 42.5 93t116.5 34h165v12q-1 32 -15.5 44.5t-53.5 12.5q-97 0 -213 -7l-16 118q55 10 135.5 17.5t136.5 7.5
q105 0 156 -43.5zM255 115q45 0 97 35v61h-104q-42 -1 -42 -39v-17q0 -40 49 -40z" />
    <glyph glyph-name="AEacute" unicode="&#x1fc;" horiz-adv-x="944" 
d="M901 141l9 -133q-68 -7 -143 -9t-187 -2q-64 0 -101.5 41t-37.5 107v29h-185l-79 -174h-192l263 545q26 56 61 87t97 45.5t167 14.5q109 0 183.5 -2t153.5 -8l-9 -133h-240q-20 0 -32.5 -12.5t-12.5 -31.5v-88h250v-122h-250v-111q0 -43 45 -43h240zM441 307v205
q0 16 5.5 33.5t13.5 30.5h-13q-10 -11 -31 -48l-100 -221h125zM763 839l-241 -105l-51 75l219 150z" />
    <glyph glyph-name="aeacute" unicode="&#x1fd;" horiz-adv-x="881" 
d="M823 141l17 -111q-83 -42 -228 -42q-88 0 -144.5 22.5t-86.5 69.5q-30 -39 -76.5 -66t-112.5 -27q-71 0 -117.5 37.5t-46.5 104.5v50q0 58 41.5 91.5t114.5 33.5h160v14q0 32 -14.5 44.5t-51.5 12.5q-96 0 -209 -7l-16 118q53 10 133.5 17.5t134.5 7.5q83 0 131 -26
q58 26 157 26q130 0 187 -43.5t57 -132.5q1 -70 -38.5 -102t-134.5 -32h-149q7 -41 29 -56.5t73 -15.5q89 0 190 12zM561.5 380.5q-16.5 -7.5 -24 -27t-9.5 -58.5h101q31 0 40 9.5t9 34.5q0 30 -14.5 39.5t-54.5 9.5q-31 0 -47.5 -7.5zM300.5 125q26.5 10 51.5 28
q-7 30 -8 57l-97 1q-41 -1 -41 -39v-17q0 -40 46 -40q22 0 48.5 10zM656 669l-241 -105l-51 75l219 150z" />
    <glyph glyph-name="Oslashacute" unicode="&#x1fe;" 
d="M628.5 561q29.5 -77 29.5 -216q0 -141 -30 -218.5t-96 -109t-184 -31.5q-77 0 -130 13l-31 -67l-57 26l29 62q-64 34 -92 111t-28 214q0 141 29.5 218.5t95.5 109t184 31.5q78 0 125 -12l30 64l57 -26l-27 -58q66 -34 95.5 -111zM247 208l159 341q-21 11 -58 11
q-45 0 -69 -18.5t-33.5 -64t-9.5 -132.5q0 -93 11 -137zM417 148.5q24 18.5 33.5 64t9.5 132.5q0 101 -13 144l-161 -345q22 -14 62 -14q45 0 69 18.5zM543 841l-241 -105l-51 75l219 150z" />
    <glyph glyph-name="oslashacute" unicode="&#x1ff;" horiz-adv-x="600" 
d="M547.5 389q20.5 -54 20.5 -141q0 -97 -26 -153t-84.5 -81.5t-157.5 -25.5q-20 0 -52 2l-44 -92l-122 62l33 69q-43 29 -63 82t-20 137q0 97 26.5 154t84.5 83t157 26q32 0 47 -2l46 97l122 -63l-34 -70q46 -30 66.5 -84zM348 125.5q16 10.5 22.5 38.5t6.5 84t-6.5 84.5
t-22.5 39.5t-48 11t-48 -11t-22.5 -39t-6.5 -85q0 -56 6.5 -84t22.5 -38.5t48 -10.5t48 10.5zM499 654l-241 -105l-51 75l219 150z" />
    <glyph glyph-name="u0200" unicode="&#x200;" horiz-adv-x="668" 
d="M440 164h-212l-41 -164h-192l189 641q5 22 22.5 35.5t40.5 13.5h174q23 0 40.5 -13.5t23.5 -35.5l188 -641h-192zM406 300l-45 177q-11 52 -13 72h-27q-7 -38 -14 -72l-45 -177h144zM309 783l-72 -57l-162 172l115 75zM512 784l-72 -58l-162 172l115 75z" />
    <glyph glyph-name="u0201" unicode="&#x201;" horiz-adv-x="580" 
d="M482 467.5q51 -43.5 51 -150.5v-317h-144l-17 73q-30 -37 -74 -61.5t-103 -24.5q-73 0 -120 37.5t-47 104.5v50q0 59 42.5 93t116.5 34h165v12q-1 32 -15.5 44.5t-53.5 12.5q-97 0 -213 -7l-16 118q55 10 135.5 17.5t136.5 7.5q105 0 156 -43.5zM255 115q45 0 97 35v61
h-104q-42 -1 -42 -39v-17q0 -40 49 -40zM269 613l-72 -57l-162 172l115 75zM472 614l-72 -58l-162 172l115 75z" />
    <glyph glyph-name="u0202" unicode="&#x202;" horiz-adv-x="668" 
d="M440 164h-212l-41 -164h-192l189 641q5 22 22.5 35.5t40.5 13.5h174q23 0 40.5 -13.5t23.5 -35.5l188 -641h-192zM406 300l-45 177q-11 52 -13 72h-27q-7 -38 -14 -72l-45 -177h144zM163 750q-2 14 -2 22q0 39 21 71t60.5 51t91.5 19t92 -19t61.5 -51.5t21.5 -71.5
q0 -7 -2 -21l-85 -12q0 32 -21 47t-67 15q-45 0 -65.5 -15t-20.5 -47z" />
    <glyph glyph-name="u0203" unicode="&#x203;" horiz-adv-x="580" 
d="M482 467.5q51 -43.5 51 -150.5v-317h-144l-17 73q-30 -37 -74 -61.5t-103 -24.5q-73 0 -120 37.5t-47 104.5v50q0 59 42.5 93t116.5 34h165v12q-1 32 -15.5 44.5t-53.5 12.5q-97 0 -213 -7l-16 118q55 10 135.5 17.5t136.5 7.5q105 0 156 -43.5zM255 115q45 0 97 35v61
h-104q-42 -1 -42 -39v-17q0 -40 49 -40zM123 580q-2 14 -2 22q0 39 21 71t60.5 51t91.5 19t92 -19t61.5 -51.5t21.5 -71.5q0 -7 -2 -21l-85 -12q0 32 -21 47t-67 15q-45 0 -65.5 -15t-20.5 -47z" />
    <glyph glyph-name="u0204" unicode="&#x204;" horiz-adv-x="587" 
d="M545 143l9 -135q-65 -7 -144.5 -9t-197.5 -2q-71 0 -114 40.5t-43 107.5v400q0 67 43.5 107.5t113.5 40.5q118 0 197.5 -2t144.5 -9l-9 -135h-259q-43 0 -43 -43v-84h265v-129h-265v-105q0 -43 43 -43h259zM293 788l-72 -57l-162 172l115 75zM496 789l-72 -58l-162 172
l115 75z" />
    <glyph glyph-name="u0205" unicode="&#x205;" horiz-adv-x="576" 
d="M519 141l16 -111q-83 -42 -231 -42q-147 0 -209.5 62t-62.5 196q0 99 27 156.5t85 83t157 25.5q132 0 190 -44t58 -135q0 -68 -40 -99.5t-134 -31.5h-149q6 -41 27.5 -56.5t70.5 -15.5q91 0 195 12zM255 380.5q-16 -7.5 -23 -27t-9 -58.5h101q31 0 40.5 9.5t9.5 34.5
q0 29 -16 39t-58 10q-29 0 -45 -7.5zM278 607l-72 -57l-162 172l115 75zM481 608l-72 -58l-162 172l115 75z" />
    <glyph glyph-name="u0206" unicode="&#x206;" horiz-adv-x="587" 
d="M545 143l9 -135q-65 -7 -144.5 -9t-197.5 -2q-71 0 -114 40.5t-43 107.5v400q0 67 43.5 107.5t113.5 40.5q118 0 197.5 -2t144.5 -9l-9 -135h-259q-43 0 -43 -43v-84h265v-129h-265v-105q0 -43 43 -43h259zM147 755q-2 14 -2 22q0 39 21 71t60.5 51t91.5 19t92 -19
t61.5 -51.5t21.5 -71.5q0 -7 -2 -21l-85 -12q0 32 -21 47t-67 15q-45 0 -65.5 -15t-20.5 -47z" />
    <glyph glyph-name="u0207" unicode="&#x207;" horiz-adv-x="576" 
d="M519 141l16 -111q-83 -42 -231 -42q-147 0 -209.5 62t-62.5 196q0 99 27 156.5t85 83t157 25.5q132 0 190 -44t58 -135q0 -68 -40 -99.5t-134 -31.5h-149q6 -41 27.5 -56.5t70.5 -15.5q91 0 195 12zM255 380.5q-16 -7.5 -23 -27t-9 -58.5h101q31 0 40.5 9.5t9.5 34.5
q0 29 -16 39t-58 10q-29 0 -45 -7.5zM132 574q-2 14 -2 22q0 39 21 71t60.5 51t91.5 19t92 -19t61.5 -51.5t21.5 -71.5q0 -7 -2 -21l-85 -12q0 32 -21 47t-67 15q-45 0 -65.5 -15t-20.5 -47z" />
    <glyph glyph-name="u0208" unicode="&#x208;" horiz-adv-x="308" 
d="M247 0h-186v690h186v-690zM128 785l-72 -57l-162 172l115 75zM331 786l-72 -58l-162 172l115 75z" />
    <glyph glyph-name="u0209" unicode="&#x209;" horiz-adv-x="293" 
d="M238 0h-183v497h183v-497zM118 607l-72 -57l-162 172l115 75zM321 608l-72 -58l-162 172l115 75z" />
    <glyph glyph-name="u020A" unicode="&#x20a;" horiz-adv-x="308" 
d="M247 0h-186v690h186v-690zM-18 753q-2 14 -2 22q0 39 21 71t60.5 51t91.5 19t92 -19t61.5 -51.5t21.5 -71.5q0 -7 -2 -21l-85 -12q0 32 -21 47t-67 15q-45 0 -65.5 -15t-20.5 -47z" />
    <glyph glyph-name="u020B" unicode="&#x20b;" horiz-adv-x="293" 
d="M238 0h-183v497h183v-497zM-28 575q-2 14 -2 22q0 39 21 71t60.5 51t91.5 19t92 -19t61.5 -51.5t21.5 -71.5q0 -7 -2 -21l-85 -12q0 32 -21 47t-67 15q-45 0 -65.5 -15t-20.5 -47z" />
    <glyph glyph-name="u020C" unicode="&#x20c;" 
d="M532 672.5q66 -31.5 96 -109t30 -218.5t-30 -218.5t-96 -109t-184 -31.5t-184 31.5t-95.5 109t-29.5 218.5t29.5 218.5t95.5 109t184 31.5t184 -31.5zM279 541.5q-24 -18.5 -33.5 -64t-9.5 -132.5t9.5 -132.5t33.5 -64t69 -18.5t69 18.5t33.5 64t9.5 132.5t-9.5 132.5
t-33.5 64t-69 18.5t-69 -18.5zM321 785l-72 -57l-162 172l115 75zM524 786l-72 -58l-162 172l115 75z" />
    <glyph glyph-name="u020D" unicode="&#x20d;" horiz-adv-x="600" 
d="M457 485q58 -26 84.5 -83t26.5 -154t-26 -153t-84.5 -81.5t-157.5 -25.5t-157 25.5t-84.5 82t-26.5 152.5q0 97 26.5 154t84.5 83t157 26t157 -26zM252 372q-16 -11 -22.5 -39t-6.5 -85q0 -56 6.5 -84t22.5 -38.5t48 -10.5t48 10.5t22.5 38.5t6.5 84t-6.5 84.5
t-22.5 39.5t-48 11t-48 -11zM275 598l-72 -57l-162 172l115 75zM478 599l-72 -58l-162 172l115 75z" />
    <glyph glyph-name="u020E" unicode="&#x20e;" 
d="M532 672.5q66 -31.5 96 -109t30 -218.5t-30 -218.5t-96 -109t-184 -31.5t-184 31.5t-95.5 109t-29.5 218.5t29.5 218.5t95.5 109t184 31.5t184 -31.5zM279 541.5q-24 -18.5 -33.5 -64t-9.5 -132.5t9.5 -132.5t33.5 -64t69 -18.5t69 18.5t33.5 64t9.5 132.5t-9.5 132.5
t-33.5 64t-69 18.5t-69 -18.5zM175 753q-2 14 -2 22q0 39 21 71t60.5 51t91.5 19t92 -19t61.5 -51.5t21.5 -71.5q0 -7 -2 -21l-85 -12q0 32 -21 47t-67 15q-45 0 -65.5 -15t-20.5 -47z" />
    <glyph glyph-name="u020F" unicode="&#x20f;" horiz-adv-x="600" 
d="M457 485q58 -26 84.5 -83t26.5 -154t-26 -153t-84.5 -81.5t-157.5 -25.5t-157 25.5t-84.5 82t-26.5 152.5q0 97 26.5 154t84.5 83t157 26t157 -26zM252 372q-16 -11 -22.5 -39t-6.5 -85q0 -56 6.5 -84t22.5 -38.5t48 -10.5t48 10.5t22.5 38.5t6.5 84t-6.5 84.5
t-22.5 39.5t-48 11t-48 -11zM129 566q-2 14 -2 22q0 39 21 71t60.5 51t91.5 19t92 -19t61.5 -51.5t21.5 -71.5q0 -7 -2 -21l-85 -12q0 32 -21 47t-67 15q-45 0 -65.5 -15t-20.5 -47z" />
    <glyph glyph-name="u0210" unicode="&#x210;" horiz-adv-x="661" 
d="M641 0h-197l-49 208q-7 30 -21.5 41t-43.5 11h-85v-260h-185v690q63 6 118 8t161 2q100 0 159 -19t87.5 -64t28.5 -125q0 -72 -31.5 -115.5t-104.5 -51.5v-6q87 -14 106 -106zM390 404q19 7 27 24.5t8 51.5t-8 51.5t-27 24.5t-55 7h-90v-166h90q36 0 55 7zM296 785
l-72 -57l-162 172l115 75zM499 786l-72 -58l-162 172l115 75z" />
    <glyph glyph-name="u0211" unicode="&#x211;" horiz-adv-x="440" 
d="M434 511l-16 -167h-48q-50 0 -137 -21v-323h-182v497h142l16 -73q98 87 198 87h27zM202 607l-72 -57l-162 172l115 75zM405 608l-72 -58l-162 172l115 75z" />
    <glyph glyph-name="u0212" unicode="&#x212;" horiz-adv-x="661" 
d="M641 0h-197l-49 208q-7 30 -21.5 41t-43.5 11h-85v-260h-185v690q63 6 118 8t161 2q100 0 159 -19t87.5 -64t28.5 -125q0 -72 -31.5 -115.5t-104.5 -51.5v-6q87 -14 106 -106zM390 404q19 7 27 24.5t8 51.5t-8 51.5t-27 24.5t-55 7h-90v-166h90q36 0 55 7zM150 753
q-2 14 -2 22q0 39 21 71t60.5 51t91.5 19t92 -19t61.5 -51.5t21.5 -71.5q0 -7 -2 -21l-85 -12q0 32 -21 47t-67 15q-45 0 -65.5 -15t-20.5 -47z" />
    <glyph glyph-name="u0213" unicode="&#x213;" horiz-adv-x="440" 
d="M434 511l-16 -167h-48q-50 0 -137 -21v-323h-182v497h142l16 -73q98 87 198 87h27zM56 575q-2 14 -2 22q0 39 21 71t60.5 51t91.5 19t92 -19t61.5 -51.5t21.5 -71.5q0 -7 -2 -21l-85 -12q0 32 -21 47t-67 15q-45 0 -65.5 -15t-20.5 -47z" />
    <glyph glyph-name="u0214" unicode="&#x214;" horiz-adv-x="694" 
d="M639 280q0 -109 -27.5 -172.5t-88.5 -92.5t-166 -29q-112 0 -177.5 29t-95 92.5t-29.5 172.5v410h188v-410q0 -60 9.5 -92t31.5 -45t63 -13t63 13t31.5 45t9.5 92v410h188v-410zM330 776l-72 -57l-162 172l115 75zM534 777l-73 -58l-161 172l115 75z" />
    <glyph glyph-name="u0215" unicode="&#x215;" horiz-adv-x="604" 
d="M553 497v-497h-144l-15 71q-51 -43 -100 -64t-102 -21q-71 0 -107.5 35.5t-36.5 103.5v372h182v-315q0 -23 10 -33t34 -10q21 0 42.5 5.5t53.5 19.5v333h183zM274 608l-72 -57l-162 172l115 75zM477 609l-72 -58l-162 172l115 75z" />
    <glyph glyph-name="u0216" unicode="&#x216;" horiz-adv-x="694" 
d="M639 280q0 -109 -27.5 -172.5t-88.5 -92.5t-166 -29q-112 0 -177.5 29t-95 92.5t-29.5 172.5v410h188v-410q0 -60 9.5 -92t31.5 -45t63 -13t63 13t31.5 45t9.5 92v410h188v-410zM176 753q-2 14 -2 22q0 39 21 71t60.5 51t91.5 19t92 -19t61.5 -51.5t21.5 -71.5
q0 -7 -2 -21l-85 -12q0 32 -21 47t-67 15q-45 0 -65.5 -15t-20.5 -47z" />
    <glyph glyph-name="u0217" unicode="&#x217;" horiz-adv-x="604" 
d="M553 497v-497h-144l-15 71q-51 -43 -100 -64t-102 -21q-71 0 -107.5 35.5t-36.5 103.5v372h182v-315q0 -23 10 -33t34 -10q21 0 42.5 5.5t53.5 19.5v333h183zM128 576q-2 14 -2 22q0 39 21 71t60.5 51t91.5 19t92 -19t61.5 -51.5t21.5 -71.5q0 -7 -2 -21l-85 -12
q0 32 -21 47t-67 15q-45 0 -65.5 -15t-20.5 -47z" />
    <glyph glyph-name="u0218" unicode="&#x218;" horiz-adv-x="597" 
d="M545 672l-12 -123q-23 0 -36 1q-114 2 -194 2q-48 0 -64.5 -8t-16.5 -35q0 -23 14 -35.5t52 -25.5l127 -49q83 -33 117 -81t34 -126q0 -79 -25.5 -123t-83 -63t-161.5 -19q-132 0 -253 30l11 133l36 -1q204 -4 205 -4q50 0 66.5 8.5t16.5 34.5q0 24 -11.5 35t-43.5 23
l-138 55q-81 33 -115 80.5t-34 124.5q0 79 26.5 121.5t83.5 59t159 16.5q145 0 240 -31zM338 -60q12 -10 13 -38v-50q0 -50 -13 -84.5t-41 -68.5l-65 17q14 40 16 103q-46 0 -48 43l2 40q1 28 13 38t44 10h35q32 0 44 -10z" />
    <glyph glyph-name="u0219" unicode="&#x219;" horiz-adv-x="541" 
d="M381 504.5q69 -5.5 114 -14.5l-11 -110q-72 1 -211 1q-32 0 -44.5 -1t-17.5 -5.5t-5 -14.5q0 -12 8 -16.5t33 -11.5l20 -5l120 -32q68 -19 98 -51.5t30 -95.5q0 -62 -23.5 -96.5t-74 -48.5t-137.5 -14q-127 0 -242 19l11 110l175 -1q52 0 75 2t31.5 7t8.5 17
q0 11 -8 15.5t-34 12.5l-25 7l-116 32q-73 21 -99.5 57.5t-26.5 99.5q0 74 50.5 109t171.5 35q60 -1 129 -6.5zM325 -52.5q12 -10.5 13 -38.5v-50q0 -50 -13 -84.5t-41 -68.5l-64 17q13 41 15 103q-46 0 -48 43l2 40q1 28 13.5 38.5t43.5 10.5h35q32 0 44 -10.5z" />
    <glyph glyph-name="u021A" unicode="&#x21a;" horiz-adv-x="613" 
d="M599 545h-199v-545h-188v545h-198v145h585v-145zM360 -60q12 -10 13 -38v-50q0 -50 -13.5 -84t-41.5 -69l-64 17q14 40 16 103q-46 0 -48 43l2 40q1 28 13 38t44 10h35q32 0 44 -10z" />
    <glyph glyph-name="u021B" unicode="&#x21b;" horiz-adv-x="426" 
d="M282 383v-210q0 -24 10.5 -33.5t36.5 -9.5h58l20 -120q-27 -11 -73.5 -17t-82.5 -6q-71 0 -111 37t-40 104l-1 255h-85v109l85 4v135h183v-134h128v-114h-128zM301.5 -60.5q12.5 -10.5 12.5 -37.5v-50q0 -50 -13 -84.5t-41 -68.5l-64 17q15 42 15 103q-47 0 -47 43l2 40
q1 28 13 38t44 10h34q32 0 44.5 -10.5z" />
    <glyph glyph-name="u022A" unicode="&#x22a;" 
d="M532 672.5q66 -31.5 96 -109t30 -218.5t-30 -218.5t-96 -109t-184 -31.5t-184 31.5t-95.5 109t-29.5 218.5t29.5 218.5t95.5 109t184 31.5t184 -31.5zM279 541.5q-24 -18.5 -33.5 -64t-9.5 -132.5t9.5 -132.5t33.5 -64t69 -18.5t69 18.5t33.5 64t9.5 132.5t-9.5 132.5
t-33.5 64t-69 18.5t-69 -18.5zM500 1007v-100h-305v100h305zM324 830v-55q0 -33 -34 -33h-53q-34 0 -34 33v55q0 33 34 33h53q34 0 34 -33zM493 830v-55q0 -33 -34 -33h-53q-34 0 -34 33v55q0 33 34 33h53q34 0 34 -33z" />
    <glyph glyph-name="u022B" unicode="&#x22b;" horiz-adv-x="600" 
d="M457 485q58 -26 84.5 -83t26.5 -154t-26 -153t-84.5 -81.5t-157.5 -25.5t-157 25.5t-84.5 82t-26.5 152.5q0 97 26.5 154t84.5 83t157 26t157 -26zM252 372q-16 -11 -22.5 -39t-6.5 -85q0 -56 6.5 -84t22.5 -38.5t48 -10.5t48 10.5t22.5 38.5t6.5 84t-6.5 84.5
t-22.5 39.5t-48 11t-48 -11zM453 820v-100h-305v100h305zM277 643v-55q0 -33 -34 -33h-53q-34 0 -34 33v55q0 33 34 33h53q34 0 34 -33zM446 643v-55q0 -33 -34 -33h-53q-34 0 -34 33v55q0 33 34 33h53q34 0 34 -33z" />
    <glyph glyph-name="u022C" unicode="&#x22c;" 
d="M532 672.5q66 -31.5 96 -109t30 -218.5t-30 -218.5t-96 -109t-184 -31.5t-184 31.5t-95.5 109t-29.5 218.5t29.5 218.5t95.5 109t184 31.5t184 -31.5zM279 541.5q-24 -18.5 -33.5 -64t-9.5 -132.5t9.5 -132.5t33.5 -64t69 -18.5t69 18.5t33.5 64t9.5 132.5t-9.5 132.5
t-33.5 64t-69 18.5t-69 -18.5zM272 973v61h138v-61h-138zM297 900.5q23 -6.5 52 -16.5q42 -16 64 -20q5 -1 13 -1q13 0 16.5 8.5t3.5 32.5h76q4 -23 4 -47q0 -54 -24 -82.5t-63 -26.5q-27 2 -51.5 9t-55.5 19q-38 15 -59 18l-10 1q-15 0 -18.5 -9t-3.5 -34h-76q-4 21 -4 45
q0 56 25.5 85t61.5 27q26 -2 49 -8.5z" />
    <glyph glyph-name="u022D" unicode="&#x22d;" horiz-adv-x="600" 
d="M457 485q58 -26 84.5 -83t26.5 -154t-26 -153t-84.5 -81.5t-157.5 -25.5t-157 25.5t-84.5 82t-26.5 152.5q0 97 26.5 154t84.5 83t157 26t157 -26zM252 372q-16 -11 -22.5 -39t-6.5 -85q0 -56 6.5 -84t22.5 -38.5t48 -10.5t48 10.5t22.5 38.5t6.5 84t-6.5 84.5
t-22.5 39.5t-48 11t-48 -11zM225 785v61h138v-61h-138zM250 712.5q23 -6.5 52 -16.5q42 -16 64 -20q5 -1 13 -1q13 0 16.5 8.5t3.5 32.5h76q4 -23 4 -47q0 -54 -24 -82.5t-63 -26.5q-27 2 -51.5 9t-55.5 19q-38 15 -59 18l-10 1q-15 0 -18.5 -9t-3.5 -34h-76q-4 21 -4 45
q0 56 25.5 85t61.5 27q26 -2 49 -8.5z" />
    <glyph glyph-name="u0230" unicode="&#x230;" 
d="M532 672.5q66 -31.5 96 -109t30 -218.5t-30 -218.5t-96 -109t-184 -31.5t-184 31.5t-95.5 109t-29.5 218.5t29.5 218.5t95.5 109t184 31.5t184 -31.5zM279 541.5q-24 -18.5 -33.5 -64t-9.5 -132.5t9.5 -132.5t33.5 -64t69 -18.5t69 18.5t33.5 64t9.5 132.5t-9.5 132.5
t-33.5 64t-69 18.5t-69 -18.5zM489 1007v-100h-282v100h282zM419 826v-45q0 -22 -12 -34t-35 -12h-49q-47 0 -47 46v45q0 45 47 45h49q47 0 47 -45z" />
    <glyph glyph-name="u0231" unicode="&#x231;" horiz-adv-x="600" 
d="M457 485q58 -26 84.5 -83t26.5 -154t-26 -153t-84.5 -81.5t-157.5 -25.5t-157 25.5t-84.5 82t-26.5 152.5q0 97 26.5 154t84.5 83t157 26t157 -26zM252 372q-16 -11 -22.5 -39t-6.5 -85q0 -56 6.5 -84t22.5 -38.5t48 -10.5t48 10.5t22.5 38.5t6.5 84t-6.5 84.5
t-22.5 39.5t-48 11t-48 -11zM442 820v-100h-282v100h282zM372 639v-45q0 -22 -12 -34t-35 -12h-49q-47 0 -47 46v45q0 45 47 45h49q47 0 47 -45z" />
    <glyph glyph-name="u0232" unicode="&#x232;" horiz-adv-x="633" 
d="M411 221v-221h-188v219l-228 471h194l99 -233q13 -30 23 -93h12q1 6 7 37.5t16 55.5l99 233h193zM474 770h-310v110h310v-110z" />
    <glyph glyph-name="u0233" unicode="&#x233;" horiz-adv-x="584" 
d="M581 497l-166 -492q-28 -86 -89 -147.5t-161 -61.5q-23 0 -55 5l-13 101q59 14 94 36.5t54 61.5h-32q-21 0 -36.5 11.5t-21.5 31.5l-153 454h193l74 -296q6 -30 14 -85h11q7 26 20 85l74 296h193zM452 596h-310v110h310v-110z" />
    <glyph glyph-name="u0237" unicode="&#x237;" horiz-adv-x="292" 
d="M237 42q0 -75 -39.5 -139.5t-106.5 -95.5l-100 80q36 37 50.5 73.5t14.5 81.5v455h181v-455z" />
    <glyph glyph-name="u0259" unicode="&#x259;" horiz-adv-x="576" 
d="M482.5 449q62.5 -62 62.5 -196q0 -99 -27 -156.5t-85 -83t-157 -25.5q-132 0 -190 44t-58 134q0 69 39.5 100.5t133.5 31.5h150q-7 41 -29 56t-70 15q-88 0 -194 -11l-17 111q85 42 232 42t209.5 -62zM322 118.5q16 7.5 23 27t9 57.5h-102q-31 0 -40 -9.5t-9 -34.5
q0 -29 15.5 -38.5t57.5 -9.5q30 0 46 7.5z" />
    <glyph glyph-name="u02B9" unicode="&#x2b9;" horiz-adv-x="286" 
d="M164 527h-106l49 225h128z" />
    <glyph glyph-name="u02BA" unicode="&#x2ba;" horiz-adv-x="455" 
d="M165 527h-107l50 225h128zM333 527h-107l50 225h128z" />
    <glyph glyph-name="u02BB" unicode="&#x2bb;" horiz-adv-x="249" 
d="M57.5 527.5q-13.5 13.5 -13.5 49.5l-1 64q0 64 14.5 108.5t45.5 89.5l71 -22q-17 -58 -17 -133q26 0 39.5 -14.5t12.5 -41.5l-2 -51q-1 -36 -14.5 -49.5t-48.5 -13.5h-38q-35 0 -48.5 13.5z" />
    <glyph glyph-name="u02BE" unicode="&#x2be;" horiz-adv-x="180" 
d="M56.5 687q-13.5 14 -33.5 14v72q33 0 61.5 -16t45.5 -43.5t17 -60.5q0 -51 -36.5 -86t-87.5 -35v73q19 0 33 13.5t14 34.5q0 20 -13.5 34z" />
    <glyph glyph-name="u02BF" unicode="&#x2bf;" horiz-adv-x="180" 
d="M123.5 687q-13.5 -14 -13.5 -34q0 -21 13.5 -34.5t33.5 -13.5v-73q-51 0 -87.5 35t-36.5 86q0 33 17 60.5t45.5 43.5t61.5 16v-72q-20 0 -33.5 -14z" />
    <glyph glyph-name="circumflex" unicode="&#x2c6;" horiz-adv-x="464" 
d="M433 599l-45 -63l-151 94h-8l-153 -94l-46 69l138 132h131z" />
    <glyph glyph-name="caron" unicode="&#x2c7;" horiz-adv-x="464" 
d="M428 679l-158 -131h-73l-159 131l46 69l145 -78h8l146 78z" />
    <glyph glyph-name="u02C8" unicode="&#x2c8;" horiz-adv-x="192" 
d="M63 599v96h66v-96h-66z" />
    <glyph glyph-name="u02C9" unicode="&#x2c9;" horiz-adv-x="400" 
d="M355 594h-310v110h310v-110z" />
    <glyph glyph-name="u02CA" unicode="&#x2ca;" horiz-adv-x="374" 
d="M334 626l-242 -106l-51 76l219 149z" />
    <glyph glyph-name="u02CB" unicode="&#x2cb;" horiz-adv-x="374" 
d="M330 607l-51 -75l-241 105l73 120z" />
    <glyph glyph-name="u02CC" unicode="&#x2cc;" horiz-adv-x="177" 
d="M56 -165v95h66v-96z" />
    <glyph glyph-name="breve" unicode="&#x2d8;" horiz-adv-x="403" 
d="M374 702q2 -14 2 -21q0 -39 -21.5 -71t-61 -51t-91.5 -19t-92 19t-61.5 51t-21.5 71q0 7 2 21l85 12q0 -32 21 -47t67 -15t66.5 15t20.5 47z" />
    <glyph glyph-name="dotaccent" unicode="&#x2d9;" horiz-adv-x="244" 
d="M201 665v-50q0 -50 -51 -50h-55q-52 0 -52 50v50q0 49 52 49h55q51 0 51 -49z" />
    <glyph glyph-name="ring" unicode="&#x2da;" horiz-adv-x="314" 
d="M218.5 757q28.5 -16 45.5 -43.5t17 -60.5q0 -51 -36.5 -86t-87.5 -35t-87.5 35t-36.5 86q0 33 17 60.5t45.5 43.5t61.5 16t61.5 -16zM123.5 687q-13.5 -14 -13.5 -34q0 -21 13.5 -34.5t33.5 -13.5t33.5 13.5t13.5 34.5q0 20 -13.5 34t-33.5 14t-33.5 -14z" />
    <glyph glyph-name="ogonek" unicode="&#x2db;" horiz-adv-x="250" 
d="M211 0q-3 -5 -21 -33t-32 -60q-5 -10 -5 -20q0 -19 29 -19q8 0 30 4l13 -64q-59 -22 -102 -22q-44 0 -67.5 21t-23.5 54q0 18 5 31q19 58 103 110z" />
    <glyph glyph-name="tilde" unicode="&#x2dc;" horiz-adv-x="451" 
d="M179 709.5q23 -6.5 52 -16.5q42 -16 64 -20q4 -1 11 -1q15 0 18.5 8.5t3.5 32.5h76q4 -23 4 -46q0 -54 -24 -83t-63 -27q-26 2 -48 8t-57 19q-37 15 -61 19q-4 1 -11 1q-14 0 -17.5 -9t-3.5 -33h-76q-4 21 -4 45q0 56 25.5 84.5t61.5 26.5q26 -2 49 -8.5z" />
    <glyph glyph-name="hungarumlaut" unicode="&#x2dd;" horiz-adv-x="526" 
d="M275 679l-161 -172l-73 58l119 190zM478 679l-162 -172l-71 57l119 191z" />
    <glyph glyph-name="acutecomb" unicode="&#x301;" horiz-adv-x="0" 
d="M-57 637l-241 -105l-51 75l219 150z" />
    <glyph glyph-name="u0302" unicode="&#x302;" horiz-adv-x="0" 
d="M-32 592l-45 -63l-150 94h-8l-154 -94l-45 68l137 133h131z" />
    <glyph glyph-name="tildecomb" unicode="&#x303;" horiz-adv-x="0" 
d="M-278 710q20 -6 55 -18q7 -2 26.5 -9t36.5 -10q4 -1 12 -1q15 0 18.5 8.5t3.5 32.5h76q4 -21 4 -46q0 -54 -24 -83t-63 -27q-26 2 -48 8t-57 19q-37 15 -61 19q-4 1 -11 1q-14 0 -17.5 -9t-3.5 -33h-77q-4 21 -4 44q0 56 26 85t62 27q26 -2 46 -8z" />
    <glyph glyph-name="u0304" unicode="&#x304;" horiz-adv-x="0" 
d="M-47 594h-310v110h310v-110z" />
    <glyph glyph-name="u0306" unicode="&#x306;" horiz-adv-x="0" 
d="M-33 702q2 -14 2 -21q0 -39 -21.5 -71t-61 -51t-91.5 -19t-91.5 19t-61 51t-21.5 70q0 8 2 22l85 12q0 -32 20.5 -47t66.5 -15t66.5 15t20.5 47z" />
    <glyph glyph-name="u0307" unicode="&#x307;" horiz-adv-x="0" 
d="M-49 665v-50q0 -50 -51 -50h-55q-51 0 -51 50v50q0 49 51 49h55q51 0 51 -49z" />
    <glyph glyph-name="u0308" unicode="&#x308;" horiz-adv-x="0" 
d="M-247 678v-60q0 -37 -36 -37h-60q-36 0 -36 37v60q0 36 36 36h60q36 0 36 -36zM-61 678v-60q0 -37 -36 -37h-60q-36 0 -36 37v60q0 36 36 36h60q36 0 36 -36z" />
    <glyph glyph-name="hookabovecomb" unicode="&#x309;" horiz-adv-x="0" 
d="M-160 629.5q11 10.5 11 31.5q0 15 -9 22.5t-24 7.5q-13 0 -31 -8l-19 85q36 13 70 13q52 0 83.5 -31t31.5 -84q0 -58 -37 -91.5t-94 -41.5l-19 77q26 9 37 19.5z" />
    <glyph glyph-name="u030A" unicode="&#x30a;" horiz-adv-x="0" 
d="M-101.5 754q28.5 -16 45.5 -43.5t17 -60.5q0 -51 -36.5 -86t-87.5 -35t-87.5 35t-36.5 86q0 50 36.5 85t87.5 35q33 0 61.5 -16zM-196.5 684q-13.5 -14 -13.5 -34q0 -21 13.5 -34.5t33.5 -13.5q19 0 33 13.5t14 34.5q0 20 -14 34t-33 14q-20 0 -33.5 -14z" />
    <glyph glyph-name="u030B" unicode="&#x30b;" horiz-adv-x="0" 
d="M-258 676l-162 -172l-72 58l119 190zM-55 676l-162 -172l-72 58l119 190z" />
    <glyph glyph-name="u030C" unicode="&#x30c;" horiz-adv-x="0" 
d="M-44 679l-158 -131h-73l-158 131l45 69l146 -78h8l145 78z" />
    <glyph glyph-name="u030F" unicode="&#x30f;" horiz-adv-x="0" 
d="M-253 570l-72 -57l-162 172l115 75zM-49 571l-73 -58l-161 172l115 75z" />
    <glyph glyph-name="u0311" unicode="&#x311;" horiz-adv-x="0" 
d="M-388 554q-2 14 -2 22q0 39 21 71t60.5 51t91.5 19t92 -19t61.5 -51.5t21.5 -71.5q0 -7 -2 -21l-85 -12q0 32 -21 47t-67 15q-45 0 -65.5 -15t-20.5 -47z" />
    <glyph glyph-name="u0312" unicode="&#x312;" horiz-adv-x="0" 
d="M-179.5 536.5q-9.5 9.5 -9.5 34.5v46q0 46 10.5 77.5t32.5 63.5l50 -15q-12 -43 -12 -95q19 0 28.5 -10.5t8.5 -29.5l-2 -37q-1 -26 -10.5 -35t-34.5 -9h-27q-25 0 -34.5 9.5z" />
    <glyph glyph-name="u031B" unicode="&#x31b;" horiz-adv-x="0" 
d="M-250 459q33 6 52 28.5t22 57.5l110 -5q-1 -77 -52 -118.5t-128 -36.5z" />
    <glyph glyph-name="dotbelowcomb" unicode="&#x323;" horiz-adv-x="0" 
d="M-46 -86v-49q0 -50 -51 -50h-55q-51 0 -51 50v49q0 26 12.5 38t38.5 12h55q51 0 51 -50z" />
    <glyph glyph-name="u0324" unicode="&#x324;" horiz-adv-x="0" 
d="M-226 -77v-60q0 -36 -36 -36h-60q-36 0 -36 36v60q0 37 36 37h60q36 0 36 -37zM-40 -77v-60q0 -36 -37 -36h-59q-37 0 -37 36v60q0 37 37 37h59q37 0 37 -37z" />
    <glyph glyph-name="u0327" unicode="&#x327;" horiz-adv-x="0" 
d="M-101 -29q43 0 62 -14.5t19 -50.5q0 -72 -49.5 -111.5t-127.5 -39.5q-21 0 -42 3l21 72q38 0 61 11.5t25 42.5q1 8 -3.5 11t-21 3.5t-42.5 0.5l17 66q64 6 81 6z" />
    <glyph glyph-name="u0328" unicode="&#x328;" horiz-adv-x="0" 
d="M-47 0q-3 -5 -21 -33t-33 -60q-5 -13 -5 -19q0 -20 30 -20q8 0 30 4l13 -64q-59 -22 -102 -22q-44 0 -67.5 21t-23.5 54q0 18 5 31q19 58 103 110z" />
    <glyph glyph-name="u032E" unicode="&#x32e;" horiz-adv-x="0" 
d="M-36 -51q2 -16 2 -22q0 -39 -21 -71.5t-60.5 -51t-91.5 -18.5t-92 19t-61.5 51t-21.5 71q0 8 2 22l85 11q0 -32 20.5 -46.5t67.5 -14.5q45 0 65.5 14.5t20.5 46.5z" />
    <glyph glyph-name="u0331" unicode="&#x331;" horiz-adv-x="0" 
d="M-48 -167h-310v111h310v-111z" />
    <glyph glyph-name="u0394" unicode="&#x394;" horiz-adv-x="684" 
d="M666 61v-61h-648v61l231 629h186zM335 479q-9 -45 -14 -64l-93 -280h227l-92 281q-8 26 -14 56.5t-7 38.5q-3 -19 -7 -32z" />
    <glyph glyph-name="u03A9" unicode="&#x3a9;" horiz-adv-x="720" 
d="M540.5 670.5q67.5 -33.5 98 -101.5t30.5 -175q0 -93 -30.5 -151t-106.5 -116q40 17 72 17h75l1 -144h-293v136q50 44 68.5 94.5t18.5 139.5q0 77 -10 117.5t-34.5 57t-69.5 16.5q-46 0 -70 -16.5t-34 -57.5t-10 -119q0 -64 8.5 -103.5t26.5 -68t51 -60.5v-136h-292v144
h75q20 0 36.5 -3.5t36.5 -13.5q-75 61 -106 118.5t-31 147.5q0 107 30.5 175t98.5 102t181 34q112 0 179.5 -33.5z" />
    <glyph glyph-name="u03BC" unicode="&#x3bc;" horiz-adv-x="637" 
d="M628 12q-30 -10 -67 -17t-71 -7q-50 0 -81 22t-31 69v6q-20 -40 -58.5 -68t-86.5 -30v-52l-24 -120h-158v682h182v-298q0 -35 11 -46.5t35 -11.5q25 0 46.5 19.5t35.5 57t14 88.5v191h181v-348q0 -25 5 -35t20 -10h40z" />
    <glyph glyph-name="pi" unicode="&#x3c0;" horiz-adv-x="652" 
d="M635 375h-70v-375h-182v375h-114v-375h-182v375h-70v123h618v-123z" />
    <glyph glyph-name="u0400" unicode="&#x400;" horiz-adv-x="588" 
d="M546 143l9 -135q-64 -7 -144 -9t-198 -2q-70 0 -113.5 40.5t-43.5 107.5v400q0 67 43.5 107.5t113.5 40.5q118 0 198 -2t144 -9l-9 -135h-258q-44 0 -44 -43v-84h266v-129h-266v-105q0 -43 44 -43h258zM409 811l-51 -75l-241 105l73 120z" />
    <glyph glyph-name="u0401" unicode="&#x401;" horiz-adv-x="588" 
d="M546 143l9 -135q-64 -7 -144 -9t-198 -2q-70 0 -113.5 40.5t-43.5 107.5v400q0 67 43.5 107.5t113.5 40.5q118 0 198 -2t144 -9l-9 -135h-258q-44 0 -44 -43v-84h266v-129h-266v-105q0 -43 44 -43h258zM292 860v-60q0 -37 -36 -37h-60q-36 0 -36 37v60q0 36 36 36h60
q36 0 36 -36zM478 860v-60q0 -37 -36 -37h-60q-36 0 -36 37v60q0 36 36 36h60q36 0 36 -36z" />
    <glyph glyph-name="u0402" unicode="&#x402;" horiz-adv-x="771" 
d="M707 404.5q42 -47.5 42 -158.5q0 -145 -70 -203t-202 -56l-17 131q57 11 79 35t22 77q0 45 -14.5 59.5t-53.5 14.5q-45 0 -95 -18v-286h-188v545h-196v145h581v-145h-197v-135q42 20 90.5 31t91.5 11q85 0 127 -47.5z" />
    <glyph glyph-name="u0403" unicode="&#x403;" horiz-adv-x="544" 
d="M400.5 691q74.5 -2 135.5 -10l-8 -134h-232q-47 0 -47 -45v-502h-188v541q0 67 43 109.5t111 42.5q111 0 185.5 -2zM498 830l-242 -106l-51 76l219 149z" />
    <glyph glyph-name="u0404" unicode="&#x404;" horiz-adv-x="599" 
d="M572 19q-49 -17 -99.5 -24t-126.5 -7q-114 0 -180.5 34.5t-96.5 112t-30 210.5t30 210.5t96.5 112t180.5 34.5q75 0 122 -5.5t99 -19.5l-15 -138q-102 3 -206 3q-38 0 -60.5 -11t-34.5 -38t-17 -76h274v-121h-275q3 -58 14 -90t34.5 -45t64.5 -13q77 0 122 1.5t89 7.5z
" />
    <glyph glyph-name="u0405" unicode="&#x405;" horiz-adv-x="597" 
d="M545 672l-12 -123q-23 0 -36 1q-114 2 -194 2q-48 0 -64.5 -8t-16.5 -35q0 -23 14 -35.5t52 -25.5l127 -49q83 -33 117 -81t34 -126q0 -79 -25.5 -123t-83 -63t-161.5 -19q-132 0 -253 30l11 133l36 -1q204 -4 205 -4q50 0 66.5 8.5t16.5 34.5q0 24 -11.5 35t-43.5 23
l-138 55q-81 33 -115 80.5t-34 124.5q0 79 26.5 121.5t83.5 59t159 16.5q145 0 240 -31z" />
    <glyph glyph-name="u0406" unicode="&#x406;" horiz-adv-x="314" 
d="M250 0h-186v690h186v-690z" />
    <glyph glyph-name="u0407" unicode="&#x407;" horiz-adv-x="308" 
d="M247 0h-186v690h186v-690zM127 860v-60q0 -37 -36 -37h-60q-36 0 -36 37v60q0 36 36 36h60q36 0 36 -36zM313 860v-60q0 -37 -36 -37h-60q-36 0 -36 37v60q0 36 36 36h60q36 0 36 -36z" />
    <glyph glyph-name="u0408" unicode="&#x408;" horiz-adv-x="391" 
d="M330 135q0 -71 -45 -109.5t-125 -38.5q-34 0 -79 6.5t-66 16.5l20 121h47q32 0 47 10.5t15 32.5v516h186v-555z" />
    <glyph glyph-name="u0409" unicode="&#x409;" horiz-adv-x="980" 
d="M848.5 423.5q56.5 -20.5 81 -68.5t24.5 -136t-23.5 -137t-73.5 -69.5t-134 -20.5q-104 0 -161 1.5t-119 6.5h-4v562h-57q-45 0 -51 -51q-12 -143 -22.5 -218.5t-29.5 -136.5q-28 -87 -76 -125.5t-123 -38.5q-29 0 -54 4l-13 128q36 8 58 24t38 59q18 45 26.5 115.5
t18.5 211.5q10 156 166 156h304v-246h67q101 0 157.5 -20.5zM738.5 135q15.5 8 21 28t5.5 62q0 41 -5.5 61.5t-21 29t-47.5 8.5h-67v-197h67q32 0 47.5 8z" />
    <glyph glyph-name="u040A" unicode="&#x40a;" horiz-adv-x="975" 
d="M846 412.5q55 -19.5 79 -65.5t24 -129q0 -87 -23 -136t-70.5 -69.5t-127.5 -20.5q-107 0 -167 1.5t-122 6.5h-4v305h-183v-305h-188v690h188v-257h183v257h185v-258h74q97 0 152 -19.5zM737 134.5q14 7.5 19 27t5 58.5q0 38 -5 57t-19 27t-43 8h-74v-185h74q29 0 43 7.5z
" />
    <glyph glyph-name="u040B" unicode="&#x40b;" horiz-adv-x="799" 
d="M720 416.5q45 -42.5 45 -131.5v-285h-189v244q0 36 -12.5 48t-52.5 12q-56 0 -113 -11v-293h-188v545h-196v145h581v-145h-197v-122q46 17 98 26.5t84 9.5q95 0 140 -42.5z" />
    <glyph glyph-name="u040C" unicode="&#x40c;" horiz-adv-x="661" 
d="M516 321q34 -26 56.5 -81.5t65.5 -198.5l12 -41h-196q-5 21 -10 34q-36 126 -53.5 174.5t-41.5 67.5t-71 19h-35q8 -35 8 -64v-231h-187v690h187v-183q0 -44 -9 -86h34q48 0 73 23.5t41.5 71.5t49.5 174h191l-21 -69q-33 -111 -52.5 -157t-51 -69.5t-92.5 -31.5v-6
q68 -10 102 -36zM539 830l-242 -106l-51 76l219 149z" />
    <glyph glyph-name="u040D" unicode="&#x40d;" horiz-adv-x="724" 
d="M660 0h-179v360q0 44 10 101h-7q-18 -57 -41 -99l-198 -362h-181v690h178v-351q0 -45 -10 -105h7q19 57 42 99l198 357h181v-690zM459 811l-51 -75l-241 105l73 120z" />
    <glyph glyph-name="u040E" unicode="&#x40e;" horiz-adv-x="609" 
d="M612 690l-159 -507q-30 -98 -69 -143t-114 -52q-9 -1 -31 -1q-36 0 -81.5 4.5t-78.5 10.5l20 130q60 -2 73 -2q44 0 63 9t29 36l5 19h-38q-41 0 -64 21t-35 61l-133 414h193l92 -349q1 -5 5.5 -8t10.5 -3h17l103 360h192zM480 903q2 -14 2 -20q0 -39 -21.5 -72t-61 -53
t-91.5 -20t-92 20t-61.5 53t-21.5 72q0 6 2 20h115q-1 -7 -1 -18q0 -33 15 -47t44 -14t43.5 14t14.5 47q0 11 -1 18h115z" />
    <glyph glyph-name="u040F" unicode="&#x40f;" horiz-adv-x="709" 
d="M645 690v-690h-216l-7 -151h-128l-8 151h-222v690h187v-562h206v562h188z" />
    <glyph glyph-name="u0410" unicode="&#x410;" horiz-adv-x="668" 
d="M440 164h-212l-41 -164h-192l189 641q5 22 22.5 35.5t40.5 13.5h174q23 0 40.5 -13.5t23.5 -35.5l188 -641h-192zM406 300l-45 177q-11 52 -13 72h-27q-7 -38 -14 -72l-45 -177h144z" />
    <glyph glyph-name="u0411" unicode="&#x411;" horiz-adv-x="635" 
d="M498.5 398q58.5 -19 84 -64.5t25.5 -127.5q0 -86 -27.5 -132.5t-82.5 -64t-147 -17.5q-180 0 -283 8h-5v690q134 8 247 8q121 0 252 -8l-14 -138h-297v-135h85q104 0 162.5 -19zM389.5 133.5q17.5 6.5 24 24.5t6.5 54t-6.5 53.5t-24 25t-53.5 7.5h-85v-171h85
q36 0 53.5 6.5z" />
    <glyph glyph-name="u0412" unicode="&#x412;" horiz-adv-x="653" 
d="M584.5 303q33.5 -45 33.5 -131q0 -70 -25 -109t-77 -55t-140 -16q-115 0 -181 1.5t-132 6.5v690q59 5 119 6.5t162 1.5q96 0 150 -15.5t78 -54.5t24 -110q0 -75 -29 -113t-94 -44v-6q78 -7 111.5 -52zM400 551.5q-17 14.5 -66 14.5h-88v-151h93q46 0 62 15.5t16 61.5
q0 45 -17 59.5zM397.5 131q18.5 7 26 25t7.5 53q0 38 -7.5 57t-26.5 26.5t-56 7.5h-95v-176h97q36 0 54.5 7z" />
    <glyph glyph-name="u0413" unicode="&#x413;" horiz-adv-x="544" 
d="M400.5 691q74.5 -2 135.5 -10l-8 -134h-232q-47 0 -47 -45v-502h-188v541q0 67 43 109.5t111 42.5q111 0 185.5 -2z" />
    <glyph glyph-name="u0414" unicode="&#x414;" horiz-adv-x="762" 
d="M745 128v-279h-135l-13 151h-435l-13 -151h-135v279h75q35 95 55 196.5t31 216.5q6 66 51 107.5t116 41.5h311v-562h92zM465 128v434h-63q-25 0 -37.5 -12.5t-14.5 -40.5q-14 -139 -32.5 -224.5t-52.5 -156.5h200z" />
    <glyph glyph-name="u0415" unicode="&#x415;" horiz-adv-x="588" 
d="M546 143l9 -135q-64 -7 -144 -9t-198 -2q-70 0 -113.5 40.5t-43.5 107.5v400q0 67 43.5 107.5t113.5 40.5q118 0 198 -2t144 -9l-9 -135h-258q-44 0 -44 -43v-84h266v-129h-266v-105q0 -43 44 -43h258z" />
    <glyph glyph-name="u0416" unicode="&#x416;" horiz-adv-x="954" 
d="M813 320.5q33 -26.5 55 -82.5t63 -201l11 -37h-197q-10 32 -18 60q-35 115 -51 157.5t-34 60t-50 17.5h-33q8 -35 8 -64v-231h-179v231q0 31 9 64h-36q-31 0 -48.5 -17t-33 -59t-50.5 -154l-20 -65h-196l11 37q41 145 62.5 201t55 82.5t100.5 36.5v6q-60 8 -90.5 31.5
t-48.5 69t-50 155.5l-21 71h190q3 -13 6.5 -23.5l6.5 -19.5q29 -101 44.5 -143.5t34 -62.5t48.5 -20h35q-9 42 -9 86v183h179v-183q0 -41 -8 -86h32q30 0 48.5 19.5t33 59.5t44.5 139l15 51h190l-21 -71q-32 -110 -50 -155.5t-48.5 -69t-90.5 -31.5v-6q68 -10 101 -36.5z
" />
    <glyph glyph-name="u0417" unicode="&#x417;" horiz-adv-x="577" 
d="M420 682.5q52 -15.5 75.5 -54.5t23.5 -110q0 -75 -28 -113t-91 -44v-6q75 -7 107.5 -52t32.5 -131q0 -70 -24.5 -109t-74.5 -55t-136 -16q-92 0 -156 7.5t-125 26.5l14 125q134 -21 230 -21q47 0 63.5 16t16.5 63q0 35 -7 53t-24.5 25t-50.5 7l-143 3v121l142 3
q40 0 54 14.5t14 56.5q0 41 -15 54.5t-57 13.5q-92 0 -210 -14l-14 131q52 11 106.5 16t130.5 5q94 0 146 -15.5z" />
    <glyph glyph-name="u0418" unicode="&#x418;" horiz-adv-x="724" 
d="M660 0h-179v360q0 44 10 101h-7q-18 -57 -41 -99l-198 -362h-181v690h178v-351q0 -45 -10 -105h7q19 57 42 99l198 357h181v-690z" />
    <glyph glyph-name="u0419" unicode="&#x419;" horiz-adv-x="724" 
d="M660 0h-179v360q0 44 10 101h-7q-18 -57 -41 -99l-198 -362h-181v690h178v-351q0 -45 -10 -105h7q19 57 42 99l198 357h181v-690zM541 903q2 -14 2 -20q0 -39 -21.5 -72t-61 -53t-91.5 -20t-92 20t-61.5 53t-21.5 72q0 6 2 20h115q-1 -7 -1 -18q0 -33 15 -47t44 -14
t43.5 14t14.5 47q0 11 -1 18h115z" />
    <glyph glyph-name="u041A" unicode="&#x41a;" horiz-adv-x="661" 
d="M516 321q34 -26 56.5 -81.5t65.5 -198.5l12 -41h-196q-5 21 -10 34q-36 126 -53.5 174.5t-41.5 67.5t-71 19h-35q8 -35 8 -64v-231h-187v690h187v-183q0 -44 -9 -86h34q48 0 73 23.5t41.5 71.5t49.5 174h191l-21 -69q-33 -111 -52.5 -157t-51 -69.5t-92.5 -31.5v-6
q68 -10 102 -36z" />
    <glyph glyph-name="u041B" unicode="&#x41b;" horiz-adv-x="696" 
d="M632 0h-188v562h-63q-54 0 -57 -51q-11 -129 -22.5 -213.5t-30.5 -141.5q-28 -86 -78.5 -125.5t-123.5 -39.5q-24 0 -56 5l-13 145q40 6 63 19.5t35 46.5q17 47 28 122.5t19 197.5q12 163 173 163h314v-690z" />
    <glyph glyph-name="u041C" unicode="&#x41c;" horiz-adv-x="939" 
d="M864 623l25 -623h-172l-22 547h-16l-84 -386q-11 -58 -73 -58h-106q-62 0 -74 58l-85 386h-16l-19 -547h-171l24 623q3 67 68 67h168q61 0 72 -59l66 -306q6 -31 14 -100h11l5 36q5 40 10 65l63 305q12 59 73 59h171q65 0 68 -67z" />
    <glyph glyph-name="u041D" unicode="&#x41d;" horiz-adv-x="708" 
d="M645 690v-690h-188v298h-206v-298h-187v690h187v-255h206v255h188z" />
    <glyph glyph-name="u041E" unicode="&#x41e;" 
d="M532 672.5q66 -31.5 96 -109t30 -218.5t-30 -218.5t-96 -109t-184 -31.5t-184 31.5t-95.5 109t-29.5 218.5t29.5 218.5t95.5 109t184 31.5t184 -31.5zM279 541.5q-24 -18.5 -33.5 -64t-9.5 -132.5t9.5 -132.5t33.5 -64t69 -18.5t69 18.5t33.5 64t9.5 132.5t-9.5 132.5
t-33.5 64t-69 18.5t-69 -18.5z" />
    <glyph glyph-name="u041F" unicode="&#x41f;" horiz-adv-x="705" 
d="M642 0h-188v562h-203v-562h-187v690h578v-690z" />
    <glyph glyph-name="u0420" unicode="&#x420;" horiz-adv-x="635" 
d="M505.5 679.5q57.5 -20.5 82 -69.5t24.5 -141q0 -91 -23.5 -140t-76 -69.5t-145.5 -20.5q-51 0 -116 7v-246h-188v690q63 6 118 8t161 2t163.5 -20.5zM390.5 384q18.5 8 26 27.5t7.5 57.5t-7.5 58t-26 28t-53.5 8h-86v-187h86q35 0 53.5 8z" />
    <glyph glyph-name="u0421" unicode="&#x421;" horiz-adv-x="596" 
d="M462 696.5q46 -5.5 97 -19.5l-14 -138q-102 3 -204 3q-42 0 -64.5 -17t-31.5 -59t-9 -121t9 -121t31.5 -59t64.5 -17q79 0 126 1.5t92 6.5l15 -137q-50 -17 -102.5 -24t-130.5 -7q-112 0 -177.5 34.5t-95 112t-29.5 210.5t29.5 210.5t95 112t177.5 34.5q75 0 121 -5.5z
" />
    <glyph glyph-name="u0422" unicode="&#x422;" horiz-adv-x="613" 
d="M599 545h-199v-545h-188v545h-198v145h585v-145z" />
    <glyph glyph-name="u0423" unicode="&#x423;" horiz-adv-x="609" 
d="M612 690l-159 -507q-30 -98 -69 -143t-114 -52q-9 -1 -31 -1q-36 0 -81.5 4.5t-78.5 10.5l20 130q60 -2 73 -2q44 0 63 9t29 36l5 19h-38q-41 0 -64 21t-35 61l-133 414h193l92 -349q1 -5 5.5 -8t10.5 -3h17l103 360h192z" />
    <glyph glyph-name="u0424" unicode="&#x424;" horiz-adv-x="862" 
d="M808 193.5q-30 -59.5 -98 -89.5t-185 -37v-86h-188v86q-117 7 -185 37t-98.5 89.5t-30.5 160.5q0 104 30.5 166t98.5 92.5t185 37.5v86h188v-86q117 -7 185 -37.5t98 -92.5t31 -166q-1 -101 -31 -160.5zM223 267.5q11 -30.5 39.5 -45.5t83.5 -20v313q-55 -5 -83.5 -21
t-39.5 -48t-11 -92q0 -56 11 -86.5zM599.5 222q28.5 15 39.5 46t11 86q0 59 -11 91.5t-39 48.5t-84 21v-313q55 5 83.5 20z" />
    <glyph glyph-name="u0425" unicode="&#x425;" horiz-adv-x="661" 
d="M332 300h-3l-138 -300h-189l175 353l-161 337h187l125 -280h5l124 280h188l-161 -337l175 -353h-189z" />
    <glyph glyph-name="u0426" unicode="&#x426;" horiz-adv-x="724" 
d="M706 128v-279h-134l-14 151h-494v690h187v-562h189v562h188v-562h78z" />
    <glyph glyph-name="u0427" unicode="&#x427;" horiz-adv-x="677" 
d="M614 690v-690h-188v273q-50 -23 -104 -36t-95 -13q-96 0 -141 42.5t-45 131.5v292h188v-251q-1 -33 13.5 -46.5t53.5 -13.5q33 0 62.5 4.5t67.5 18.5v288h188z" />
    <glyph glyph-name="u0428" unicode="&#x428;" horiz-adv-x="997" 
d="M934 690v-690h-870v690h183v-562h160v562h183v-562h160v562h184z" />
    <glyph glyph-name="u0429" unicode="&#x429;" horiz-adv-x="1026" 
d="M1007 128v-279h-134l-13 151h-796v690h183v-562h158v562h183v-562h158v562h184v-562h77z" />
    <glyph glyph-name="u042A" unicode="&#x42a;" horiz-adv-x="776" 
d="M643.5 423.5q56.5 -20.5 81.5 -69t25 -136.5q0 -87 -24 -136t-73.5 -69.5t-133.5 -20.5q-107 0 -168.5 1.5t-123.5 6.5h-4v545h-210v145h399v-246h74q101 0 157.5 -20.5zM534 135q16 8 21.5 28t5.5 61t-6 62t-21.5 29.5t-47.5 8.5h-74v-197h74q32 0 48 8z" />
    <glyph glyph-name="u042B" unicode="&#x42b;" horiz-adv-x="929" 
d="M486.5 423.5q56.5 -20.5 81 -69t24.5 -136.5t-23.5 -137t-73.5 -69t-134 -20q-107 0 -168.5 1.5t-123.5 6.5h-5v690h188v-246h76q102 0 158.5 -20.5zM865 690v-690h-188v690h188zM376.5 135q15.5 8 21.5 28t6 61t-6 62t-22 29.5t-48 8.5h-76v-197h76q33 0 48.5 8z" />
    <glyph glyph-name="u042C" unicode="&#x42c;" horiz-adv-x="624" 
d="M490 423.5q57 -20.5 82 -69t25 -136.5q0 -87 -24 -136t-74 -69.5t-135 -20.5q-109 0 -170.5 1.5t-124.5 6.5h-5v690h187v-246h80q102 0 159 -20.5zM381 135q16 8 22 28t6 61t-6 62t-22.5 29.5t-49.5 8.5h-80v-197h80q34 0 50 8z" />
    <glyph glyph-name="u042D" unicode="&#x42d;" horiz-adv-x="599" 
d="M434.5 667.5q66.5 -34.5 96.5 -112t30 -210.5t-30 -210.5t-96.5 -112t-181.5 -34.5q-76 0 -126.5 7t-99.5 24l15 138q44 -6 89 -7.5t123 -1.5q41 0 64 13t34 45t14 90h-275v121h274q-6 71 -30.5 98t-80.5 27q-103 0 -207 -3l-14 138q51 14 98 19.5t122 5.5
q115 0 181.5 -34.5z" />
    <glyph glyph-name="u042E" unicode="&#x42e;" horiz-adv-x="998" 
d="M834 672.5q66 -31.5 95.5 -109t29.5 -218.5t-29.5 -218.5t-95.5 -109t-183 -31.5q-102 0 -162.5 27.5t-90 93.5t-34.5 186h-112v-293h-188v690h188v-270h113q7 110 37.5 171.5t90 87t158.5 25.5q117 0 183 -31.5zM718 148.5q23 18.5 32.5 64t10.5 132.5
q-1 87 -10.5 132.5t-32.5 64t-67 18.5q-43 0 -64.5 -18.5t-30.5 -64t-9 -132.5t9 -132.5t30.5 -64t64.5 -18.5q44 0 67 18.5z" />
    <glyph glyph-name="u042F" unicode="&#x42f;" horiz-adv-x="651" 
d="M473 698q54 -2 115 -8v-690h-188v258h-75q-28 0 -41.5 -11t-20.5 -41l-46 -206h-197l54 212q11 52 41 75.5t66 29.5v6q-72 8 -102.5 51.5t-30.5 117.5q0 78 27.5 123.5t85.5 65t154 19.5q104 0 158 -2zM400 395v168h-81q-33 0 -50.5 -7t-24.5 -24.5t-8 -51.5
q0 -49 17.5 -67t65.5 -18h81z" />
    <glyph glyph-name="u0430" unicode="&#x430;" horiz-adv-x="584" 
d="M483.5 467.5q51.5 -43.5 51.5 -150.5v-317h-145l-17 73q-30 -37 -74 -61.5t-103 -24.5q-72 0 -119.5 37.5t-47.5 104.5v50q0 59 42.5 93t116.5 34h165v12q-1 32 -15.5 44.5t-53.5 12.5q-97 0 -213 -7l-16 118q55 10 135.5 17.5t136.5 7.5q105 0 156.5 -43.5zM256 115
q45 0 97 35v61h-104q-42 -1 -42 -39v-17q0 -40 49 -40z" />
    <glyph glyph-name="u0431" unicode="&#x431;" horiz-adv-x="605" 
d="M544 602q-39 -21 -74 -27.5t-85 -8.5q-32 -1 -53.5 -3t-43.5 -8q-67 -19 -91 -69q-10 -17 -14 -32t-8 -42h4q31 34 71 51t103 17q82 0 129 -24t68 -75t21 -136q0 -89 -24.5 -145t-80.5 -84t-151 -28q-124 0 -183 40.5t-74 105.5t-15 177q0 104 14.5 176t54.5 122.5
t114 76.5q32 11 64 15.5t74 7.5q51 4 84.5 10t68.5 21zM258.5 357.5q-16.5 -10.5 -22.5 -35.5t-6 -76q0 -54 6.5 -81.5t22 -38t46.5 -10.5t47 10.5t22.5 38t6.5 81.5q0 51 -6 76.5t-21.5 35.5t-45.5 10q-33 0 -49.5 -10.5z" />
    <glyph glyph-name="u0432" unicode="&#x432;" horiz-adv-x="583" 
d="M524 216.5q30 -32.5 30 -93.5q0 -51 -22.5 -79.5t-68.5 -40t-123 -11.5q-185 0 -287 6v499q92 6 258 6q86 0 133.5 -11.5t69 -40t21.5 -80.5q0 -54 -26 -81.5t-84 -31.5v-4q69 -5 99 -37.5zM352.5 378.5q-13.5 8.5 -50.5 8.5h-78v-84h83q34 0 46.5 9t12.5 34
q0 24 -13.5 32.5zM360 120q14 10 14 40q0 28 -14.5 38.5t-52.5 10.5h-83v-99h85q37 0 51 10z" />
    <glyph glyph-name="u0433" unicode="&#x433;" horiz-adv-x="472" 
d="M347.5 501.5q64.5 -2.5 116.5 -12.5l-9 -127h-185q-21 0 -30 -8.5t-9 -28.5v-325h-180v378q0 64 33.5 95t103.5 31q95 0 159.5 -2.5z" />
    <glyph glyph-name="u0434" unicode="&#x434;" horiz-adv-x="653" 
d="M636 122v-260h-120l-13 138h-355l-13 -138h-120v260h62q39 110 59 254q8 61 43 91t101 30h273v-375h83zM383 122v259h-45q-40 0 -44 -40q-23 -141 -58 -219h147z" />
    <glyph glyph-name="u0435" unicode="&#x435;" horiz-adv-x="578" 
d="M519 141l17 -111q-83 -42 -232 -42q-147 0 -209.5 62t-62.5 196q0 99 27 156.5t85 83t157 25.5q131 0 189.5 -43.5t58.5 -132.5q1 -70 -38.5 -102t-134.5 -32h-150q7 -41 28.5 -56.5t70.5 -15.5q91 0 194 12zM255 380.5q-16 -7.5 -23 -27t-9 -58.5h102q31 0 40 9.5
t9 34.5q0 29 -15.5 39t-57.5 10q-30 0 -46 -7.5z" />
    <glyph glyph-name="u0436" unicode="&#x436;" horiz-adv-x="841" 
d="M725 232.5q26 -15.5 44.5 -59.5t58.5 -173h-184q-36 110 -50 145.5t-26.5 45t-41.5 9.5h-32q6 -22 6 -42v-158h-159v158q0 20 6 42h-33q-27 0 -39 -9.5t-26.5 -45t-51.5 -145.5h-184q40 130 58.5 173.5t44 59t90.5 24.5v5q-56 7 -80 20t-38.5 45.5t-43.5 123.5
q-8 23 -15 46h178q30 -92 43 -125.5t26.5 -44.5t39.5 -11h32q-6 32 -6 62v119h158v-119q0 -33 -7 -62h31q27 0 40 11t26 43.5t43 126.5h179l-13 -42q-29 -94 -44 -126.5t-39 -46t-81 -20.5v-5q64 -9 90 -24.5z" />
    <glyph glyph-name="u0437" unicode="&#x437;" horiz-adv-x="527" 
d="M373 500q53 -10 78.5 -39t25.5 -87t-25 -84.5t-83 -31.5v-4q68 -5 98 -36.5t30 -93.5q0 -59 -26 -88.5t-75.5 -39t-136.5 -9.5q-137 0 -236 22l12 120q106 -11 211 -11q29 0 41.5 2.5t18 10.5t5.5 27q0 16 -5.5 23.5t-18.5 10.5t-42 4l-156 2v107l155 3q34 1 45 7.5
t11 27.5q0 22 -12.5 28t-54.5 6q-85 0 -186 -11l-11 119q81 25 186 25q98 0 151 -10z" />
    <glyph glyph-name="u0438" unicode="&#x438;" horiz-adv-x="620" 
d="M566 0l-162 -1v223q0 30 7 88h-4q-14 -42 -40 -83l-155 -227h-158v497h161v-234q0 -26 -7 -77h4q12 33 38 73l158 238h158v-497z" />
    <glyph glyph-name="u0439" unicode="&#x439;" horiz-adv-x="620" 
d="M566 0l-162 -1v223q0 30 7 88h-4q-14 -42 -40 -83l-155 -227h-158v497h161v-234q0 -26 -7 -77h4q12 33 38 73l158 238h158v-497zM483 718q2 -14 2 -20q0 -39 -21.5 -72t-61 -53t-91.5 -20t-92 20t-61.5 53t-21.5 72q0 6 2 20h115q-1 -7 -1 -18q0 -33 15 -47t44 -14
t43.5 14t14.5 47q0 11 -1 18h115z" />
    <glyph glyph-name="u043A" unicode="&#x43a;" horiz-adv-x="580" 
d="M468 232.5q25 -14.5 43 -58.5t56 -174h-189q-31 108 -43.5 142.5t-26 44.5t-46.5 10h-32q5 -23 5 -40v-157h-181v497h181v-117q0 -34 -7 -63h22q37 0 53.5 10.5t28 42.5t35.5 127h183l-16 -52q-27 -90 -40.5 -121t-36.5 -43t-79 -20v-5q65 -9 90 -23.5z" />
    <glyph glyph-name="u043B" unicode="&#x43b;" horiz-adv-x="608" 
d="M554 0h-181v376h-43q-22 0 -33.5 -10t-13.5 -32q-17 -148 -30 -209q-11 -71 -56 -103t-112 -32q-27 0 -60 5l-18 133q8 1 31.5 4.5t35.5 13t17 28.5q15 53 26 195q11 128 137 128h300v-497z" />
    <glyph glyph-name="u043C" unicode="&#x43c;" horiz-adv-x="804" 
d="M745 435l13 -435h-164l-13 365h-12l-59 -241q-10 -55 -68 -55h-81q-59 0 -69 55l-59 241h-12l-10 -365h-164l12 435q2 62 63 62h154q28 0 45.5 -14t21.5 -42l44 -185q4 -17 8 -53q0 -7 2 -21h8q2 12 4 32q1 7 2 17.5t4 24.5l43 185q4 28 21.5 42t46.5 14h157q60 0 62 -62
z" />
    <glyph glyph-name="u043D" unicode="&#x43d;" horiz-adv-x="617" 
d="M563 497v-497h-178v201h-152v-201h-179v497h179v-175h152v175h178z" />
    <glyph glyph-name="u043E" unicode="&#x43e;" horiz-adv-x="601" 
d="M458 485q58 -26 84 -83t26 -154t-26 -153t-84 -81.5t-157 -25.5t-157.5 25.5t-84.5 81.5t-26 153t26.5 154t84.5 83t157 26t157 -26zM252.5 372q-16.5 -11 -23 -39.5t-6.5 -84.5t6.5 -84t23 -38.5t48.5 -10.5t48 10.5t22.5 38.5t6.5 84t-6.5 84.5t-22.5 39.5t-48 11
t-48.5 -11z" />
    <glyph glyph-name="u043F" unicode="&#x43f;" horiz-adv-x="609" 
d="M556 0h-177v375h-149v-375h-176v498h502v-498z" />
    <glyph glyph-name="u0440" unicode="&#x440;" horiz-adv-x="614" 
d="M538 441.5q42 -67.5 42 -198.5q0 -99 -21 -154.5t-62 -78.5t-106 -23q-102 0 -159 45q5 -53 3 -108v-109h-181v682h146l14 -71q27 36 79.5 59.5t110.5 23.5q92 0 134 -67.5zM364.5 120.5q14.5 9.5 21.5 37.5t7 84t-6.5 84t-20 38t-38.5 10q-26 0 -46.5 -7.5t-46.5 -23.5
v-215q26 -9 44.5 -13t42.5 -4q28 0 42.5 9.5z" />
    <glyph glyph-name="u0441" unicode="&#x441;" horiz-adv-x="519" 
d="M396 503q54 -8 93 -26l-19 -113l-147 1q-39 0 -60 -10t-30.5 -35t-9.5 -71t9.5 -71t30.5 -35t60 -10q88 0 157 8l16 -115q-76 -38 -206 -38q-96 0 -151.5 25.5t-80.5 82t-25 153.5t25.5 154t81.5 82.5t152 25.5q50 0 104 -8z" />
    <glyph glyph-name="u0442" unicode="&#x442;" horiz-adv-x="526" 
d="M511 360h-157v-360h-181v360h-158v137h496v-137z" />
    <glyph glyph-name="u0443" unicode="&#x443;" horiz-adv-x="585" 
d="M582 497l-166 -492q-26 -83 -67 -126.5t-103 -66.5q-48 -19 -111 -19q-47 0 -94 9l15 118q49 -2 82.5 3t56.5 18q29 15 52 59h-33q-21 0 -36.5 11.5t-21.5 31.5l-154 454h193l75 -296q10 -56 14 -85h10q4 13 13 52l8 33l73 296h194z" />
    <glyph glyph-name="u0444" unicode="&#x444;" horiz-adv-x="765" 
d="M706 109q-27 -54 -85.5 -82.5t-156.5 -35.5v-176h-163v176q-98 7 -156.5 35.5t-85.5 82t-27 139.5t27 140.5t85.5 83t156.5 36.5v192h163v-192q98 -8 156.5 -36.5t85.5 -83t27 -140.5q0 -85 -27 -139zM538.5 149q22.5 30 22.5 99q0 71 -22.5 101t-83.5 37v-274
q61 7 83.5 37zM226 149q22 -30 83 -37v274q-61 -7 -83 -37t-22 -101q0 -69 22 -99z" />
    <glyph glyph-name="u0445" unicode="&#x445;" horiz-adv-x="588" 
d="M402 0l-108 199l-108 -199h-183l148 254l-136 243h181l98 -186l98 186h181l-136 -243l148 -254h-183z" />
    <glyph glyph-name="u0446" unicode="&#x446;" horiz-adv-x="644" 
d="M626 122v-260h-121l-13 138h-438v497h179v-375h136v375h179v-375h78z" />
    <glyph glyph-name="u0447" unicode="&#x447;" horiz-adv-x="588" 
d="M534 497v-497h-181v175q-78 -28 -156 -28q-82 0 -121 28.5t-39 88.5v233h180v-179q0 -20 9.5 -29t32.5 -9q46 0 94 17v200h181z" />
    <glyph glyph-name="u0448" unicode="&#x448;" horiz-adv-x="855" 
d="M801 497v-497h-747v497h175v-375h118v375h160v-375h119v375h175z" />
    <glyph glyph-name="u0449" unicode="&#x449;" horiz-adv-x="895" 
d="M877 122v-260h-121l-13 138h-689v497h175v-375h118v375h159v-375h119v375h175v-375h77z" />
    <glyph glyph-name="u044A" unicode="&#x44a;" horiz-adv-x="670" 
d="M550.5 319q51.5 -15 74 -51.5t22.5 -103.5q0 -65 -22 -102t-67.5 -52.5t-121.5 -15.5q-164 0 -254 6h-4v365h-163v132h338v-163h51q95 0 146.5 -15zM453 125q12 11 12 46t-11.5 46t-49.5 11h-51v-114h51q37 0 49 11z" />
    <glyph glyph-name="u044B" unicode="&#x44b;" horiz-adv-x="814" 
d="M428 319q52 -15 74.5 -51.5t22.5 -103.5q0 -65 -22 -102t-68 -52.5t-122 -15.5q-164 0 -254 6h-5v497h175v-163h52q95 0 147 -15zM760 497v-497h-183v497h183zM330.5 125q11.5 11 11.5 46t-11.5 46t-49.5 11h-52v-114h52q38 0 49.5 11z" />
    <glyph glyph-name="u044C" unicode="&#x44c;" horiz-adv-x="551" 
d="M431.5 319q52.5 -15 75 -51.5t22.5 -103.5q0 -65 -22.5 -102t-68.5 -52.5t-123 -15.5q-166 0 -256 6h-5v497h174v-163h56q95 0 147.5 -15zM334.5 125q12.5 11 12.5 46t-12.5 46t-50.5 11h-56v-114h56q38 0 50.5 11z" />
    <glyph glyph-name="u044D" unicode="&#x44d;" horiz-adv-x="550" 
d="M401.5 484q61.5 -25 89 -82t27.5 -156q0 -97 -27.5 -153t-89.5 -81t-167 -25q-64 0 -113.5 7t-94.5 23l14 114q97 -5 194 -5q38 0 57 5t29 21t13 49h-249v102h248q-6 41 -27.5 54.5t-70.5 13.5l-189 -1l-15 111q83 28 204 28q106 0 167.5 -25z" />
    <glyph glyph-name="u044E" unicode="&#x44e;" horiz-adv-x="852" 
d="M713 489q55 -22 80 -79t25 -163q0 -103 -25 -158t-80.5 -77t-153.5 -22q-85 0 -135 17.5t-76 61.5t-31 124h-82v-193h-181v497h181v-182h83q6 78 32.5 120t76 59t132.5 17q99 0 154 -22zM603 136.5q15 9.5 21 35t7 78.5q-1 53 -7 78.5t-21 35t-46 9.5q-33 0 -48 -9.5
t-20.5 -34.5t-5.5 -79t5.5 -79t20.5 -34.5t48 -9.5q31 0 46 9.5z" />
    <glyph glyph-name="u044F" unicode="&#x44f;" horiz-adv-x="577" 
d="M428.5 507.5q49.5 -1.5 94.5 -6.5v-501h-176v162h-66q-24 0 -33.5 -6t-12.5 -23l-31 -133h-186l39 157q9 28 35.5 39.5t59.5 14.5v4q-108 22 -108 134q0 65 19 98.5t67.5 47.5t141.5 14q107 0 156.5 -1.5zM347 273v108h-71q-35 0 -45.5 -9t-10.5 -37q0 -38 10.5 -50
t45.5 -12h71z" />
    <glyph glyph-name="u0450" unicode="&#x450;" horiz-adv-x="578" 
d="M519 141l17 -111q-83 -42 -232 -42q-147 0 -209.5 62t-62.5 196q0 99 27 156.5t85 83t157 25.5q131 0 189.5 -43.5t58.5 -132.5q1 -70 -38.5 -102t-134.5 -32h-150q7 -41 28.5 -56.5t70.5 -15.5q91 0 194 12zM255 380.5q-16 -7.5 -23 -27t-9 -58.5h102q31 0 40 9.5
t9 34.5q0 29 -15.5 39t-57.5 10q-30 0 -46 -7.5zM393 626l-51 -75l-241 105l73 120z" />
    <glyph glyph-name="u0451" unicode="&#x451;" horiz-adv-x="578" 
d="M144 614v60q0 36 36 36h60q35 0 35 -36v-60q0 -37 -35 -37h-60q-36 0 -36 37zM329 614v60q0 36 37 36h59q36 0 36 -36v-60q0 -37 -36 -37h-59q-37 0 -37 37zM519 141l17 -111q-83 -42 -232 -42q-147 0 -209.5 62t-62.5 196q0 99 27 156.5t85 83t157 25.5
q131 0 189.5 -43.5t58.5 -132.5q1 -70 -38.5 -102t-134.5 -32h-150q7 -41 28.5 -56.5t70.5 -15.5q91 0 194 12zM255 380.5q-16 -7.5 -23 -27t-9 -58.5h102q31 0 40 9.5t9 34.5q0 29 -15.5 39t-57.5 10q-30 0 -46 -7.5z" />
    <glyph glyph-name="u0452" unicode="&#x452;" horiz-adv-x="618" 
d="M547.5 384q36.5 -35 36.5 -104v-245q0 -75 -37.5 -140t-101.5 -95l-102 79q33 37 45.5 73t12.5 83v188q0 23 -10 32t-36 9q-42 0 -98 -22v-242h-182v463h-61v92h61v145h182v-145h169v-92h-169v-14q0 -45 -8 -103q46 36 95 54.5t96 18.5q71 0 107.5 -35z" />
    <glyph glyph-name="u0453" unicode="&#x453;" horiz-adv-x="472" 
d="M347.5 501.5q64.5 -2.5 116.5 -12.5l-9 -127h-185q-21 0 -30 -8.5t-9 -28.5v-325h-180v378q0 64 33.5 95t103.5 31q95 0 159.5 -2.5zM454 645l-242 -106l-51 76l219 149z" />
    <glyph glyph-name="u0454" unicode="&#x454;" horiz-adv-x="550" 
d="M524 17q-77 -30 -208 -30q-105 0 -166.5 25t-89 81t-27.5 153q0 100 27.5 156.5t88.5 81.5t167 25q66 0 113 -6t91 -22l-14 -111h-190q-49 1 -69.5 -12.5t-27.5 -54.5h249v-102h-250q3 -33 13.5 -49t29.5 -21t55 -5q97 0 195 5z" />
    <glyph glyph-name="u0455" unicode="&#x455;" horiz-adv-x="543" 
d="M381.5 504.5q69.5 -5.5 114.5 -14.5l-12 -110q-71 1 -211 1q-31 0 -44 -1t-18 -5.5t-5 -14.5q0 -12 8 -16.5t34 -11.5l20 -5l120 -32q67 -19 97 -51.5t30 -95.5q0 -62 -23.5 -96.5t-73.5 -48.5t-137 -14q-127 0 -243 19l12 110l174 -1q52 0 75.5 2t32 7t8.5 17
q0 11 -8 15.5t-35 12.5l-25 7l-116 32q-72 21 -98.5 57.5t-26.5 99.5q0 74 50.5 109t170.5 35q60 -1 129.5 -6.5z" />
    <glyph glyph-name="u0456" unicode="&#x456;" horiz-adv-x="296" 
d="M240 667v-52q0 -53 -53 -53h-78q-53 0 -53 53v52q0 54 53 54h78q53 0 53 -54zM239 0h-181v497h181v-497z" />
    <glyph glyph-name="u0457" unicode="&#x457;" horiz-adv-x="298" 
d="M121 674v-60q0 -37 -36 -37h-60q-36 0 -36 37v60q0 36 36 36h60q36 0 36 -36zM307 674v-60q0 -37 -36 -37h-60q-36 0 -36 37v60q0 36 36 36h60q36 0 36 -36zM240 0h-182v497h182v-497z" />
    <glyph glyph-name="u0458" unicode="&#x458;" horiz-adv-x="297" 
d="M238 675v-53q0 -53 -52 -53h-79q-53 0 -53 53v53q0 53 53 53h79q52 0 52 -53zM239 42q0 -75 -39.5 -139.5t-106.5 -95.5l-100 80q36 37 50.5 73.5t14.5 81.5v455h181v-455z" />
    <glyph glyph-name="u0459" unicode="&#x459;" horiz-adv-x="835" 
d="M718.5 316q50.5 -15 72.5 -51t22 -103q0 -65 -21.5 -101.5t-66 -51.5t-119.5 -15q-130 0 -240 6h-4v385h-36q-22 0 -31.5 -9t-12.5 -34q-14 -146 -38 -222q-41 -129 -165 -129q-21 0 -51 5l-11 124q33 5 51.5 14.5t27.5 37.5q10 28 17 75.5t16 127.5q14 122 138 122h262
v-166h47q92 0 142.5 -15zM626 122.5q12 11.5 12 46.5t-12 46t-50 11h-47v-115h47q38 0 50 11.5z" />
    <glyph glyph-name="u045A" unicode="&#x45a;" horiz-adv-x="829" 
d="M716.5 306q49.5 -14 70.5 -48t21 -96q0 -65 -21 -101.5t-64 -51.5t-115 -15q-162 0 -251 6h-3v209h-135v-209h-165v497h165v-177h135v177h170v-177h54q89 0 138.5 -14zM622 121.5q11 10.5 11 42.5q0 31 -10.5 41.5t-44.5 10.5h-54v-105h54q33 0 44 10.5z" />
    <glyph glyph-name="u045B" unicode="&#x45b;" horiz-adv-x="618" 
d="M547.5 384q36.5 -35 36.5 -104v-280h-183v223q0 23 -10 32t-36 9q-42 0 -98 -22v-242h-182v463h-61v92h61v145h182v-145h169v-92h-169v-14q0 -45 -8 -103q46 36 95 54.5t96 18.5q71 0 107.5 -35z" />
    <glyph glyph-name="u045C" unicode="&#x45c;" horiz-adv-x="580" 
d="M468 232.5q25 -14.5 43 -58.5t56 -174h-189q-31 108 -43.5 142.5t-26 44.5t-46.5 10h-32q5 -23 5 -40v-157h-181v497h181v-117q0 -34 -7 -63h22q37 0 53.5 10.5t28 42.5t35.5 127h183l-16 -52q-27 -90 -40.5 -121t-36.5 -43t-79 -20v-5q65 -9 90 -23.5zM499 645
l-242 -106l-51 76l219 149z" />
    <glyph glyph-name="u045D" unicode="&#x45d;" horiz-adv-x="620" 
d="M566 0l-162 -1v223q0 30 7 88h-4q-14 -42 -40 -83l-155 -227h-158v497h161v-234q0 -26 -7 -77h4q12 33 38 73l158 238h158v-497zM400 626l-51 -75l-241 105l73 120z" />
    <glyph glyph-name="u045E" unicode="&#x45e;" horiz-adv-x="585" 
d="M582 497l-166 -492q-26 -83 -67 -126.5t-103 -66.5q-48 -19 -111 -19q-47 0 -94 9l15 118q49 -2 82.5 3t56.5 18q29 15 52 59h-33q-21 0 -36.5 11.5t-21.5 31.5l-154 454h193l75 -296q10 -56 14 -85h10q4 13 13 52l8 33l73 296h194zM461 718q2 -14 2 -20q0 -39 -21.5 -72
t-61 -53t-91.5 -20t-92 20t-61.5 53t-21.5 72q0 6 2 20h115q-1 -7 -1 -18q0 -33 15 -47t44 -14t43.5 14t14.5 47q0 11 -1 18h115z" />
    <glyph glyph-name="u045F" unicode="&#x45f;" horiz-adv-x="614" 
d="M560 497v-497h-181l-11 -163h-122l-12 163h-180v497h178l2 -375h146l2 375h178z" />
    <glyph glyph-name="u0462" unicode="&#x462;" horiz-adv-x="655" 
d="M526.5 423.5q57.5 -20.5 82.5 -69t25 -136.5q0 -87 -24.5 -136t-74.5 -69.5t-135 -20.5q-109 0 -171 1.5t-124 6.5h-5v527h-113v109h113v97h187v-97h219v-109h-219v-83h80q102 0 159.5 -20.5zM417.5 135q16.5 8 22.5 28t6 61t-6 62t-23 29.5t-50 8.5h-80v-197h80
q34 0 50.5 8z" />
    <glyph glyph-name="u0463" unicode="&#x463;" horiz-adv-x="571" 
d="M451.5 319q52.5 -15 75 -51.5t22.5 -103.5q0 -65 -22.5 -102t-68.5 -52.5t-123 -15.5q-166 0 -256 6h-5v450h-80v92h80v148h174v-148h165v-92h-165v-116h56q95 0 147.5 -15zM354.5 125q12.5 11 12.5 46t-12.5 46t-50.5 11h-56v-114h56q38 0 50.5 11z" />
    <glyph glyph-name="u046A" unicode="&#x46a;" horiz-adv-x="908" 
d="M1 35q54 157 82 215.5t71 84t134 33.5v6l-196 246q-11 14 -11 29q0 17 12.5 29t32.5 12h655q20 0 32.5 -12t12.5 -29q0 -15 -11 -29l-195 -246v-6q91 -8 134 -33t70.5 -83t80.5 -212l14 -40h-196l-14 47q-40 131 -58 175t-39.5 56.5t-72.5 12.5q4 -52 4 -64v-227h-179
v227q0 21 5 64q-50 0 -72 -13t-40 -57.5t-58 -175.5q1 1 -14 -45h-196zM592 567h-278l138 -173z" />
    <glyph glyph-name="u046B" unicode="&#x46b;" horiz-adv-x="769" 
d="M0 20q43 118 64.5 159.5t52.5 57.5t106 27v4l-138 158q-12 15 -12 31t12 28t32 12h534q20 0 32.5 -12t12.5 -28q0 -18 -12 -31l-138 -158v-4q75 -11 106 -27t52.5 -57.5t64.5 -159.5l7 -20h-186l-23 69q-23 71 -33.5 94.5t-23.5 30.5t-45 7q3 -28 3 -46v-155h-168v155
q0 8 4 46q-31 0 -44.5 -7.5t-24 -31.5t-33.5 -93l-23 -69h-186zM488 388h-207l104 -116z" />
    <glyph glyph-name="u0472" unicode="&#x472;" 
d="M532 672.5q66 -31.5 96 -109t30 -218.5t-30 -218.5t-96 -109t-184 -31.5t-184 31.5t-95.5 109t-29.5 218.5t29.5 218.5t95.5 109t184 31.5t184 -31.5zM285.5 546.5q-22.5 -13.5 -34 -47t-14.5 -94.5h222q-3 61 -14.5 94.5t-34 47t-62.5 13.5t-62.5 -13.5zM411 144.5
q23 14.5 34 49.5t14 99h-222q3 -64 14 -99t34 -49.5t63 -14.5t63 14.5z" />
    <glyph glyph-name="u0473" unicode="&#x473;" horiz-adv-x="601" 
d="M458 485q58 -26 84 -83t26 -154t-26 -153t-84 -81.5t-157 -25.5t-157.5 25.5t-84.5 81.5t-26 153t26.5 154t84.5 83t157 26t157 -26zM239 364.5q-18 -18.5 -22 -70.5h167q-4 52 -22 70.5t-61 18.5q-44 0 -62 -18.5zM348 123q17 8 25.5 28t10.5 59h-167q2 -39 10.5 -59
t25.5 -28t48 -8q30 0 47 8z" />
    <glyph glyph-name="u0474" unicode="&#x474;" horiz-adv-x="693" 
d="M202 14q-18 14 -23 37l-177 639h193l106 -471q8 -38 14 -78h25q2 12 8 46l6 32l60 329q28 156 175 156q62 0 105 -9v-140q-16 3 -38 3q-33 0 -50.5 -13.5t-25.5 -48.5l-104 -445q-5 -23 -23 -37t-42 -14h-167q-24 0 -42 14z" />
    <glyph glyph-name="u0475" unicode="&#x475;" horiz-adv-x="574" 
d="M163 12q-15 12 -21 32l-140 451h171l78 -314q6 -27 11 -57h20q4 26 11 56l42 194q11 56 42.5 93.5t101.5 37.5q55 0 95 -8v-125l-32 2q-27 0 -42 -10.5t-22 -38.5l-75 -281q-5 -20 -20.5 -32t-36.5 -12h-147q-21 0 -36 12z" />
    <glyph glyph-name="u048A" unicode="&#x48a;" horiz-adv-x="765" 
d="M277.5 758q-39.5 20 -61 52.5t-21.5 70.5q0 8 2 22h114q-1 -7 -1 -18q0 -33 15 -47t44 -14t44 14t15 47q0 12 -1 18h114q2 -14 2 -20q0 -39 -21.5 -72t-61 -53t-91.5 -20t-91.5 20zM745 128v-128l-36 -151h-135l22 151h-115v360q0 44 10 101h-7q-18 -57 -41 -99
l-198 -362h-181v690h178v-351q0 -45 -10 -105h7q19 57 42 99l198 357h181v-562h85z" />
    <glyph glyph-name="u048B" unicode="&#x48b;" horiz-adv-x="662" 
d="M219 573q-40 20 -61.5 53t-21.5 72q0 6 2 20h115q-1 -7 -1 -18q0 -33 15 -47t44 -14t43.5 14t14.5 47q0 11 -1 18h115q2 -14 2 -20q0 -39 -21.5 -72t-61 -53t-91.5 -20t-92 20zM643 118v-118l-35 -138h-124l29 138l-109 -1v223q0 30 7 88h-4q-14 -42 -40 -83l-155 -227
h-158v497h161v-234q0 -26 -7 -77h4q12 33 38 73l158 238h158v-379h77z" />
    <glyph glyph-name="u048C" unicode="&#x48c;" horiz-adv-x="647" 
d="M534 423.5q57 -20.5 82 -69t25 -136.5q0 -87 -24 -136t-74 -69.5t-135 -20.5q-109 0 -171 1.5t-125 6.5h-5v507h-120v109h120v74h188v-74h211v-109h-211v-63h79q103 0 160 -20.5zM424.5 135q16.5 8 22.5 28t6 61t-6 62t-22.5 29.5t-50.5 8.5h-79v-197h79q34 0 50.5 8z
" />
    <glyph glyph-name="u048D" unicode="&#x48d;" horiz-adv-x="571" 
d="M451.5 319q52.5 -15 75 -51.5t22.5 -103.5q0 -65 -22.5 -102t-68.5 -52.5t-123 -15.5q-166 0 -256 6h-5v450h-80v92h80v148h174v-148h165v-92h-165v-116h56q95 0 147.5 -15zM354.5 125q12.5 11 12.5 46t-12.5 46t-50.5 11h-56v-114h56q38 0 50.5 11z" />
    <glyph glyph-name="u048E" unicode="&#x48e;" horiz-adv-x="640" 
d="M572 180l-75 75q-51 -16 -133 -16q-51 0 -116 7v-246h-188v690q63 6 118 8t160 2q106 0 164 -20.5t82.5 -69.5t24.5 -141q0 -66 -11.5 -108.5t-37.5 -68.5l62 -62zM379 372l-66 66l50 50l68 -67q4 17 4 48q0 41 -8.5 62.5t-30 30t-62.5 8.5h-86v-201h86q27 0 45 3z" />
    <glyph glyph-name="u048F" unicode="&#x48f;" horiz-adv-x="611" 
d="M557.5 93.5q-19.5 -55.5 -58.5 -80.5l57 -81l-58 -41l-69 98q-26 -2 -41 -2q-100 0 -159 45q5 -62 4 -108v-109h-182v682h146l15 -70q27 35 79.5 58.5t109.5 23.5q92 0 134 -67.5t42 -198.5q0 -94 -19.5 -149.5zM347 106l-59 84l57 41l52 -73q7 28 7 84t-8 84t-24.5 38
t-46.5 10q-26 0 -45.5 -7.5t-46.5 -23.5v-222q27 -9 44.5 -13t41.5 -4q20 0 28 2z" />
    <glyph glyph-name="u0490" unicode="&#x490;" horiz-adv-x="547" 
d="M539 843v-165l-8 -131h-235q-47 0 -47 -45v-502h-188v541q0 67 43 109.5t111 42.5q125 0 186 -2l14 152h124z" />
    <glyph glyph-name="u0491" unicode="&#x491;" horiz-adv-x="488" 
d="M479 640v-151l-9 -127h-200q-21 0 -30 -8.5t-9 -28.5v-325h-180v378q0 64 33.5 95t103.5 31q105 0 158 -2l14 138h119z" />
    <glyph glyph-name="u0492" unicode="&#x492;" horiz-adv-x="574" 
d="M284 502v-138h202v-109h-202v-255h-188v255h-112v109h112v177q0 67 43.5 109.5t110.5 42.5q112 0 186.5 -2t135.5 -10l-9 -134h-231q-48 0 -48 -45z" />
    <glyph glyph-name="u0493" unicode="&#x493;" horiz-adv-x="493" 
d="M368.5 501.5q64.5 -2.5 116.5 -12.5l-9 -127h-185q-21 0 -30 -8.5t-9 -28.5v-92h27v-52h-27v-181h-180v378q0 64 33.5 95t103.5 31q95 0 159.5 -2.5z" />
    <glyph glyph-name="u0494" unicode="&#x494;" horiz-adv-x="621" 
d="M548 380.5q48 -64.5 48 -216.5q0 -174 -77.5 -250.5t-205.5 -94.5l-20 130q48 19 72 42.5t33.5 62.5t9.5 107q0 56 -7 85t-22.5 40t-44.5 11q-44 0 -88 -17v-280h-188v541q0 67 43 109.5t111 42.5q112 0 187 -2t137 -10l-9 -134h-234q-47 0 -47 -45v-96q37 19 79 29
t78 10q97 0 145 -64.5z" />
    <glyph glyph-name="u0495" unicode="&#x495;" horiz-adv-x="567" 
d="M504.5 238.5q45.5 -51.5 45.5 -157.5q0 -142 -74 -209t-192 -81l-20 122q58 20 80 55t22 99q0 50 -13.5 69t-48.5 19q-37 0 -73 -18v-137h-180v378q0 64 33.5 95t103.5 31q97 0 161.5 -2.5t116.5 -12.5l-8 -120h-188q-21 0 -30 -8.5t-9 -27.5v-79q65 36 142 36
q86 0 131.5 -51.5z" />
    <glyph glyph-name="u0496" unicode="&#x496;" horiz-adv-x="971" 
d="M974 128v-279h-135l-13 151h-83l-19 62q-35 114 -50.5 156.5t-33.5 59.5t-50 17h-34q8 -35 8 -64v-231h-179v231q0 31 9 64h-36q-31 0 -48.5 -17t-33 -59t-50.5 -154l-20 -65h-196l11 37q41 145 62.5 201t55 82.5t100.5 36.5v6q-60 8 -90.5 31.5t-48.5 69t-50 155.5
l-21 71h191l14 -49q29 -98 44 -139.5t33 -61t48 -19.5h36q-9 42 -9 86v183h178v-183q0 -41 -8 -86h32q30 0 48.5 19.5t33 59.5t44.5 139l15 51h191q-18 -61 -22 -76q-32 -108 -50 -152.5t-48.5 -67.5t-89.5 -31v-6q59 -9 90.5 -29.5t53 -64t48.5 -135.5h72z" />
    <glyph glyph-name="u0497" unicode="&#x497;" horiz-adv-x="870" 
d="M869 122v-260h-120l-14 138h-91q-36 110 -50 145.5t-26.5 45t-41.5 9.5h-32q6 -22 6 -42v-158h-159v158q0 20 6 42h-33q-27 0 -39 -9.5t-26.5 -45t-51.5 -145.5h-184q40 130 58.5 173.5t44 59t90.5 24.5v5q-56 7 -80 20t-38.5 45.5t-43.5 123.5q-8 23 -15 46h178
q30 -92 43 -125.5t26.5 -44.5t39.5 -11h32q-6 32 -6 62v119h158v-119q0 -33 -7 -62h31q27 0 40 11t26 43.5t43 126.5h179l-13 -42q-29 -94 -44 -126.5t-39 -46t-81 -20.5v-5q52 -7 76 -17t41 -35.5t37 -82.5h80z" />
    <glyph glyph-name="u0498" unicode="&#x498;" horiz-adv-x="577" 
d="M420 682.5q52 -15.5 75.5 -54.5t23.5 -110q0 -75 -28 -113t-91 -44v-6q75 -7 107.5 -52t32.5 -131q0 -70 -24.5 -109t-74.5 -55t-136 -16q-92 0 -156 7.5t-125 26.5l14 125q134 -21 230 -21q47 0 63.5 16t16.5 63q0 35 -7 53t-24.5 25t-50.5 7l-143 3v121l142 3
q40 0 54 14.5t14 56.5q0 41 -15 54.5t-57 13.5q-92 0 -210 -14l-14 131q52 11 106.5 16t130.5 5q94 0 146 -15.5zM307 -29q42 0 61 -13.5t19 -49.5q0 -73 -48.5 -113t-127.5 -40q-21 0 -42 3l20 72q38 0 61 11.5t26 42.5q1 8 -3.5 11t-21 3.5t-42.5 0.5l17 66q64 6 81 6z
" />
    <glyph glyph-name="u0499" unicode="&#x499;" horiz-adv-x="527" 
d="M458.5 23.5q-38.5 -28.5 -124.5 -34.5l-9 -152h-122l-11 151q-90 3 -169 21l12 120q106 -11 211 -11q29 0 41.5 2.5t18 10.5t5.5 27q0 16 -5.5 23.5t-18.5 10.5t-42 4l-156 2v107l155 3q34 1 45 7.5t11 27.5q0 22 -12.5 28t-54.5 6q-85 0 -186 -11l-11 119q81 25 186 25
q98 0 151 -10t78.5 -39t25.5 -87t-25 -84.5t-83 -31.5v-4q68 -5 98 -36.5t30 -93.5q0 -72 -38.5 -100.5z" />
    <glyph glyph-name="u049A" unicode="&#x49a;" horiz-adv-x="668" 
d="M678 128v-279h-133l-14 151h-79l-10 35q-36 126 -54 174t-42 67t-71 19h-35q8 -35 8 -64v-231h-187v690h187v-183q0 -41 -8 -86h33q46 0 71.5 21.5t41.5 68t46 158.5l6 21h190l-19 -64q-34 -114 -53.5 -160.5t-51 -70.5t-93.5 -32v-6q60 -9 92.5 -29.5t55 -64
t50.5 -135.5h69z" />
    <glyph glyph-name="u049B" unicode="&#x49b;" horiz-adv-x="605" 
d="M605 122v-260h-120l-14 138h-93q-31 108 -43.5 142.5t-26 44.5t-46.5 10h-32q5 -23 5 -40v-157h-181v497h181v-117q0 -34 -7 -63h22q37 0 53.5 10.5t28 42.5t35.5 127h183l-16 -52q-27 -90 -40.5 -121t-36.5 -43t-79 -20v-5q53 -7 76 -16t40 -34.5t36 -83.5h75z" />
    <glyph glyph-name="u049C" unicode="&#x49c;" horiz-adv-x="673" 
d="M540 321q34 -26 56.5 -81.5t65.5 -198.5l12 -41h-196q-2 6 -7 26q-30 104 -44.5 149t-30.5 72t-38 38v-119h-77v129h-50q8 -35 8 -64v-231h-178v690h178v-183q0 -44 -9 -86h51v132h77v-119q23 13 38.5 42t28.5 72.5t39 141.5h191l-21 -69q-33 -111 -52.5 -157t-51 -69.5
t-92.5 -31.5v-6q68 -10 102 -36z" />
    <glyph glyph-name="u049D" unicode="&#x49d;" horiz-adv-x="606" 
d="M493.5 232.5q24.5 -14.5 42 -58t56.5 -174.5h-189q-23 80 -33.5 113.5t-21 52t-24.5 24.5v-94h-60v101h-34q5 -23 5 -40v-157h-181v497h181v-117q0 -34 -7 -63h33h3v100h60v-90q20 11 32 43.5t36 126.5h184l-16 -53q-28 -89 -42 -120t-36.5 -43t-77.5 -20v-5
q65 -9 89.5 -23.5z" />
    <glyph glyph-name="u049E" unicode="&#x49e;" horiz-adv-x="689" 
d="M557 321q34 -26 56.5 -82t64.5 -200l12 -39h-195l-10 35q-36 126 -54 174t-42 67t-71 19h-34q8 -35 8 -64v-231h-188v511h-117v109h117v70h188v-70h103v-109h-103v-4q0 -44 -9 -86h33q46 0 71.5 21.5t41.5 68t46 158.5l6 21h190l-19 -64q-34 -114 -53.5 -160.5t-51 -70.5
t-93.5 -32v-6q69 -10 103 -36z" />
    <glyph glyph-name="u049F" unicode="&#x49f;" horiz-adv-x="580" 
d="M468 232.5q25 -14.5 43 -58.5t56 -174h-189q-31 108 -43.5 142.5t-26 44.5t-46.5 10h-32q5 -23 5 -40v-157h-181v534h-61v91h61v65h181v-65h162v-91h-162v-154q0 -34 -7 -63h22q37 0 53.5 10.5t28 42.5t35.5 127h183l-16 -52q-27 -90 -40.5 -121t-36.5 -43t-79 -20v-5
q65 -9 90 -23.5z" />
    <glyph glyph-name="u04A0" unicode="&#x4a0;" horiz-adv-x="778" 
d="M645 321q34 -26 56.5 -81.5t65.5 -198.5l12 -41h-196q-5 21 -10 34q-36 126 -53.5 174.5t-41.5 67.5t-71 19h-35q8 -35 8 -64v-231h-187v573h-113v90h113v27h187v-183q0 -44 -9 -86h34q48 0 73 23.5t41.5 71.5t49.5 174h191l-21 -69q-33 -111 -52.5 -157t-51 -69.5
t-92.5 -31.5v-6q68 -10 102 -36z" />
    <glyph glyph-name="u04A1" unicode="&#x4a1;" horiz-adv-x="683" 
d="M570.5 232.5q24.5 -14.5 42 -58t56.5 -174.5h-189q-31 108 -43.5 142.5t-26 44.5t-46.5 10h-32q5 -23 5 -40v-157h-181v365h-163v132h344v-117q0 -34 -7 -63h22q38 0 54.5 10.5t27.5 43t35 126.5h184q-10 -34 -15 -48q-27 -91 -41.5 -123t-37 -44t-78.5 -21v-5
q65 -9 89.5 -23.5z" />
    <glyph glyph-name="u04A2" unicode="&#x4a2;" horiz-adv-x="722" 
d="M722 128v-279h-135l-13 151h-120v298h-205v-298h-188v690h188v-255h205v255h188v-562h80z" />
    <glyph glyph-name="u04A3" unicode="&#x4a3;" horiz-adv-x="644" 
d="M640 122v-260h-120l-13 138h-122v201h-152v-201h-179v497h179v-175h152v175h178v-375h77z" />
    <glyph glyph-name="u04A4" unicode="&#x4a4;" horiz-adv-x="877" 
d="M750 691q65 -2 119 -10l-8 -134h-192q-48 0 -48 -45v-502h-187v298h-186v-298h-187v690h187v-255h186v106q0 67 43 109.5t110 42.5q98 0 163 -2z" />
    <glyph glyph-name="u04A5" unicode="&#x4a5;" horiz-adv-x="759" 
d="M650 501.5q55 -2.5 100 -12.5l-9 -127h-148q-21 0 -30 -8.5t-9 -28.5v-325h-180v201h-141v-201h-179v497h179v-175h141v56q0 64 33.5 95t103.5 31q84 0 139 -2.5z" />
    <glyph glyph-name="u04A6" unicode="&#x4a6;" horiz-adv-x="1014" 
d="M941.5 386q47.5 -66 47.5 -222q0 -172 -77.5 -248.5t-205.5 -93.5l-20 130q48 19 72 42.5t33.5 61.5t9.5 105q0 60 -7 90t-22.5 41.5t-44.5 11.5q-45 0 -89 -18v-286h-188v562h-202v-562h-187v690h577v-278q37 19 79 29.5t79 10.5q98 0 145.5 -66z" />
    <glyph glyph-name="u04A7" unicode="&#x4a7;" horiz-adv-x="909" 
d="M887 149q0 -301 -262 -336l-20 119q42 18 64 43t31 64.5t9 106.5q0 61 -14.5 85t-49.5 24q-44 0 -89 -23v-232h-177v375h-149v-375h-176v498h502v-151q33 23 72.5 35.5t78.5 12.5q180 0 180 -246z" />
    <glyph glyph-name="u04A8" unicode="&#x4a8;" horiz-adv-x="942" 
d="M870.5 -6q-38.5 -6 -85.5 -6q-101 0 -184 42q-100 -42 -220 -42q-166 0 -254 91t-88 276t81.5 265.5t241.5 80.5v-136q-65 0 -95.5 -46.5t-30.5 -162.5q0 -230 189 -230q24 0 54 5q-45 56 -69 132t-24 169q0 139 57 203.5t170 64.5q254 0 254 -248q0 -98 -33.5 -183
t-96.5 -147q25 -6 52 -6q59 0 124 5l17 -110q-21 -11 -59.5 -17zM581 530.5q-13 -28.5 -13 -91.5q0 -146 50 -227q67 85 67 237q0 58 -13 84t-44 26q-34 0 -47 -28.5z" />
    <glyph glyph-name="u04A9" unicode="&#x4a9;" horiz-adv-x="767" 
d="M640 -9q-82 0 -150 35q-84 -35 -182 -35q-141 0 -208.5 67.5t-67.5 204.5q0 132 63.5 190t190.5 58v-115q-37 0 -58 -34t-21 -99q0 -80 33 -117.5t104 -37.5q16 0 42 2q-35 43 -53.5 98t-18.5 119q0 94 49.5 139.5t135.5 45.5q100 0 156.5 -47t56.5 -138
q0 -61 -27.5 -120t-78.5 -107q18 -3 38 -3q67 0 113 11l19 -82q-41 -35 -136 -35zM472 319q0 -100 37 -154q45 51 45 154q0 37 -9.5 55.5t-30.5 18.5q-42 0 -42 -74z" />
    <glyph glyph-name="u04AA" unicode="&#x4aa;" horiz-adv-x="596" 
d="M419 -10l-6 -141h-135l-6 143q-85 10 -136 48.5t-74 112.5t-23 192q0 133 29.5 210.5t95 112t177.5 34.5q75 0 121 -5.5t97 -19.5l-14 -138q-102 3 -204 3q-42 0 -64.5 -17t-31.5 -59t-9 -121t9 -121t31.5 -59t64.5 -17q79 0 126 1.5t92 6.5l15 -137q-65 -23 -155 -29z
" />
    <glyph glyph-name="u04AB" unicode="&#x4ab;" horiz-adv-x="518" 
d="M353 -9l-10 -154h-122l-11 156q-97 14 -137.5 73.5t-40.5 182.5q0 97 25.5 154t81.5 82.5t153 25.5q49 0 103 -8t93 -26l-18 -113l-147 1q-39 0 -60.5 -10t-30.5 -34.5t-9 -71.5t9 -71.5t30.5 -34.5t60.5 -10q87 0 156 8l17 -115q-58 -28 -143 -35z" />
    <glyph glyph-name="u04AC" unicode="&#x4ac;" horiz-adv-x="613" 
d="M599 545h-199v-442h25v-78h-25v-25h-188v545h-198v145h585v-145zM354 -37h105l-3 -70h-90z" />
    <glyph glyph-name="u04AD" unicode="&#x4ad;" horiz-adv-x="536" 
d="M359 372v-250h77v-260h-120l-14 138h-125v372h-168v125h518v-125h-168z" />
    <glyph glyph-name="u04AE" unicode="&#x4ae;" horiz-adv-x="633" 
d="M411 221v-221h-188v219l-228 471h194l99 -233q13 -30 23 -93h12q1 6 7 37.5t16 55.5l99 233h193z" />
    <glyph glyph-name="u04AF" unicode="&#x4af;" horiz-adv-x="643" 
d="M414 33v-218h-184v216l-228 466h193l98 -229q10 -23 18 -67l6 -25h11q2 9 8 39.5t15 53.5l97 228h194z" />
    <glyph glyph-name="u04B0" unicode="&#x4b0;" horiz-adv-x="595" 
d="M449 296h98v-104h-135v-192h-187v192h-139v104h102l-192 394h194l100 -233q10 -24 15.5 -54.5t7.5 -38.5h11q1 5 7 36.5t17 56.5l98 233h194z" />
    <glyph glyph-name="u04B1" unicode="&#x4b1;" horiz-adv-x="643" 
d="M448 103h103v-92h-137v-196h-184v196h-137v92h102l-193 394h193l98 -229q10 -23 18 -67l6 -25h11q2 9 8 39.5t15 53.5l97 228h194z" />
    <glyph glyph-name="u04B2" unicode="&#x4b2;" horiz-adv-x="732" 
d="M736 128v-279h-135l-13 151h-119v2l-137 298h-3l-138 -300h-189l175 353l-161 337h187l125 -280h5l124 280h188l-161 -337l112 -225h140z" />
    <glyph glyph-name="u04B3" unicode="&#x4b3;" horiz-adv-x="588" 
d="M588 122v-260h-120l-14 138h-52l-108 200l-109 -200h-182l148 254l-137 243h182l98 -187l97 187h182l-137 -243l77 -132h75z" />
    <glyph glyph-name="u04B4" unicode="&#x4b4;" horiz-adv-x="844" 
d="M515 545h-501v145h501v-145zM843 7v-158h-135l-13 151h-488v524h294v-231h75v397h188v-683h79z" />
    <glyph glyph-name="u04B5" unicode="&#x4b5;" horiz-adv-x="770" 
d="M766 128v-266h-121l-13 138h-486v372h-137v125h436v-125h-117v-244h180v369h183v-369h75z" />
    <glyph glyph-name="u04B6" unicode="&#x4b6;" horiz-adv-x="692" 
d="M692 124v-124h-1l-13 -151h-135v151h-120v271q-50 -22 -102.5 -34.5t-93.5 -12.5q-96 0 -141 42.5t-45 131.5v292h188v-251q-1 -32 14 -46t54 -14q33 0 61 4t65 17v290h188v-566h81z" />
    <glyph glyph-name="u04B7" unicode="&#x4b7;" horiz-adv-x="621" 
d="M607 122v-260h-120l-14 138h-124v175q-78 -28 -154 -28q-81 0 -119.5 28.5t-38.5 88.5v233h180v-179q0 -20 9.5 -29t31.5 -9q45 0 91 17v200h181l-1 -375h78z" />
    <glyph glyph-name="u04B8" unicode="&#x4b8;" horiz-adv-x="674" 
d="M614 690v-690h-181v273q-30 -14 -64 -24v-129h-77v110q-36 -6 -65 -6q-96 0 -141 42.5t-45 131.5v292h183v-251q0 -32 15 -46t53 -14v145h77v-139q35 7 64 17v288h181z" />
    <glyph glyph-name="u04B9" unicode="&#x4b9;" horiz-adv-x="596" 
d="M544 497v-497h-180v176q-30 -10 -46 -14v-87h-60v76q-28 -4 -63 -4q-81 0 -119.5 28.5t-38.5 88.5v233h176v-179q0 -20 10 -29t35 -9v110h60v-104q20 3 46 12v199h180z" />
    <glyph glyph-name="u04BA" unicode="&#x4ba;" horiz-adv-x="654" 
d="M588.5 423.5q45.5 -42.5 45.5 -131.5v-292h-188v251q0 35 -14 47.5t-55 12.5q-66 0 -129 -21v-290h-187v690h187v-271q50 22 104.5 34.5t94.5 12.5q96 0 141.5 -42.5z" />
    <glyph glyph-name="u04BB" unicode="&#x4bb;" horiz-adv-x="611" 
d="M526.5 475.5q36.5 -35.5 36.5 -103.5v-372h-182v315q0 24 -9 33t-32 9q-24 0 -48.5 -6t-58.5 -20v-331h-182v700h182l1 -159q0 -57 -10 -107q48 38 98 57.5t97 19.5q71 0 107.5 -35.5z" />
    <glyph glyph-name="u04BC" unicode="&#x4bc;" horiz-adv-x="760" 
d="M697 159l16 -138q-36 -14 -96 -23.5t-128 -9.5q-113 0 -178.5 31t-96 96t-35.5 173q-104 1 -153 38.5t-49 116.5q0 26 4 50h131q-3 -16 -3 -30q0 -29 17.5 -42.5t53.5 -13.5q6 115 39.5 179.5t96.5 90.5t166 26q91 0 147 -21t82.5 -68t26.5 -126q0 -76 -24 -119.5
t-74.5 -62t-135.5 -18.5h-128q3 -64 17.5 -93.5t43 -37.5t86.5 -8q97 0 174 10zM420 539.5q-20 -12.5 -30.5 -43.5t-13.5 -89h100q46 0 65.5 15.5t19.5 54.5q0 40 -19.5 57.5t-65.5 17.5q-36 0 -56 -12.5z" />
    <glyph glyph-name="u04BD" unicode="&#x4bd;" horiz-adv-x="700" 
d="M642 141l17 -111q-84 -42 -232 -42q-134 0 -197.5 51.5t-72.5 161.5q-81 2 -120.5 33.5t-39.5 104.5q0 27 4 54h114q-4 -19 -4 -37q0 -55 46 -60q6 79 35.5 126t85.5 68t146 21q132 0 190 -44t58 -135q0 -68 -40 -99.5t-134 -31.5h-149q7 -41 28.5 -56.5t70.5 -15.5
q91 0 194 12zM378 380.5q-16 -7.5 -23 -27t-9 -58.5h101q31 0 40.5 9.5t9.5 34.5q0 29 -15.5 39t-57.5 10q-30 0 -46 -7.5z" />
    <glyph glyph-name="u04BE" unicode="&#x4be;" horiz-adv-x="753" 
d="M713 21q-30 -11 -76 -19.5t-100 -12.5l-6 -140h-128l-7 145q-113 18 -162 87.5t-55 206.5q-104 1 -153 38.5t-49 116.5q0 26 4 50h131q-3 -16 -3 -30q0 -29 17.5 -42.5t53.5 -13.5q6 115 39.5 179.5t96.5 90.5t166 26q91 0 147 -21t82.5 -68t26.5 -126q0 -76 -24 -119.5
t-74.5 -62t-135.5 -18.5h-128q3 -64 17.5 -93.5t43 -37.5t86.5 -8q97 0 174 10zM420 539.5q-20 -12.5 -30.5 -43.5t-13.5 -89h100q46 0 65.5 15.5t19.5 54.5q0 40 -19.5 57.5t-65.5 17.5q-36 0 -56 -12.5z" />
    <glyph glyph-name="u04BF" unicode="&#x4bf;" horiz-adv-x="700" 
d="M659 30q-68 -33 -168 -40l-10 -153h-122l-11 156q-92 14 -137.5 65t-53.5 143q-81 2 -120.5 33.5t-39.5 104.5q0 27 4 54h114q-4 -19 -4 -37q0 -55 46 -60q6 79 35.5 126t85.5 68t146 21q132 0 190 -44t58 -135q0 -68 -40 -99.5t-134 -31.5h-149q7 -41 28.5 -56.5
t70.5 -15.5q91 0 194 12zM378 380.5q-16 -7.5 -23 -27t-9 -58.5h101q31 0 40.5 9.5t9.5 34.5q0 29 -15.5 39t-57.5 10q-30 0 -46 -7.5z" />
    <glyph glyph-name="u04C0" unicode="&#x4c0;" horiz-adv-x="309" 
d="M248 0h-187v690h187v-690z" />
    <glyph glyph-name="u04C1" unicode="&#x4c1;" horiz-adv-x="954" 
d="M813 320.5q33 -26.5 55 -82.5t63 -201l11 -37h-197q-10 32 -18 60q-35 115 -51 157.5t-34 60t-50 17.5h-33q8 -35 8 -64v-231h-179v231q0 31 9 64h-36q-31 0 -48.5 -17t-33 -59t-50.5 -154l-20 -65h-196l11 37q41 145 62.5 201t55 82.5t100.5 36.5v6q-60 8 -90.5 31.5
t-48.5 69t-50 155.5l-21 71h190q3 -13 6.5 -23.5l6.5 -19.5q29 -101 44.5 -143.5t34 -62.5t48.5 -20h35q-9 42 -9 86v183h179v-183q0 -41 -8 -86h32q30 0 48.5 19.5t33 59.5t44.5 139l15 51h190l-21 -71q-32 -110 -50 -155.5t-48.5 -69t-90.5 -31.5v-6q68 -10 101 -36.5z
M650 903q2 -14 2 -20q0 -39 -21.5 -72t-61 -53t-91.5 -20t-92 20t-61.5 53t-21.5 72q0 6 2 20h115q-1 -7 -1 -18q0 -33 15 -47t44 -14t43.5 14t14.5 47q0 11 -1 18h115z" />
    <glyph glyph-name="u04C2" unicode="&#x4c2;" horiz-adv-x="841" 
d="M725 232.5q26 -15.5 44.5 -59.5t58.5 -173h-184q-36 110 -50 145.5t-26.5 45t-41.5 9.5h-32q6 -22 6 -42v-158h-159v158q0 20 6 42h-33q-27 0 -39 -9.5t-26.5 -45t-51.5 -145.5h-184q40 130 58.5 173.5t44 59t90.5 24.5v5q-56 7 -80 20t-38.5 45.5t-43.5 123.5
q-8 23 -15 46h178q30 -92 43 -125.5t26.5 -44.5t39.5 -11h32q-6 32 -6 62v119h158v-119q0 -33 -7 -62h31q27 0 40 11t26 43.5t43 126.5h179l-13 -42q-29 -94 -44 -126.5t-39 -46t-81 -20.5v-5q64 -9 90 -24.5zM596 718q2 -14 2 -20q0 -39 -21.5 -72t-61 -53t-91.5 -20
t-92 20t-61.5 53t-21.5 72q0 6 2 20h115q-1 -7 -1 -18q0 -33 15 -47t44 -14t43.5 14t14.5 47q0 11 -1 18h115z" />
    <glyph glyph-name="u04C3" unicode="&#x4c3;" horiz-adv-x="652" 
d="M576 278.5q55 -72.5 55 -185.5q0 -134 -66.5 -203.5t-197.5 -69.5q-23 0 -35 1v115q51 0 75 22t29.5 53.5t5.5 82.5q0 113 -41.5 157t-125.5 44h-36q9 -34 9 -64v-231h-187v690h187v-183q0 -41 -8 -86h33q46 0 71.5 21.5t41.5 68t46 158.5l6 21h190l-19 -64
q-34 -114 -53.5 -160.5t-51 -70.5t-93.5 -32v-6q110 -6 165 -78.5z" />
    <glyph glyph-name="u04C4" unicode="&#x4c4;" horiz-adv-x="586" 
d="M557 48q0 -116 -71.5 -174.5t-206.5 -52.5v106q45 1 67.5 20.5t29 47t6.5 68.5q0 68 -35.5 101t-93.5 33h-23q5 -23 5 -40v-157h-181v497h181v-117q0 -34 -7 -63h22q37 0 53.5 10.5t28 42.5t35.5 127h183l-16 -52q-27 -90 -40.5 -121t-36.5 -43t-79 -20v-5
q179 -40 179 -208z" />
    <glyph glyph-name="u04C5" unicode="&#x4c5;" horiz-adv-x="696" 
d="M696 128v-128l-36 -151h-135l22 151h-119v562h-63q-54 0 -57 -51q-10 -125 -22 -211.5t-31 -143.5q-28 -87 -79 -126t-124 -39q-23 0 -55 5l-14 145q41 6 64 19.5t35 46.5q17 47 28 122.5t19 197.5q5 81 49 122t124 41h314v-562h80z" />
    <glyph glyph-name="u04C6" unicode="&#x4c6;" horiz-adv-x="637" 
d="M634 127v-127l-35 -142h-128l22 142h-120v376h-43q-22 0 -33.5 -10t-13.5 -32q-17 -148 -30 -209q-11 -71 -56 -103t-112 -32q-27 0 -60 5l-18 133q8 1 31.5 4.5t35.5 13t17 28.5q15 53 26 195q11 128 137 128h300v-370h80z" />
    <glyph glyph-name="u04C7" unicode="&#x4c7;" horiz-adv-x="703" 
d="M642 690v-626q0 -85 -31.5 -142t-84 -84t-117.5 -27q-37 0 -75 9v115q67 0 93.5 38t26.5 107v218h-206v-298h-187v690h187v-255h206v255h188z" />
    <glyph glyph-name="u04C8" unicode="&#x4c8;" horiz-adv-x="617" 
d="M563 497v-471q0 -108 -60.5 -158.5t-152.5 -50.5q-24 0 -48 3v112q47 0 65 24t18 70v175h-152v-201h-179v497h179v-175h152v175h178z" />
    <glyph glyph-name="u04C9" unicode="&#x4c9;" horiz-adv-x="722" 
d="M722 128v-128l-36 -151h-135l22 151h-119v298h-206v-298h-187v690h187v-255h206v255h188v-562h80z" />
    <glyph glyph-name="u04CA" unicode="&#x4ca;" horiz-adv-x="646" 
d="M643 128v-128l-35 -149h-135l21 149h-109v201h-152v-201h-179v497h179v-175h152v175h178v-369h80z" />
    <glyph glyph-name="u04CB" unicode="&#x4cb;" horiz-adv-x="654" 
d="M593 690v-690h-219l-13 -151h-135v279h179v144q-50 -23 -104 -35.5t-94 -12.5q-96 0 -141.5 42.5t-45.5 131.5v292h188v-251q0 -33 14 -46.5t53 -13.5q33 0 62.5 4.5t67.5 17.5v289h188z" />
    <glyph glyph-name="u04CC" unicode="&#x4cc;" horiz-adv-x="588" 
d="M534 497v-497h-125l-14 -138h-120v238h78v75q-78 -28 -156 -28q-82 0 -121 28.5t-39 88.5v233h180v-179q0 -20 9.5 -29t32.5 -9q46 0 94 17v200h181z" />
    <glyph glyph-name="u04CD" unicode="&#x4cd;" horiz-adv-x="965" 
d="M982 128v-128l-36 -151h-134l21 151h-119l-22 547h-16l-84 -386q-11 -58 -73 -58h-106q-62 0 -74 58l-85 386h-16l-18 -547h-172l24 623q3 67 68 67h168q61 0 73 -59l65 -306q6 -31 14 -100h11l5 36q5 40 10 65l63 305q12 59 73 59h171q65 0 68 -67l20 -495h101z" />
    <glyph glyph-name="u04CE" unicode="&#x4ce;" horiz-adv-x="832" 
d="M837 128v-128l-35 -149h-135l21 149h-94l-13 365h-12l-59 -241q-10 -55 -68 -55h-81q-59 0 -69 55l-59 241h-12l-10 -365h-164l12 435q2 62 63 62h154q28 0 45.5 -14t21.5 -42l44 -185q4 -17 8 -53q0 -7 2 -21h8q2 12 4 32q1 7 2 17.5t4 24.5l43 185q4 28 21.5 42
t46.5 14h157q60 0 62 -62l9 -307h83z" />
    <glyph glyph-name="u04CF" unicode="&#x4cf;" horiz-adv-x="293" 
d="M238 0h-183v690h183v-690z" />
    <glyph glyph-name="u04D0" unicode="&#x4d0;" horiz-adv-x="668" 
d="M440 164h-212l-41 -164h-192l189 641q5 22 22.5 35.5t40.5 13.5h174q23 0 40.5 -13.5t23.5 -35.5l188 -641h-192zM406 300l-45 177q-11 52 -13 72h-27q-7 -38 -14 -72l-45 -177h144zM506 901q2 -14 2 -20q0 -39 -21.5 -72t-61 -53t-91.5 -20t-92 20t-61.5 53t-21.5 72
q0 6 2 20h115q-1 -7 -1 -18q0 -33 15 -47t44 -14t43.5 14t14.5 47q0 11 -1 18h115z" />
    <glyph glyph-name="u04D1" unicode="&#x4d1;" horiz-adv-x="584" 
d="M483.5 467.5q51.5 -43.5 51.5 -150.5v-317h-145l-17 73q-30 -37 -74 -61.5t-103 -24.5q-72 0 -119.5 37.5t-47.5 104.5v50q0 59 42.5 93t116.5 34h165v12q-1 32 -15.5 44.5t-53.5 12.5q-97 0 -213 -7l-16 118q55 10 135.5 17.5t136.5 7.5q105 0 156.5 -43.5zM256 115
q45 0 97 35v61h-104q-42 -1 -42 -39v-17q0 -40 49 -40zM457 719q2 -14 2 -20q0 -39 -21.5 -72t-61 -53t-91.5 -20t-92 20t-61.5 53t-21.5 72q0 6 2 20h115q-1 -7 -1 -18q0 -33 15 -47t44 -14t43.5 14t14.5 47q0 11 -1 18h115z" />
    <glyph glyph-name="u04D2" unicode="&#x4d2;" horiz-adv-x="668" 
d="M440 164h-212l-41 -164h-192l189 641q5 22 22.5 35.5t40.5 13.5h174q23 0 40.5 -13.5t23.5 -35.5l188 -641h-192zM406 300l-45 177q-11 52 -13 72h-27q-7 -38 -14 -72l-45 -177h144zM307 857v-60q0 -37 -36 -37h-60q-36 0 -36 37v60q0 36 36 36h60q36 0 36 -36zM493 857
v-60q0 -37 -36 -37h-60q-36 0 -36 37v60q0 36 36 36h60q36 0 36 -36z" />
    <glyph glyph-name="u04D3" unicode="&#x4d3;" horiz-adv-x="584" 
d="M483.5 467.5q51.5 -43.5 51.5 -150.5v-317h-145l-17 73q-30 -37 -74 -61.5t-103 -24.5q-72 0 -119.5 37.5t-47.5 104.5v50q0 59 42.5 93t116.5 34h165v12q-1 32 -15.5 44.5t-53.5 12.5q-97 0 -213 -7l-16 118q55 10 135.5 17.5t136.5 7.5q105 0 156.5 -43.5zM256 115
q45 0 97 35v61h-104q-42 -1 -42 -39v-17q0 -40 49 -40zM256 675v-60q0 -37 -36 -37h-59q-36 0 -36 37v60q0 36 36 36h59q36 0 36 -36zM442 675v-60q0 -37 -36 -37h-59q-37 0 -37 37v60q0 36 37 36h59q36 0 36 -36z" />
    <glyph glyph-name="u04D4" unicode="&#x4d4;" horiz-adv-x="944" 
d="M901 141l9 -133q-68 -7 -143 -9t-187 -2q-64 0 -101.5 41t-37.5 107v29h-185l-79 -174h-192l263 545q26 56 61 87t97 45.5t167 14.5q109 0 183.5 -2t153.5 -8l-9 -133h-240q-20 0 -32.5 -12.5t-12.5 -31.5v-88h250v-122h-250v-111q0 -43 45 -43h240zM441 307v205
q0 16 5.5 33.5t13.5 30.5h-13q-10 -11 -31 -48l-100 -221h125z" />
    <glyph glyph-name="u04D5" unicode="&#x4d5;" horiz-adv-x="881" 
d="M823 141l17 -111q-83 -42 -228 -42q-88 0 -144.5 22.5t-86.5 69.5q-30 -39 -76.5 -66t-112.5 -27q-71 0 -117.5 37.5t-46.5 104.5v50q0 58 41.5 91.5t114.5 33.5h160v14q0 32 -14.5 44.5t-51.5 12.5q-96 0 -209 -7l-16 118q53 10 133.5 17.5t134.5 7.5q83 0 131 -26
q58 26 157 26q130 0 187 -43.5t57 -132.5q1 -70 -38.5 -102t-134.5 -32h-149q7 -41 29 -56.5t73 -15.5q89 0 190 12zM561.5 380.5q-16.5 -7.5 -24 -27t-9.5 -58.5h101q31 0 40 9.5t9 34.5q0 30 -14.5 39.5t-54.5 9.5q-31 0 -47.5 -7.5zM300.5 125q26.5 10 51.5 28
q-7 30 -8 57l-97 1q-41 -1 -41 -39v-17q0 -40 46 -40q22 0 48.5 10z" />
    <glyph glyph-name="u04D6" unicode="&#x4d6;" horiz-adv-x="588" 
d="M546 143l9 -135q-64 -7 -144 -9t-198 -2q-70 0 -113.5 40.5t-43.5 107.5v400q0 67 43.5 107.5t113.5 40.5q118 0 198 -2t144 -9l-9 -135h-258q-44 0 -44 -43v-84h266v-129h-266v-105q0 -43 44 -43h258zM491 903q2 -14 2 -20q0 -39 -21.5 -72t-61 -53t-91.5 -20t-92 20
t-61.5 53t-21.5 72q0 6 2 20h115q-1 -7 -1 -18q0 -33 15 -47t44 -14t43.5 14t14.5 47q0 11 -1 18h115z" />
    <glyph glyph-name="u04D7" unicode="&#x4d7;" horiz-adv-x="578" 
d="M519 141l17 -111q-83 -42 -232 -42q-147 0 -209.5 62t-62.5 196q0 99 27 156.5t85 83t157 25.5q131 0 189.5 -43.5t58.5 -132.5q1 -70 -38.5 -102t-134.5 -32h-150q7 -41 28.5 -56.5t70.5 -15.5q91 0 194 12zM255 380.5q-16 -7.5 -23 -27t-9 -58.5h102q31 0 40 9.5
t9 34.5q0 29 -15.5 39t-57.5 10q-30 0 -46 -7.5zM476 718q2 -14 2 -20q0 -39 -21.5 -72t-61 -53t-91.5 -20t-92 20t-61.5 53t-21.5 72q0 6 2 20h115q-1 -7 -1 -18q0 -33 15 -47t44 -14t43.5 14t14.5 47q0 11 -1 18h115z" />
    <glyph glyph-name="u04D8" unicode="&#x4d8;" horiz-adv-x="612" 
d="M459.5 666.5q67.5 -36.5 95 -112t27.5 -204.5q0 -143 -31 -221t-96 -109.5t-178 -31.5q-91 0 -147 21t-82 68t-26 126q0 81 24 127t74 65.5t135 19.5h128q-4 59 -19 85.5t-43 34t-85 7.5q-96 0 -173 -10l-16 138q36 14 96 23.5t127 9.5q122 0 189.5 -36.5zM341.5 152.5
q20.5 13.5 30.5 47t12 96.5h-101q-46 0 -65 -18t-19 -64q0 -40 19.5 -57.5t65.5 -17.5q37 0 57.5 13.5z" />
    <glyph glyph-name="u04D9" unicode="&#x4d9;" horiz-adv-x="577" 
d="M482.5 449q62.5 -62 62.5 -196q0 -99 -27 -156.5t-85 -83t-157 -25.5q-132 0 -190 44t-58 134q0 70 40.5 102t136.5 32h146q-7 40 -29 54.5t-70 14.5q-88 0 -194 -11l-17 111q87 42 232 42q147 0 209.5 -62zM322 118.5q16 7.5 23.5 27.5t9.5 60h-100q-32 0 -42 -10.5
t-10 -36.5q0 -29 15.5 -38.5t57.5 -9.5q30 0 46 7.5z" />
    <glyph glyph-name="u04DA" unicode="&#x4da;" horiz-adv-x="612" 
d="M459.5 666.5q67.5 -36.5 95 -112t27.5 -204.5q0 -143 -31 -221t-96 -109.5t-178 -31.5q-91 0 -147 21t-82 68t-26 126q0 81 24 127t74 65.5t135 19.5h128q-4 59 -19 85.5t-43 34t-85 7.5q-96 0 -173 -10l-16 138q36 14 96 23.5t127 9.5q122 0 189.5 -36.5zM341.5 152.5
q20.5 13.5 30.5 47t12 96.5h-101q-46 0 -65 -18t-19 -64q0 -40 19.5 -57.5t65.5 -17.5q37 0 57.5 13.5zM273 860v-60q0 -37 -36 -37h-60q-36 0 -36 37v60q0 36 36 36h60q36 0 36 -36zM459 860v-60q0 -37 -36 -37h-60q-36 0 -36 37v60q0 36 36 36h60q36 0 36 -36z" />
    <glyph glyph-name="u04DB" unicode="&#x4db;" horiz-adv-x="577" 
d="M482.5 449q62.5 -62 62.5 -196q0 -99 -27 -156.5t-85 -83t-157 -25.5q-132 0 -190 44t-58 134q0 70 40.5 102t136.5 32h146q-7 40 -29 54.5t-70 14.5q-88 0 -194 -11l-17 111q87 42 232 42q147 0 209.5 -62zM322 118.5q16 7.5 23.5 27.5t9.5 60h-100q-32 0 -42 -10.5
t-10 -36.5q0 -29 15.5 -38.5t57.5 -9.5q30 0 46 7.5zM270 674v-60q0 -37 -36 -37h-60q-36 0 -36 37v60q0 36 36 36h60q36 0 36 -36zM456 674v-60q0 -37 -36 -37h-60q-36 0 -36 37v60q0 36 36 36h60q36 0 36 -36z" />
    <glyph glyph-name="u04DC" unicode="&#x4dc;" horiz-adv-x="954" 
d="M813 320.5q33 -26.5 55 -82.5t63 -201l11 -37h-197q-10 32 -18 60q-35 115 -51 157.5t-34 60t-50 17.5h-33q8 -35 8 -64v-231h-179v231q0 31 9 64h-36q-31 0 -48.5 -17t-33 -59t-50.5 -154l-20 -65h-196l11 37q41 145 62.5 201t55 82.5t100.5 36.5v6q-60 8 -90.5 31.5
t-48.5 69t-50 155.5l-21 71h190q3 -13 6.5 -23.5l6.5 -19.5q29 -101 44.5 -143.5t34 -62.5t48.5 -20h35q-9 42 -9 86v183h179v-183q0 -41 -8 -86h32q30 0 48.5 19.5t33 59.5t44.5 139l15 51h190l-21 -71q-32 -110 -50 -155.5t-48.5 -69t-90.5 -31.5v-6q68 -10 101 -36.5z
M448 859v-60q0 -37 -36 -37h-59q-36 0 -36 37v60q0 36 36 36h59q36 0 36 -36zM634 859v-60q0 -37 -36 -37h-59q-37 0 -37 37v60q0 36 37 36h59q36 0 36 -36z" />
    <glyph glyph-name="u04DD" unicode="&#x4dd;" horiz-adv-x="841" 
d="M725 232.5q26 -15.5 44.5 -59.5t58.5 -173h-184q-36 110 -50 145.5t-26.5 45t-41.5 9.5h-32q6 -22 6 -42v-158h-159v158q0 20 6 42h-33q-27 0 -39 -9.5t-26.5 -45t-51.5 -145.5h-184q40 130 58.5 173.5t44 59t90.5 24.5v5q-56 7 -80 20t-38.5 45.5t-43.5 123.5
q-8 23 -15 46h178q30 -92 43 -125.5t26.5 -44.5t39.5 -11h32q-6 32 -6 62v119h158v-119q0 -33 -7 -62h31q27 0 40 11t26 43.5t43 126.5h179l-13 -42q-29 -94 -44 -126.5t-39 -46t-81 -20.5v-5q64 -9 90 -24.5zM395 674v-60q0 -37 -36 -37h-59q-36 0 -36 37v60q0 36 36 36h59
q36 0 36 -36zM581 674v-60q0 -37 -36 -37h-59q-37 0 -37 37v60q0 36 37 36h59q36 0 36 -36z" />
    <glyph glyph-name="u04DE" unicode="&#x4de;" horiz-adv-x="577" 
d="M420 682.5q52 -15.5 75.5 -54.5t23.5 -110q0 -75 -28 -113t-91 -44v-6q75 -7 107.5 -52t32.5 -131q0 -70 -24.5 -109t-74.5 -55t-136 -16q-92 0 -156 7.5t-125 26.5l14 125q134 -21 230 -21q47 0 63.5 16t16.5 63q0 35 -7 53t-24.5 25t-50.5 7l-143 3v121l142 3
q40 0 54 14.5t14 56.5q0 41 -15 54.5t-57 13.5q-92 0 -210 -14l-14 131q52 11 106.5 16t130.5 5q94 0 146 -15.5zM250 859v-60q0 -37 -36 -37h-59q-36 0 -36 37v60q0 36 36 36h59q36 0 36 -36zM436 859v-60q0 -37 -36 -37h-59q-37 0 -37 37v60q0 36 37 36h59q36 0 36 -36z
" />
    <glyph glyph-name="u04DF" unicode="&#x4df;" horiz-adv-x="527" 
d="M373 500q53 -10 78.5 -39t25.5 -87t-25 -84.5t-83 -31.5v-4q68 -5 98 -36.5t30 -93.5q0 -59 -26 -88.5t-75.5 -39t-136.5 -9.5q-137 0 -236 22l12 120q106 -11 211 -11q29 0 41.5 2.5t18 10.5t5.5 27q0 16 -5.5 23.5t-18.5 10.5t-42 4l-156 2v107l155 3q34 1 45 7.5
t11 27.5q0 22 -12.5 28t-54.5 6q-85 0 -186 -11l-11 119q81 25 186 25q98 0 151 -10zM228 674v-60q0 -37 -36 -37h-59q-36 0 -36 37v60q0 36 36 36h59q36 0 36 -36zM414 674v-60q0 -37 -36 -37h-59q-37 0 -37 37v60q0 36 37 36h59q36 0 36 -36z" />
    <glyph glyph-name="u04E0" unicode="&#x4e0;" horiz-adv-x="527" 
d="M412 373q48 -16 73.5 -57t25.5 -115q0 -78 -24.5 -124t-80 -67.5t-150.5 -21.5q-128 0 -246 20l7 133q133 -8 195 -8q45 0 69 7t33.5 25t9.5 52q0 33 -7.5 51t-26.5 25.5t-56 7.5h-144v86l195 169h-258v134h434q7 0 12 -5t5 -12v-101l-218 -183h31q73 0 121 -16z" />
    <glyph glyph-name="u04E1" unicode="&#x4e1;" horiz-adv-x="508" 
d="M395.5 183.5q43.5 -16.5 67 -58.5t23.5 -117q0 -77 -23 -123.5t-74.5 -68t-139.5 -21.5q-122 0 -234 20l6 133l28 -2q96 -6 151 -6q41 0 62 7t29.5 25t8.5 52q0 44 -15.5 60t-61.5 16h-134v98l172 165h-229v134h406q7 0 12 -5t5 -12v-101l-202 -179h33q66 0 109.5 -16.5z
" />
    <glyph glyph-name="u04E2" unicode="&#x4e2;" horiz-adv-x="724" 
d="M660 0h-179v360q0 44 10 101h-7q-18 -57 -41 -99l-198 -362h-181v690h178v-351q0 -45 -10 -105h7q19 57 42 99l198 357h181v-690zM525 774h-310v110h310v-110z" />
    <glyph glyph-name="u04E3" unicode="&#x4e3;" horiz-adv-x="620" 
d="M566 0l-162 -1v223q0 30 7 88h-4q-14 -42 -40 -83l-155 -227h-158v497h161v-234q0 -26 -7 -77h4q12 33 38 73l158 238h158v-497zM466 589h-310v110h310v-110z" />
    <glyph glyph-name="u04E4" unicode="&#x4e4;" horiz-adv-x="724" 
d="M660 0h-179v360q0 44 10 101h-7q-18 -57 -41 -99l-198 -362h-181v690h178v-351q0 -45 -10 -105h7q19 57 42 99l198 357h181v-690zM340 859v-60q0 -37 -36 -37h-59q-36 0 -36 37v60q0 36 36 36h59q36 0 36 -36zM526 859v-60q0 -37 -36 -37h-59q-37 0 -37 37v60q0 36 37 36
h59q36 0 36 -36z" />
    <glyph glyph-name="u04E5" unicode="&#x4e5;" horiz-adv-x="620" 
d="M566 0l-162 -1v223q0 30 7 88h-4q-14 -42 -40 -83l-155 -227h-158v497h161v-234q0 -26 -7 -77h4q12 33 38 73l158 238h158v-497zM281 674v-60q0 -37 -36 -37h-59q-36 0 -36 37v60q0 36 36 36h59q36 0 36 -36zM467 674v-60q0 -37 -36 -37h-59q-37 0 -37 37v60q0 36 37 36
h59q36 0 36 -36z" />
    <glyph glyph-name="u04E6" unicode="&#x4e6;" 
d="M532 672.5q66 -31.5 96 -109t30 -218.5t-30 -218.5t-96 -109t-184 -31.5t-184 31.5t-95.5 109t-29.5 218.5t29.5 218.5t95.5 109t184 31.5t184 -31.5zM279 541.5q-24 -18.5 -33.5 -64t-9.5 -132.5t9.5 -132.5t33.5 -64t69 -18.5t69 18.5t33.5 64t9.5 132.5t-9.5 132.5
t-33.5 64t-69 18.5t-69 -18.5zM322 860v-60q0 -37 -36 -37h-60q-36 0 -36 37v60q0 36 36 36h60q36 0 36 -36zM508 860v-60q0 -37 -36 -37h-60q-36 0 -36 37v60q0 36 36 36h60q36 0 36 -36z" />
    </font>
</defs>
</svg>
